<?xml version="1.0" encoding="utf-8"?>
<svg xmlns="http://www.w3.org/2000/svg" viewBox="0 0 1080 1080" preserveAspectRatio="xMidYMid meet" width="200px">
<style type="text/css">
	.st0{fill:#3b82f6;}
	.st1{opacity:0.35;}
</style>
<g>
	<path class="st0" d="M524.27,489.46v-1.09c0-0.39-0.17-0.75-0.45-1.01c-0.28-0.26-0.66-0.42-1.08-0.42c-0.84,0-1.53,0.64-1.53,1.43
		v1.09h-0.36v3.03h3.78v-3.03H524.27z M521.6,488.38c0-0.58,0.5-1.05,1.12-1.05c0.31,0,0.59,0.12,0.79,0.31
		c0.2,0.19,0.33,0.45,0.33,0.74v1.05h-2.25V488.38z"/>
	<path class="st0" d="M527.61,498.91v-1.09c0-0.39-0.17-0.75-0.45-1.01c-0.28-0.26-0.66-0.42-1.08-0.42c-0.84,0-1.53,0.64-1.53,1.43
		v1.09h-0.36v3.03h3.78v-3.03H527.61z M524.93,497.83c0-0.58,0.5-1.05,1.12-1.05c0.31,0,0.59,0.12,0.79,0.31
		c0.2,0.19,0.33,0.45,0.33,0.74v1.05h-2.25V497.83z"/>
	<path class="st0" d="M522.91,514.44v1.09c0,0.39,0.17,0.75,0.45,1.01c0.28,0.26,0.66,0.42,1.08,0.42c0.84,0,1.53-0.64,1.53-1.43
		v-1.09h0.36v-3.03h-3.78v3.03H522.91z M525.58,515.52c0,0.58-0.5,1.05-1.12,1.05c-0.31,0-0.59-0.12-0.79-0.31
		c-0.2-0.19-0.33-0.45-0.33-0.74v-1.05h2.25V515.52z"/>
	<path class="st0" d="M533.47,497.76v1.09c0,0.39,0.17,0.75,0.45,1.01c0.28,0.26,0.66,0.42,1.08,0.42c0.84,0,1.53-0.64,1.53-1.43
		v-1.09h0.36v-3.03h-3.78v3.03H533.47z M536.14,498.84c0,0.58-0.5,1.05-1.12,1.05c-0.31,0-0.59-0.12-0.79-0.31
		c-0.2-0.19-0.33-0.45-0.33-0.74v-1.05h2.25V498.84z"/>
	<polygon class="st0" points="537.06,429.22 537.06,452.23 574.71,452.23 574.71,469.63 537.06,469.63 537.06,493.85 527.5,491 
		527.5,485.28 520.53,485.28 520.53,478.6 519,476.93 519,411.82 581.96,411.82 581.96,429.22 	"/>
	<path class="st0" d="M645.41,468.15c2.23-0.59,4.32-1.46,6.27-2.61c4.02-2.37,7.13-5.73,9.33-10.06c2.2-4.33,3.3-9.35,3.3-15.07
		c0-5.71-1.1-10.73-3.3-15.06c-2.2-4.33-5.3-7.68-9.3-10.06c-1.05-0.62-2.14-1.16-3.27-1.62v12.1h-6.83l-3.2,3.56
		c1.06,0.22,2.02,0.62,2.89,1.19c1.41,0.92,2.5,2.24,3.26,3.95c0.77,1.71,1.16,3.69,1.16,5.93c-0.04,2.25-0.45,4.22-1.22,5.94
		c-0.77,1.71-1.86,3.03-3.26,3.95c-1.41,0.92-3.03,1.38-4.88,1.38h-22.48v-22.55h0.49v-0.3l-0.9-0.1l-0.23,0.23l-1.3,1.31
		l-0.93,0.93l-3.07,3.07h-6.19v6.13h-5.93v67.24h18.06V469.1h10.96l21.61,38.56h21.89L645.41,468.15z"/>
	<path class="st0" d="M825.47,488.19h-4.23v-5.35h-5.88v9.1h-5.32v-9.06l-4.8,4.81h-1.56l11.19,19.97h21.89L825.47,488.19z"/>
	<polygon class="st0" points="748.03,422.1 748.03,429.22 731.66,429.22 731.66,425.79 737.78,425.79 737.78,422.1 	"/>
	<polygon class="st0" points="701.88,490.27 748.03,490.27 748.03,507.67 683.81,507.67 683.81,441.75 688.86,441.75 688.86,432.46 
		692.75,432.46 692.75,440.42 698.86,440.42 698.86,429.15 701.88,429.15 701.94,429.22 701.88,429.22 701.88,451.37 740.77,451.37 
		740.77,468.78 701.88,468.78 	"/>
	<path class="st0" d="M829.71,425.36c-2.2-4.33-5.3-7.68-9.29-10.06c-4-2.37-8.64-3.56-13.91-3.56h-41.99v95.92h18.07V469.1h10.96
		v-1.3h4.96v-5.08h6.24v-6.35h6.43v6.99h8.5v2.6c0.24-0.13,0.48-0.27,0.72-0.41c4.02-2.37,7.13-5.73,9.33-10.06
		c2.2-4.33,3.3-9.35,3.3-15.07C833.01,434.71,831.91,429.69,829.71,425.36z M813.19,446.36c-0.77,1.71-1.86,3.03-3.26,3.95
		c-1.41,0.92-3.04,1.38-4.88,1.38h-22.48v-22.55h22.48c1.89,0,3.54,0.47,4.95,1.39c1.41,0.92,2.49,2.24,3.26,3.95
		c0.77,1.71,1.15,3.69,1.15,5.93C814.37,442.67,813.96,444.64,813.19,446.36z"/>
	<path class="st0" d="M914.56,475.27v5h-5.28v-6.91h-4.17v10.25h-5.91v-9.82c0,3.34-0.67,6.29-2.01,8.83
		c-1.34,2.55-3.24,4.51-5.7,5.9c-2.46,1.38-5.31,2.08-8.57,2.08c-3.26,0-6.11-0.69-8.57-2.08c-2.46-1.38-4.36-3.35-5.7-5.9
		c-1.34-2.55-2.01-5.49-2.01-8.83v-0.18h-3.21v5.16h-2.15l-0.08-9.61h-2.54v5.8h-3.57v-4.29h-3.89v12.95h-2.1
		c0.72,2.96,1.78,5.71,3.16,8.27c2.9,5.34,7,9.47,12.3,12.4c5.3,2.92,11.41,4.38,18.36,4.38c6.94,0,13.06-1.46,18.36-4.38
		c5.3-2.92,9.4-7.05,12.3-12.4c2.63-4.84,4.07-10.38,4.31-16.61H914.56z M850.07,436.35h5.28v6.91h4.17v-10.25h5.92v9.82h1.36
		c0.28-2.18,0.89-4.18,1.83-5.98c1.34-2.55,3.24-4.51,5.7-5.9c2.46-1.38,5.31-2.08,8.57-2.08c3.25,0,6.1,0.69,8.57,2.08
		c2.46,1.38,4.36,3.35,5.7,5.9c0.97,1.85,1.59,3.9,1.86,6.16h2.18v-5.16h2.15l0.08,9.61h2.54v-5.8h3.57v4.29h3.89v-12.95h2.46
		c-0.63-1.9-1.41-3.7-2.35-5.41c-2.9-5.34-7-9.47-12.3-12.4c-5.29-2.92-11.41-4.38-18.36-4.38c-6.95,0-13.06,1.46-18.36,4.38
		c-5.3,2.92-9.4,7.05-12.3,12.4c-2.22,4.09-3.59,8.67-4.1,13.75h1.92V436.35z"/>
	<polygon class="st0" points="966.26,483.61 968.02,483.61 968.02,507.67 949.96,507.67 949.96,486.94 954.59,486.94 954.59,480.83 
		958.99,480.83 958.99,490.6 962.37,490.6 962.37,479.16 966.26,479.16 	"/>
	<polygon class="st0" points="994.13,411.82 994.13,429.22 968.02,429.22 968.02,432.86 966.42,432.86 966.42,440.42 962.93,440.42 
		962.93,428.89 958.99,428.89 958.99,437.63 956.26,437.63 956.26,432.22 952.12,432.22 952.12,436.35 949.96,436.35 949.96,429.22 
		923.85,429.22 923.85,411.82 	"/>
	<g>
		<path class="st0" d="M526.62,494.65h-0.9v-4.62h0.9V494.65z"/>
	</g>
	<g>
		<path class="st0" d="M529.95,501.32h-0.9v-4.62h0.9V501.32z"/>
	</g>
	<g>
		<path class="st0" d="M522.72,507.43h-0.9v-4.62h0.9V507.43z"/>
	</g>
	<g>
		<path class="st0" d="M533.29,507.43h-0.9v-4.62h0.9V507.43z"/>
	</g>
	<g>
		<path class="st0" d="M536.07,512.44h-0.9v-4.62h0.9V512.44z"/>
	</g>
	<g>
		<path class="st0" d="M530.51,516.33h-0.9v-4.62h0.9V516.33z"/>
	</g>
	<g>
		<path class="st0" d="M531.06,495.2h-0.9v-4.62h0.9V495.2z"/>
	</g>
	<g>
		<path class="st0" d="M522.17,499.09h-0.9v-4.62h0.9V499.09z"/>
	</g>
	<g>
		<path class="st0" d="M534.06,520.9c-0.24-0.24-0.36-0.57-0.36-0.99v-2.15c0-0.43,0.12-0.76,0.36-0.99
			c0.24-0.24,0.59-0.35,1.05-0.35c0.46,0,0.81,0.12,1.06,0.35c0.24,0.23,0.36,0.57,0.36,0.99v2.15c0,0.43-0.12,0.76-0.36,0.99
			c-0.24,0.24-0.59,0.35-1.05,0.35C534.66,521.26,534.3,521.14,534.06,520.9z M535.52,520.22c0.08-0.12,0.13-0.3,0.13-0.53v-1.7
			c0-0.23-0.04-0.41-0.13-0.53c-0.08-0.12-0.22-0.18-0.4-0.18s-0.31,0.06-0.4,0.18c-0.08,0.12-0.13,0.3-0.13,0.53v1.7
			c0,0.23,0.04,0.41,0.13,0.53c0.08,0.12,0.22,0.18,0.4,0.18S535.43,520.34,535.52,520.22z"/>
	</g>
	<g>
		<path class="st0" d="M526.84,508.67c-0.24-0.24-0.36-0.57-0.36-0.99v-2.15c0-0.43,0.12-0.76,0.36-0.99
			c0.24-0.24,0.59-0.35,1.05-0.35c0.46,0,0.81,0.12,1.06,0.35c0.24,0.23,0.36,0.57,0.36,0.99v2.15c0,0.43-0.12,0.76-0.36,0.99
			c-0.24,0.24-0.59,0.35-1.05,0.35C527.43,509.03,527.08,508.91,526.84,508.67z M528.29,507.99c0.08-0.12,0.13-0.3,0.13-0.53v-1.7
			c0-0.23-0.04-0.41-0.13-0.53c-0.08-0.12-0.22-0.18-0.4-0.18s-0.31,0.06-0.4,0.18c-0.08,0.12-0.13,0.3-0.13,0.53v1.7
			c0,0.23,0.04,0.41,0.13,0.53c0.08,0.12,0.22,0.18,0.4,0.18S528.2,508.11,528.29,507.99z"/>
	</g>
	<path class="st0" d="M597.13,423.35v1.38c0,0.5,0.22,0.95,0.56,1.27c0.35,0.33,0.83,0.53,1.36,0.53c1.06,0,1.93-0.81,1.93-1.8
		v-1.38h0.45v-3.84h-4.78v3.84H597.13z M600.51,424.72c0,0.73-0.64,1.33-1.42,1.33c-0.39,0-0.75-0.15-1-0.39
		c-0.26-0.24-0.42-0.57-0.42-0.94v-1.33h2.84V424.72z"/>
	<path class="st0" d="M619.31,411.58v-1.38c0-0.5-0.22-0.95-0.56-1.27c-0.35-0.33-0.83-0.53-1.36-0.53c-1.06,0-1.93,0.81-1.93,1.8
		v1.38H615v3.84h4.78v-3.84H619.31z M615.93,410.2c0-0.73,0.64-1.33,1.42-1.33c0.39,0,0.75,0.15,1,0.39
		c0.26,0.24,0.42,0.57,0.42,0.94v1.33l-2.84,0V410.2z"/>
	<path class="st0" d="M631.54,419.36v-1.38c0-0.5-0.22-0.95-0.56-1.27c-0.35-0.33-0.83-0.53-1.36-0.53c-1.06,0-1.93,0.81-1.93,1.8
		v1.38h-0.45v3.84l4.78,0v-3.84H631.54z M628.16,417.99c0-0.73,0.64-1.33,1.42-1.33c0.39,0,0.75,0.15,1,0.39
		c0.26,0.24,0.42,0.57,0.42,0.94v1.33h-2.84V417.99z"/>
	<path class="st0" d="M638.21,411.58v-1.38c0-0.5-0.22-0.95-0.56-1.27c-0.35-0.33-0.83-0.53-1.36-0.53c-1.06,0-1.93,0.81-1.93,1.8
		v1.38h-0.45v3.84h4.78v-3.84H638.21z M634.83,410.2c0-0.73,0.64-1.33,1.42-1.33c0.39,0,0.75,0.15,1,0.39
		c0.26,0.24,0.42,0.57,0.42,0.94v1.33l-2.84,0V410.2z"/>
	<g>
		<path class="st0" d="M596.9,414.49h-1.14v-5.85h1.14V414.49z"/>
	</g>
	<g>
		<path class="st0" d="M610.26,414.49h-1.14v-5.85h1.14V414.49z"/>
	</g>
	<g>
		<path class="st0" d="M630.27,413.38h-1.14v-5.85h1.14V413.38z"/>
	</g>
	<g>
		<path class="st0" d="M623.04,411.71h-1.14v-5.85h1.14V411.71z"/>
	</g>
	<g>
		<path class="st0" d="M613.77,420.82h-1.14v-5.85h1.14V420.82z"/>
	</g>
	<g>
		<path class="st0" d="M606.74,425.74h-1.14v-5.85h1.14V425.74z"/>
	</g>
	<g>
		<path class="st0" d="M645.1,426.29h-1.14v-5.85h1.14V426.29z"/>
	</g>
	<g>
		<path class="st0" d="M617.86,424.62h-1.14v-5.85h1.14V424.62z"/>
	</g>
	<g>
		<path class="st0" d="M636.76,424.62h-1.14v-5.85h1.14V424.62z"/>
	</g>
	<g>
		<path class="st0" d="M603.96,432.41h-1.14v-5.85h1.14V432.41z"/>
	</g>
	<g>
		<path class="st0" d="M641.21,421.84h-1.14V416h1.14V421.84z"/>
	</g>
	<g>
		<path class="st0" d="M599.51,437.97h-1.14v-5.85h1.14V437.97z"/>
	</g>
	<g>
		<path class="st0" d="M613.91,426.29c-0.31-0.29-0.75-0.44-1.33-0.44s-1.03,0.15-1.33,0.45c-0.31,0.29-0.46,0.71-0.46,1.25v2.72
			c0,0.37,0.08,0.69,0.23,0.95c0.06,0.11,0.14,0.22,0.23,0.31c0.31,0.3,0.75,0.45,1.33,0.45c0.56,0,1-0.14,1.3-0.42
			c0.01-0.01,0.02-0.02,0.03-0.03c0.31-0.29,0.46-0.71,0.46-1.25v-2.72C614.36,427.01,614.21,426.59,613.91,426.29z M613.23,429.98
			c0,0.29-0.06,0.51-0.16,0.67c-0.11,0.16-0.27,0.23-0.5,0.23s-0.39-0.08-0.51-0.23c-0.07-0.09-0.11-0.22-0.13-0.36
			c-0.02-0.09-0.03-0.19-0.03-0.31v-2.15c0-0.29,0.06-0.51,0.16-0.67c0.11-0.16,0.28-0.23,0.51-0.23s0.39,0.08,0.5,0.23
			c0.11,0.16,0.16,0.38,0.16,0.67V429.98z"/>
	</g>
	<g>
		<path class="st0" d="M602.1,416.06c-0.3-0.3-0.46-0.72-0.46-1.25v-2.72c0-0.54,0.15-0.96,0.46-1.25s0.75-0.45,1.33-0.45
			c0.58,0,1.03,0.15,1.33,0.44s0.46,0.72,0.46,1.26v2.72c0,0.54-0.15,0.96-0.46,1.25s-0.75,0.45-1.33,0.45
			C602.85,416.51,602.4,416.36,602.1,416.06z M603.94,415.19c0.11-0.16,0.16-0.38,0.16-0.67v-2.15c0-0.29-0.05-0.51-0.16-0.67
			c-0.11-0.16-0.27-0.23-0.5-0.23s-0.4,0.08-0.5,0.23c-0.11,0.16-0.16,0.38-0.16,0.67v2.15c0,0.29,0.05,0.51,0.16,0.67
			c0.11,0.16,0.27,0.23,0.5,0.23S603.83,415.34,603.94,415.19z"/>
	</g>
	<path class="st0" d="M687.69,436.59v-1.38c0-0.5-0.22-0.95-0.56-1.27c-0.35-0.33-0.83-0.53-1.36-0.53c-1.06,0-1.93,0.81-1.93,1.8
		v1.38h-0.45v3.84h4.78v-3.84H687.69z M684.31,435.22c0-0.73,0.64-1.33,1.42-1.33c0.39,0,0.75,0.15,1,0.39
		c0.26,0.24,0.42,0.57,0.42,0.94v1.33h-2.84V435.22z"/>
	<path class="st0" d="M736.05,419.91v-1.38c0-0.5-0.22-0.95-0.56-1.27c-0.35-0.33-0.83-0.53-1.36-0.53c-1.06,0-1.93,0.81-1.93,1.8
		v1.38h-0.45v3.84h4.78v-3.84H736.05z M732.67,418.54c0-0.73,0.64-1.33,1.42-1.33c0.39,0,0.75,0.15,1,0.39
		c0.26,0.24,0.42,0.57,0.42,0.94v1.33h-2.84V418.54z"/>
	<path class="st0" d="M697.14,421.03v-1.38c0-0.5-0.22-0.95-0.56-1.27c-0.35-0.33-0.83-0.53-1.36-0.53c-1.06,0-1.93,0.81-1.93,1.8
		v1.38h-0.45v3.84h4.78v-3.84H697.14z M693.76,419.66c0-0.73,0.64-1.33,1.42-1.33c0.39,0,0.75,0.15,1,0.39
		c0.26,0.24,0.42,0.57,0.42,0.94v1.33h-2.84V419.66z"/>
	<path class="st0" d="M710.54,426.68v1.38c0,0.5,0.22,0.95,0.56,1.27c0.35,0.33,0.83,0.53,1.36,0.53c1.06,0,1.93-0.81,1.93-1.8
		v-1.38h0.45v-3.84h-4.78v3.84H710.54z M713.92,428.05c0,0.73-0.64,1.33-1.42,1.33c-0.39,0-0.75-0.15-1-0.39
		c-0.26-0.24-0.42-0.57-0.42-0.94v-1.33h2.84V428.05z"/>
	<g>
		<path class="st0" d="M686.4,415.6h-1.14v-5.85h1.14V415.6z"/>
	</g>
	<g>
		<path class="st0" d="M696.41,435.61h-1.14v-5.85h1.14V435.61z"/>
	</g>
	<g>
		<path class="st0" d="M729.78,429.5h-1.14v-5.85h1.14V429.5z"/>
	</g>
	<g>
		<path class="st0" d="M747.01,419.49h-1.14v-5.85h1.14V419.49z"/>
	</g>
	<g>
		<path class="st0" d="M686.42,432.28h-1.14v-5.85h1.14V432.28z"/>
	</g>
	<g>
		<path class="st0" d="M701.05,420.26h-1.14v-5.85h1.14V420.26z"/>
	</g>
	<g>
		<path class="st0" d="M691.24,431.85h-1.14V426h1.14V431.85z"/>
	</g>
	<g>
		<path class="st0" d="M701.19,425.74c-0.31-0.29-0.75-0.44-1.33-0.44s-1.03,0.15-1.33,0.45c-0.31,0.29-0.46,0.71-0.46,1.25v2.72
			c0,0.37,0.08,0.69,0.23,0.95c0.06,0.11,0.14,0.22,0.23,0.31c0.31,0.3,0.75,0.45,1.33,0.45c0.56,0,1-0.14,1.3-0.42
			c0.01-0.01,0.02-0.02,0.03-0.03c0.31-0.29,0.46-0.71,0.46-1.25v-2.72C701.64,426.45,701.49,426.04,701.19,425.74z M700.51,429.43
			c0,0.29-0.06,0.51-0.16,0.67c-0.11,0.16-0.27,0.23-0.5,0.23c-0.23,0-0.39-0.08-0.51-0.23c-0.07-0.09-0.11-0.22-0.13-0.36
			c-0.02-0.09-0.03-0.19-0.03-0.31v-2.15c0-0.29,0.06-0.51,0.16-0.67c0.11-0.16,0.28-0.23,0.51-0.23c0.23,0,0.39,0.08,0.5,0.23
			c0.11,0.16,0.16,0.38,0.16,0.67V429.43z"/>
	</g>
	<g>
		<path class="st0" d="M689.38,415.5c-0.3-0.3-0.46-0.72-0.46-1.25v-2.72c0-0.54,0.15-0.96,0.46-1.25s0.75-0.45,1.33-0.45
			c0.58,0,1.03,0.15,1.33,0.44c0.3,0.3,0.46,0.72,0.46,1.26v2.72c0,0.54-0.15,0.96-0.46,1.25s-0.75,0.45-1.33,0.45
			C690.13,415.95,689.68,415.8,689.38,415.5z M691.22,414.63c0.11-0.16,0.16-0.38,0.16-0.67v-2.15c0-0.29-0.05-0.51-0.16-0.67
			c-0.11-0.16-0.27-0.23-0.5-0.23s-0.4,0.08-0.5,0.23c-0.11,0.16-0.16,0.38-0.16,0.67v2.15c0,0.29,0.05,0.51,0.16,0.67
			c0.11,0.16,0.27,0.23,0.5,0.23S691.11,414.79,691.22,414.63z"/>
	</g>
	<g>
		<path class="st0" d="M684.93,423.84c-0.3-0.3-0.46-0.72-0.46-1.25v-2.72c0-0.54,0.15-0.96,0.46-1.25s0.75-0.45,1.33-0.45
			c0.58,0,1.03,0.15,1.33,0.44s0.46,0.72,0.46,1.26v2.72c0,0.54-0.15,0.96-0.46,1.25s-0.75,0.45-1.33,0.45
			C685.68,424.29,685.24,424.14,684.93,423.84z M686.77,422.97c0.11-0.16,0.16-0.38,0.16-0.67v-2.15c0-0.29-0.05-0.51-0.16-0.67
			c-0.11-0.16-0.27-0.23-0.5-0.23s-0.4,0.08-0.5,0.23c-0.11,0.16-0.16,0.38-0.16,0.67v2.15c0,0.29,0.05,0.51,0.16,0.67
			c0.11,0.16,0.27,0.23,0.5,0.23S686.66,423.13,686.77,422.97z"/>
	</g>
	<g>
		<path class="st0" d="M704.19,418.38h-1.14v-5.85h1.14V418.38z"/>
	</g>
	<g>
		<path class="st0" d="M717.55,418.38h-1.14v-5.85h1.14V418.38z"/>
	</g>
	<g>
		<path class="st0" d="M721.06,424.71h-1.14v-5.85h1.14V424.71z"/>
	</g>
	<g>
		<path class="st0" d="M717.73,428.6h-1.14v-5.85h1.14V428.6z"/>
	</g>
	<g>
		<path class="st0" d="M709.39,419.95c-0.3-0.3-0.46-0.72-0.46-1.25v-2.72c0-0.54,0.15-0.96,0.46-1.25c0.31-0.3,0.75-0.45,1.33-0.45
			c0.58,0,1.03,0.15,1.33,0.44s0.46,0.72,0.46,1.26v2.72c0,0.54-0.15,0.96-0.46,1.25s-0.75,0.45-1.33,0.45
			C710.14,420.4,709.7,420.25,709.39,419.95z M711.23,419.08c0.11-0.16,0.16-0.38,0.16-0.67v-2.15c0-0.29-0.05-0.51-0.16-0.67
			c-0.11-0.16-0.27-0.23-0.5-0.23s-0.4,0.08-0.5,0.23c-0.11,0.16-0.16,0.38-0.16,0.67v2.15c0,0.29,0.05,0.51,0.16,0.67
			c0.11,0.16,0.27,0.23,0.5,0.23S711.12,419.24,711.23,419.08z"/>
	</g>
	<g>
		<path class="st0" d="M704.94,428.29c-0.3-0.3-0.46-0.72-0.46-1.25v-2.72c0-0.54,0.15-0.96,0.46-1.25c0.31-0.3,0.75-0.45,1.33-0.45
			c0.58,0,1.03,0.15,1.33,0.44c0.3,0.3,0.46,0.72,0.46,1.26v2.72c0,0.54-0.15,0.96-0.46,1.25c-0.31,0.3-0.75,0.45-1.33,0.45
			C705.69,428.74,705.25,428.59,704.94,428.29z M706.78,427.42c0.11-0.16,0.16-0.38,0.16-0.67v-2.15c0-0.29-0.05-0.51-0.16-0.67
			c-0.11-0.16-0.27-0.23-0.5-0.23c-0.23,0-0.4,0.08-0.5,0.23s-0.16,0.38-0.16,0.67v2.15c0,0.29,0.05,0.51,0.16,0.67
			s0.27,0.23,0.5,0.23C706.51,427.65,706.67,427.57,706.78,427.42z"/>
	</g>
	<path class="st0" d="M810.61,480.05v1.38c0,0.5,0.22,0.95,0.56,1.27c0.35,0.33,0.83,0.53,1.36,0.53c1.06,0,1.93-0.81,1.93-1.8
		v-1.38h0.45v-3.84h-4.78v3.84H810.61z M813.99,481.42c0,0.73-0.64,1.33-1.42,1.33c-0.39,0-0.75-0.15-1-0.39
		c-0.26-0.24-0.42-0.57-0.42-0.94v-1.33h2.84V481.42z"/>
	<path class="st0" d="M800.04,467.82v1.38c0,0.5,0.22,0.95,0.56,1.27c0.35,0.33,0.83,0.53,1.36,0.53c1.06,0,1.93-0.81,1.93-1.8
		v-1.38h0.45v-3.84h-4.78v3.84H800.04z M803.43,469.19c0,0.73-0.64,1.33-1.42,1.33c-0.39,0-0.75-0.15-1-0.39
		c-0.26-0.24-0.42-0.57-0.42-0.94v-1.33h2.84V469.19z"/>
	<g>
		<path class="st0" d="M817.61,471.75h-1.14v-5.85h1.14V471.75z"/>
	</g>
	<g>
		<path class="st0" d="M807.05,473.97h-1.14v-5.85h1.14V473.97z"/>
	</g>
	<g>
		<path class="st0" d="M821.13,478.08h-1.14v-5.85h1.14V478.08z"/>
	</g>
	<g>
		<path class="st0" d="M813.35,490.31h-1.14v-5.85h1.14V490.31z"/>
	</g>
	<g>
		<path class="st0" d="M823.91,486.41h-1.14v-5.85h1.14V486.41z"/>
	</g>
	<g>
		<path class="st0" d="M803.9,486.41h-1.14v-5.85h1.14V486.41z"/>
	</g>
	<g>
		<path class="st0" d="M802.78,478.08h-1.14v-5.85h1.14V478.08z"/>
	</g>
	<g>
		<path class="st0" d="M817.79,481.97h-1.14v-5.85h1.14V481.97z"/>
	</g>
	<g>
		<path class="st0" d="M809.46,473.32c-0.3-0.3-0.46-0.72-0.46-1.25v-2.72c0-0.54,0.15-0.96,0.46-1.25c0.31-0.3,0.75-0.45,1.33-0.45
			c0.58,0,1.03,0.15,1.33,0.44c0.3,0.3,0.46,0.72,0.46,1.26v2.72c0,0.54-0.15,0.96-0.46,1.25c-0.31,0.3-0.75,0.45-1.33,0.45
			C810.21,473.77,809.76,473.62,809.46,473.32z M811.3,472.45c0.11-0.16,0.16-0.38,0.16-0.67v-2.15c0-0.29-0.05-0.51-0.16-0.67
			c-0.11-0.16-0.27-0.23-0.5-0.23c-0.23,0-0.4,0.08-0.5,0.23c-0.11,0.16-0.16,0.38-0.16,0.67v2.15c0,0.29,0.05,0.51,0.16,0.67
			c0.11,0.16,0.27,0.23,0.5,0.23C811.02,472.68,811.19,472.6,811.3,472.45z"/>
	</g>
	<g>
		<path class="st0" d="M806.68,463.31c-0.3-0.3-0.46-0.72-0.46-1.25v-2.72c0-0.54,0.15-0.96,0.46-1.25s0.75-0.45,1.33-0.45
			c0.58,0,1.03,0.15,1.33,0.44c0.3,0.3,0.46,0.72,0.46,1.26v2.72c0,0.54-0.15,0.96-0.46,1.25c-0.31,0.3-0.75,0.45-1.33,0.45
			C807.43,463.76,806.98,463.61,806.68,463.31z M808.52,462.44c0.11-0.16,0.16-0.38,0.16-0.67v-2.15c0-0.29-0.05-0.51-0.16-0.67
			c-0.11-0.16-0.27-0.23-0.5-0.23s-0.4,0.08-0.5,0.23s-0.16,0.38-0.16,0.67v2.15c0,0.29,0.05,0.51,0.16,0.67s0.27,0.23,0.5,0.23
			S808.41,462.6,808.52,462.44z"/>
	</g>
	<g>
		<path class="st0" d="M805.01,481.66c-0.3-0.3-0.46-0.72-0.46-1.25v-2.72c0-0.54,0.15-0.96,0.46-1.25c0.31-0.3,0.75-0.45,1.33-0.45
			c0.58,0,1.03,0.15,1.33,0.44c0.3,0.3,0.46,0.72,0.46,1.26v2.72c0,0.54-0.15,0.96-0.46,1.25s-0.75,0.45-1.33,0.45
			C805.76,482.11,805.32,481.96,805.01,481.66z M806.85,480.79c0.11-0.16,0.16-0.38,0.16-0.67v-2.15c0-0.29-0.05-0.51-0.16-0.67
			c-0.11-0.16-0.27-0.23-0.5-0.23c-0.23,0-0.4,0.08-0.5,0.23c-0.11,0.16-0.16,0.38-0.16,0.67v2.15c0,0.29,0.05,0.51,0.16,0.67
			c0.11,0.16,0.27,0.23,0.5,0.23C806.57,481.02,806.74,480.94,806.85,480.79z"/>
	</g>
	<path class="st0" d="M739.45,418.34v1.38c0,0.5,0.22,0.95,0.56,1.27c0.35,0.33,0.83,0.53,1.36,0.53c1.06,0,1.93-0.81,1.93-1.8
		v-1.38h0.45v-3.84h-4.78v3.84H739.45z M742.83,419.71c0,0.73-0.64,1.33-1.42,1.33c-0.39,0-0.75-0.15-1-0.39
		c-0.26-0.24-0.42-0.57-0.42-0.94v-1.33h2.84V419.71z"/>
	<g>
		<path class="st0" d="M722.54,418.38h-1.14v-5.85h1.14V418.38z"/>
	</g>
	<g>
		<path class="st0" d="M727.74,419.95c-0.3-0.3-0.46-0.72-0.46-1.25v-2.72c0-0.54,0.15-0.96,0.46-1.25c0.31-0.3,0.75-0.45,1.33-0.45
			c0.58,0,1.03,0.15,1.33,0.44c0.3,0.3,0.46,0.72,0.46,1.26v2.72c0,0.54-0.15,0.96-0.46,1.25s-0.75,0.45-1.33,0.45
			C728.49,420.4,728.04,420.25,727.74,419.95z M729.57,419.08c0.11-0.16,0.16-0.38,0.16-0.67v-2.15c0-0.29-0.05-0.51-0.16-0.67
			c-0.11-0.16-0.27-0.23-0.5-0.23s-0.4,0.08-0.5,0.23c-0.11,0.16-0.16,0.38-0.16,0.67v2.15c0,0.29,0.05,0.51,0.16,0.67
			c0.11,0.16,0.27,0.23,0.5,0.23S729.47,419.24,729.57,419.08z"/>
	</g>
	<g>
		<path class="st0" d="M723.29,428.29c-0.3-0.3-0.46-0.72-0.46-1.25v-2.72c0-0.54,0.15-0.96,0.46-1.25c0.31-0.3,0.75-0.45,1.33-0.45
			c0.58,0,1.03,0.15,1.33,0.44c0.3,0.3,0.46,0.72,0.46,1.26v2.72c0,0.54-0.15,0.96-0.46,1.25s-0.75,0.45-1.33,0.45
			C724.04,428.74,723.6,428.59,723.29,428.29z M725.13,427.42c0.11-0.16,0.16-0.38,0.16-0.67v-2.15c0-0.29-0.05-0.51-0.16-0.67
			c-0.11-0.16-0.27-0.23-0.5-0.23s-0.4,0.08-0.5,0.23c-0.11,0.16-0.16,0.38-0.16,0.67v2.15c0,0.29,0.05,0.51,0.16,0.67
			c0.11,0.16,0.27,0.23,0.5,0.23S725.02,427.57,725.13,427.42z"/>
	</g>
	<g>
		<path class="st0" d="M621,420.51c-0.3-0.3-0.46-0.72-0.46-1.25v-2.72c0-0.54,0.15-0.96,0.46-1.25c0.31-0.3,0.75-0.45,1.33-0.45
			c0.58,0,1.03,0.15,1.33,0.44c0.3,0.3,0.46,0.72,0.46,1.26v2.72c0,0.54-0.15,0.96-0.46,1.25c-0.31,0.3-0.75,0.45-1.33,0.45
			C621.75,420.96,621.31,420.81,621,420.51z M622.84,419.64c0.11-0.16,0.16-0.38,0.16-0.67v-2.15c0-0.29-0.05-0.51-0.16-0.67
			c-0.11-0.16-0.27-0.23-0.5-0.23s-0.4,0.08-0.5,0.23c-0.11,0.16-0.16,0.38-0.16,0.67v2.15c0,0.29,0.05,0.51,0.16,0.67
			c0.11,0.16,0.27,0.23,0.5,0.23S622.73,419.79,622.84,419.64z"/>
	</g>
	<path class="st0" d="M953.48,456.7v1.38c0,0.5,0.22,0.95,0.56,1.27c0.35,0.33,0.83,0.53,1.36,0.53c1.06,0,1.93-0.81,1.93-1.8v-1.38
		h0.45v-3.84H953v3.84H953.48z M956.86,458.07c0,0.73-0.64,1.33-1.42,1.33c-0.39,0-0.75-0.15-1-0.39c-0.26-0.24-0.42-0.57-0.42-0.94
		v-1.33h2.84V458.07z"/>
	<path class="st0" d="M961.76,442.71v-1.38c0-0.5-0.22-0.95-0.56-1.27c-0.35-0.33-0.83-0.53-1.36-0.53c-1.06,0-1.93,0.81-1.93,1.8
		v1.38h-0.45v3.84h4.78v-3.84H961.76z M958.38,441.34c0-0.73,0.64-1.33,1.42-1.33c0.39,0,0.75,0.15,1,0.39
		c0.26,0.24,0.42,0.57,0.42,0.94v1.33h-2.84V441.34z"/>
	<g>
		<path class="st0" d="M961.6,436.73h-1.14v-5.85h1.14V436.73z"/>
	</g>
	<g>
		<path class="st0" d="M954.37,439.51h-1.14v-5.85h1.14V439.51z"/>
	</g>
	<g>
		<path class="st0" d="M950.86,452.42h-1.14v-5.85h1.14V452.42z"/>
	</g>
	<g>
		<path class="st0" d="M950.86,444.08h-1.14v-5.85h1.14V444.08z"/>
	</g>
	<g>
		<path class="st0" d="M963.64,455.2h-1.14v-5.85h1.14V455.2z"/>
	</g>
	<g>
		<path class="st0" d="M960.31,454.09h-1.14v-5.85h1.14V454.09z"/>
	</g>
	<g>
		<path class="st0" d="M967.53,457.98h-1.14v-5.85h1.14V457.98z"/>
	</g>
	<g>
		<path class="st0" d="M960.31,464.09h-1.14v-5.85h1.14V464.09z"/>
	</g>
	<g>
		<path class="st0" d="M951.97,462.43h-1.14v-5.85h1.14V462.43z"/>
	</g>
	<g>
		<path class="st0" d="M966.42,449.64h-1.14v-5.85h1.14V449.64z"/>
	</g>
	<g>
		<path class="st0" d="M966.42,472.43h-1.14v-5.85h1.14V472.43z"/>
	</g>
	<path class="st0" d="M962.87,469.39v-1.38c0-0.5-0.22-0.95-0.56-1.27c-0.35-0.33-0.83-0.53-1.36-0.53c-1.06,0-1.93,0.81-1.93,1.8
		v1.38h-0.45v3.84h4.78v-3.84H962.87z M959.49,468.02c0-0.73,0.64-1.33,1.42-1.33c0.39,0,0.75,0.15,1,0.39
		c0.26,0.24,0.42,0.57,0.42,0.94v1.33h-2.84V468.02z"/>
	<g>
		<path class="st0" d="M961.42,482.44h-1.14v-5.85h1.14V482.44z"/>
	</g>
	<g>
		<path class="st0" d="M952.33,448.3c-0.3-0.3-0.46-0.72-0.46-1.25v-2.72c0-0.54,0.15-0.96,0.46-1.25s0.75-0.45,1.33-0.45
			c0.58,0,1.03,0.15,1.33,0.44c0.3,0.3,0.46,0.72,0.46,1.26v2.72c0,0.54-0.15,0.96-0.46,1.25c-0.31,0.3-0.75,0.45-1.33,0.45
			C953.08,448.75,952.64,448.6,952.33,448.3z M954.17,447.43c0.11-0.16,0.16-0.38,0.16-0.67v-2.15c0-0.29-0.05-0.51-0.16-0.67
			c-0.11-0.16-0.27-0.23-0.5-0.23c-0.23,0-0.4,0.08-0.5,0.23c-0.11,0.16-0.16,0.38-0.16,0.67v2.15c0,0.29,0.05,0.51,0.16,0.67
			c0.11,0.16,0.27,0.23,0.5,0.23C953.89,447.67,954.06,447.59,954.17,447.43z"/>
	</g>
	<g>
		<path class="st0" d="M951.97,486.33h-1.14v-5.85h1.14V486.33z"/>
	</g>
	<g>
		<path class="st0" d="M951.97,477.99h-1.14v-5.85h1.14V477.99z"/>
	</g>
	<g>
		<path class="st0" d="M953.44,482.21c-0.3-0.3-0.46-0.72-0.46-1.25v-2.72c0-0.54,0.15-0.96,0.46-1.25c0.31-0.3,0.75-0.45,1.33-0.45
			c0.58,0,1.03,0.15,1.33,0.44c0.3,0.3,0.46,0.72,0.46,1.26v2.72c0,0.54-0.15,0.96-0.46,1.25s-0.75,0.45-1.33,0.45
			C954.19,482.66,953.75,482.51,953.44,482.21z M955.28,481.34c0.11-0.16,0.16-0.38,0.16-0.67v-2.15c0-0.29-0.05-0.51-0.16-0.67
			c-0.11-0.16-0.27-0.23-0.5-0.23s-0.4,0.08-0.5,0.23c-0.11,0.16-0.16,0.38-0.16,0.67v2.15c0,0.29,0.05,0.51,0.16,0.67
			c0.11,0.16,0.27,0.23,0.5,0.23S955.17,481.5,955.28,481.34z"/>
	</g>
	<g>
		<path class="st0" d="M962.89,463.87c-0.3-0.3-0.46-0.72-0.46-1.25v-2.72c0-0.54,0.15-0.96,0.46-1.25c0.31-0.3,0.75-0.45,1.33-0.45
			c0.58,0,1.03,0.15,1.33,0.44c0.3,0.3,0.46,0.72,0.46,1.26v2.72c0,0.54-0.15,0.96-0.46,1.25s-0.75,0.45-1.33,0.45
			C963.64,464.32,963.2,464.17,962.89,463.87z M964.73,463c0.11-0.16,0.16-0.38,0.16-0.67v-2.15c0-0.29-0.05-0.51-0.16-0.67
			c-0.11-0.16-0.27-0.23-0.5-0.23c-0.23,0-0.4,0.08-0.5,0.23c-0.11,0.16-0.16,0.38-0.16,0.67v2.15c0,0.29,0.05,0.51,0.16,0.67
			c0.11,0.16,0.27,0.23,0.5,0.23C964.46,463.23,964.62,463.15,964.73,463z"/>
	</g>
	<path class="st0" d="M953.48,472.82v1.38c0,0.5,0.22,0.95,0.56,1.27c0.35,0.33,0.83,0.53,1.36,0.53c1.06,0,1.93-0.81,1.93-1.8
		v-1.38h0.45v-3.84H953v3.84H953.48z M956.86,474.19c0,0.73-0.64,1.33-1.42,1.33c-0.39,0-0.75-0.15-1-0.39
		c-0.26-0.24-0.42-0.57-0.42-0.94v-1.33h2.84V474.19z"/>
	<g>
		<path class="st0" d="M956.42,467.43h-1.14v-5.85h1.14V467.43z"/>
	</g>
	<g>
		<path class="st0" d="M962.89,479.99c-0.3-0.3-0.46-0.72-0.46-1.25v-2.72c0-0.54,0.15-0.96,0.46-1.25c0.31-0.3,0.75-0.45,1.33-0.45
			c0.58,0,1.03,0.15,1.33,0.44c0.3,0.3,0.46,0.72,0.46,1.26v2.72c0,0.54-0.15,0.96-0.46,1.25c-0.31,0.3-0.75,0.45-1.33,0.45
			C963.64,480.44,963.2,480.29,962.89,479.99z M964.73,479.12c0.11-0.16,0.16-0.38,0.16-0.67v-2.15c0-0.29-0.05-0.51-0.16-0.67
			c-0.11-0.16-0.27-0.23-0.5-0.23c-0.23,0-0.4,0.08-0.5,0.23c-0.11,0.16-0.16,0.38-0.16,0.67v2.15c0,0.29,0.05,0.51,0.16,0.67
			c0.11,0.16,0.27,0.23,0.5,0.23C964.46,479.35,964.62,479.28,964.73,479.12z"/>
	</g>
	<g>
		<path class="st0" d="M949.55,470.54c-0.3-0.3-0.46-0.72-0.46-1.25v-2.72c0-0.54,0.15-0.96,0.46-1.25s0.75-0.45,1.33-0.45
			c0.58,0,1.03,0.15,1.33,0.44s0.46,0.72,0.46,1.26v2.72c0,0.54-0.15,0.96-0.46,1.25c-0.31,0.3-0.75,0.45-1.33,0.45
			C950.3,470.99,949.86,470.84,949.55,470.54z M951.39,469.67c0.11-0.16,0.16-0.38,0.16-0.67v-2.15c0-0.29-0.05-0.51-0.16-0.67
			c-0.11-0.16-0.27-0.23-0.5-0.23s-0.4,0.08-0.5,0.23c-0.11,0.16-0.16,0.38-0.16,0.67V469c0,0.29,0.05,0.51,0.16,0.67
			c0.11,0.16,0.27,0.23,0.5,0.23S951.28,469.82,951.39,469.67z"/>
	</g>
	<path class="st0" d="M850.02,445.49v-1.38c0-0.5-0.22-0.95-0.56-1.27c-0.35-0.33-0.83-0.53-1.36-0.53c-1.06,0-1.93,0.81-1.93,1.8
		v1.38h-0.45v3.84h4.78v-3.84H850.02z M846.64,444.12c0-0.73,0.64-1.33,1.42-1.33c0.39,0,0.75,0.15,1,0.39
		c0.26,0.24,0.42,0.57,0.42,0.94v1.33h-2.84V444.12z"/>
	<path class="st0" d="M853.97,458.93v1.38c0,0.5,0.22,0.95,0.56,1.27c0.35,0.33,0.83,0.53,1.36,0.53c1.06,0,1.93-0.81,1.93-1.8
		v-1.38h0.45v-3.84h-4.78v3.84H853.97z M857.35,460.3c0,0.73-0.64,1.33-1.42,1.33c-0.39,0-0.75-0.15-1-0.39
		c-0.26-0.24-0.42-0.57-0.42-0.94v-1.33h2.84V460.3z"/>
	<path class="st0" d="M859.53,448.92v1.38c0,0.5,0.22,0.95,0.56,1.27c0.35,0.33,0.83,0.53,1.36,0.53c1.06,0,1.93-0.81,1.93-1.8
		v-1.38h0.45v-3.84h-4.78v3.84H859.53z M862.91,450.29c0,0.73-0.64,1.33-1.42,1.33c-0.39,0-0.75-0.15-1-0.39
		c-0.26-0.24-0.42-0.57-0.42-0.94v-1.33h2.84V450.29z"/>
	<path class="st0" d="M860.64,438.36v1.38c0,0.5,0.22,0.95,0.56,1.27c0.35,0.33,0.83,0.53,1.36,0.53c1.06,0,1.93-0.81,1.93-1.8
		v-1.38h0.45v-3.84h-4.78v3.84H860.64z M864.02,439.73c0,0.73-0.64,1.33-1.42,1.33c-0.39,0-0.75-0.15-1-0.39
		c-0.26-0.24-0.42-0.57-0.42-0.94v-1.33h2.84V439.73z"/>
	<g>
		<path class="st0" d="M849.86,477.86h-1.14v-5.85h1.14V477.86z"/>
	</g>
	<g>
		<path class="st0" d="M848.19,481.2h-1.14v-5.85h1.14V481.2z"/>
	</g>
	<g>
		<path class="st0" d="M848.19,468.41h-1.14v-5.85h1.14V468.41z"/>
	</g>
	<g>
		<path class="st0" d="M853.75,443.95h-1.14v-5.85h1.14V443.95z"/>
	</g>
	<g>
		<path class="st0" d="M848.57,456.87h-1.14v-5.85h1.14V456.87z"/>
	</g>
	<g>
		<path class="st0" d="M851.9,461.31h-1.14v-5.85h1.14V461.31z"/>
	</g>
	<g>
		<path class="st0" d="M861.35,458.54h-1.14v-5.85h1.14V458.54z"/>
	</g>
	<g>
		<path class="st0" d="M858.02,452.98h-1.14v-5.85h1.14V452.98z"/>
	</g>
	<g>
		<path class="st0" d="M866.36,451.31h-1.14v-5.85h1.14V451.31z"/>
	</g>
	<g>
		<path class="st0" d="M852.46,469.1h-1.14v-5.85h1.14V469.1z"/>
	</g>
	<g>
		<path class="st0" d="M865.25,469.65h-1.14v-5.85h1.14V469.65z"/>
	</g>
	<g>
		<path class="st0" d="M863.02,476.88h-1.14v-5.85h1.14V476.88z"/>
	</g>
	<g>
		<path class="st0" d="M851.71,452.75c-0.3-0.3-0.46-0.72-0.46-1.25v-2.72c0-0.54,0.15-0.96,0.46-1.25c0.31-0.3,0.75-0.45,1.33-0.45
			c0.58,0,1.03,0.15,1.33,0.44c0.3,0.3,0.46,0.72,0.46,1.26v2.72c0,0.54-0.15,0.96-0.46,1.25s-0.75,0.45-1.33,0.45
			C852.46,453.2,852.01,453.05,851.71,452.75z M853.55,451.88c0.11-0.16,0.16-0.38,0.16-0.67v-2.15c0-0.29-0.05-0.51-0.16-0.67
			c-0.11-0.16-0.27-0.23-0.5-0.23s-0.4,0.08-0.5,0.23c-0.11,0.16-0.16,0.38-0.16,0.67v2.15c0,0.29,0.05,0.51,0.16,0.67
			c0.11,0.16,0.27,0.23,0.5,0.23S853.44,452.04,853.55,451.88z"/>
	</g>
	<g>
		<path class="st0" d="M859.49,465.54c-0.3-0.3-0.46-0.72-0.46-1.25v-2.72c0-0.54,0.15-0.96,0.46-1.25s0.75-0.45,1.33-0.45
			c0.58,0,1.03,0.15,1.33,0.44c0.3,0.3,0.46,0.72,0.46,1.26v2.72c0,0.54-0.15,0.96-0.46,1.25c-0.31,0.3-0.75,0.45-1.33,0.45
			C860.24,465.99,859.8,465.84,859.49,465.54z M861.33,464.67c0.11-0.16,0.16-0.38,0.16-0.67v-2.15c0-0.29-0.05-0.51-0.16-0.67
			c-0.11-0.16-0.27-0.23-0.5-0.23s-0.4,0.08-0.5,0.23c-0.11,0.16-0.16,0.38-0.16,0.67V464c0,0.29,0.05,0.51,0.16,0.67
			c0.11,0.16,0.27,0.23,0.5,0.23S861.22,464.82,861.33,464.67z"/>
	</g>
	<g>
		<path class="st0" d="M863.38,459.42c-0.3-0.3-0.46-0.72-0.46-1.25v-2.72c0-0.54,0.15-0.96,0.46-1.25c0.31-0.3,0.75-0.45,1.33-0.45
			c0.58,0,1.03,0.15,1.33,0.44c0.3,0.3,0.46,0.72,0.46,1.26v2.72c0,0.54-0.15,0.96-0.46,1.25c-0.31,0.3-0.75,0.45-1.33,0.45
			C864.13,459.87,863.69,459.72,863.38,459.42z M865.22,458.55c0.11-0.16,0.16-0.38,0.16-0.67v-2.15c0-0.29-0.05-0.51-0.16-0.67
			c-0.11-0.16-0.27-0.23-0.5-0.23c-0.23,0-0.4,0.08-0.5,0.23c-0.11,0.16-0.16,0.38-0.16,0.67v2.15c0,0.29,0.05,0.51,0.16,0.67
			c0.11,0.16,0.27,0.23,0.5,0.23C864.94,458.78,865.11,458.71,865.22,458.55z"/>
	</g>
	<g>
		<path class="st0" d="M855.04,469.98c-0.3-0.3-0.46-0.72-0.46-1.25v-2.72c0-0.54,0.15-0.96,0.46-1.25s0.75-0.45,1.33-0.45
			c0.58,0,1.03,0.15,1.33,0.44c0.3,0.3,0.46,0.72,0.46,1.26v2.72c0,0.54-0.15,0.96-0.46,1.25c-0.31,0.3-0.75,0.45-1.33,0.45
			C855.79,470.43,855.35,470.28,855.04,469.98z M856.88,469.11c0.11-0.16,0.16-0.38,0.16-0.67v-2.15c0-0.29-0.05-0.51-0.16-0.67
			c-0.11-0.16-0.27-0.23-0.5-0.23s-0.4,0.08-0.5,0.23c-0.11,0.16-0.16,0.38-0.16,0.67v2.15c0,0.29,0.05,0.51,0.16,0.67
			c0.11,0.16,0.27,0.23,0.5,0.23S856.77,469.27,856.88,469.11z"/>
	</g>
	<path class="st0" d="M913.84,451.03v-1.38c0-0.5-0.22-0.95-0.56-1.27c-0.35-0.33-0.83-0.53-1.36-0.53c-1.06,0-1.93,0.81-1.93,1.8
		v1.38h-0.45v3.84h4.78v-3.84H913.84z M910.46,449.66c0-0.73,0.64-1.33,1.42-1.33c0.39,0,0.75,0.15,1,0.39
		c0.26,0.24,0.42,0.57,0.42,0.94v1.33h-2.84V449.66z"/>
	<path class="st0" d="M909.4,468.82v-1.38c0-0.5-0.22-0.95-0.56-1.27c-0.35-0.33-0.83-0.53-1.36-0.53c-1.06,0-1.93,0.81-1.93,1.8
		v1.38h-0.45v3.84h4.78v-3.84H909.4z M906.01,467.45c0-0.73,0.64-1.33,1.42-1.33c0.39,0,0.75,0.15,1,0.39
		c0.26,0.24,0.42,0.57,0.42,0.94v1.33h-2.84V467.45z"/>
	<path class="st0" d="M903.84,478.83v-1.38c0-0.5-0.22-0.95-0.56-1.27c-0.35-0.33-0.83-0.53-1.36-0.53c-1.06,0-1.93,0.81-1.93,1.8
		v1.38h-0.45v3.84h4.78v-3.84H903.84z M900.45,477.46c0-0.73,0.64-1.33,1.42-1.33c0.39,0,0.75,0.15,1,0.39
		c0.26,0.24,0.42,0.57,0.42,0.94v1.33h-2.84V477.46z"/>
	<g>
		<path class="st0" d="M915.17,459.33h1.14v5.85h-1.14V459.33z"/>
	</g>
	<g>
		<path class="st0" d="M915.17,446.55h1.14v5.85h-1.14V446.55z"/>
	</g>
	<g>
		<path class="st0" d="M914.62,435.43h1.14v5.85h-1.14V435.43z"/>
	</g>
	<g>
		<path class="st0" d="M914.8,470.88h1.14v5.85h-1.14V470.88z"/>
	</g>
	<g>
		<path class="st0" d="M911.46,466.43h1.14v5.85h-1.14V466.43z"/>
	</g>
	<g>
		<path class="st0" d="M902.01,464.21h1.14v5.85h-1.14V464.21z"/>
	</g>
	<g>
		<path class="st0" d="M905.35,474.77h1.14v5.85h-1.14V474.77z"/>
	</g>
	<g>
		<path class="st0" d="M897.01,476.44h1.14v5.85h-1.14V476.44z"/>
	</g>
	<g>
		<path class="st0" d="M910.91,458.65h1.14v5.85h-1.14V458.65z"/>
	</g>
	<g>
		<path class="st0" d="M901.45,455.31h1.14v5.85h-1.14V455.31z"/>
	</g>
	<g>
		<path class="st0" d="M905.35,449.2h1.14v5.85h-1.14V449.2z"/>
	</g>
	<g>
		<path class="st0" d="M898.12,458.09h1.14v5.85h-1.14V458.09z"/>
	</g>
	<g>
		<path class="st0" d="M911.66,475c0.3,0.3,0.46,0.72,0.46,1.25v2.72c0,0.54-0.15,0.96-0.46,1.25s-0.75,0.45-1.33,0.45
			c-0.58,0-1.03-0.15-1.33-0.44c-0.3-0.3-0.46-0.72-0.46-1.26v-2.72c0-0.54,0.15-0.96,0.46-1.25c0.31-0.3,0.75-0.45,1.33-0.45
			C910.91,474.55,911.35,474.7,911.66,475z M909.82,475.87c-0.11,0.16-0.16,0.38-0.16,0.67v2.15c0,0.29,0.05,0.51,0.16,0.67
			c0.11,0.16,0.27,0.23,0.5,0.23s0.4-0.08,0.5-0.23c0.11-0.16,0.16-0.38,0.16-0.67v-2.15c0-0.29-0.05-0.51-0.16-0.67
			c-0.11-0.16-0.27-0.23-0.5-0.23S909.93,475.71,909.82,475.87z"/>
	</g>
	<g>
		<path class="st0" d="M901.65,446.09c0.3,0.3,0.46,0.72,0.46,1.25v2.72c0,0.54-0.15,0.96-0.46,1.25s-0.75,0.45-1.33,0.45
			c-0.58,0-1.03-0.15-1.33-0.44c-0.3-0.3-0.46-0.72-0.46-1.26v-2.72c0-0.54,0.15-0.96,0.46-1.25s0.75-0.45,1.33-0.45
			C900.9,445.64,901.34,445.79,901.65,446.09z M899.81,446.96c-0.11,0.16-0.16,0.38-0.16,0.67v2.15c0,0.29,0.05,0.51,0.16,0.67
			c0.11,0.16,0.27,0.23,0.5,0.23s0.4-0.08,0.5-0.23c0.11-0.16,0.16-0.38,0.16-0.67v-2.15c0-0.29-0.05-0.51-0.16-0.67
			c-0.11-0.16-0.27-0.23-0.5-0.23S899.92,446.8,899.81,446.96z"/>
	</g>
	<g>
		<path class="st0" d="M899.98,468.33c0.3,0.3,0.46,0.72,0.46,1.25v2.72c0,0.54-0.15,0.96-0.46,1.25c-0.31,0.3-0.75,0.45-1.33,0.45
			c-0.58,0-1.03-0.15-1.33-0.44c-0.3-0.3-0.46-0.72-0.46-1.26v-2.72c0-0.54,0.15-0.96,0.46-1.25s0.75-0.45,1.33-0.45
			C899.23,467.88,899.68,468.03,899.98,468.33z M898.14,469.2c-0.11,0.16-0.16,0.38-0.16,0.67v2.15c0,0.29,0.05,0.51,0.16,0.67
			c0.11,0.16,0.27,0.23,0.5,0.23c0.23,0,0.4-0.08,0.5-0.23c0.11-0.16,0.16-0.38,0.16-0.67v-2.15c0-0.29-0.05-0.51-0.16-0.67
			c-0.11-0.16-0.27-0.23-0.5-0.23C898.42,468.96,898.25,469.04,898.14,469.2z"/>
	</g>
	<g>
		<path class="st0" d="M908.32,457.76c0.3,0.3,0.46,0.72,0.46,1.25v2.72c0,0.54-0.15,0.96-0.46,1.25s-0.75,0.45-1.33,0.45
			c-0.58,0-1.03-0.15-1.33-0.44c-0.3-0.3-0.46-0.72-0.46-1.26v-2.72c0-0.54,0.15-0.96,0.46-1.25c0.31-0.3,0.75-0.45,1.33-0.45
			C907.57,457.31,908.02,457.46,908.32,457.76z M906.48,458.63c-0.11,0.16-0.16,0.38-0.16,0.67v2.15c0,0.29,0.05,0.51,0.16,0.67
			c0.11,0.16,0.27,0.23,0.5,0.23s0.4-0.08,0.5-0.23c0.11-0.16,0.16-0.38,0.16-0.67v-2.15c0-0.29-0.05-0.51-0.16-0.67
			c-0.11-0.16-0.27-0.23-0.5-0.23S906.59,458.48,906.48,458.63z"/>
	</g>
	<g class="st1">
		<path class="st0" d="M805.66,402.63h1.14v5.85h-1.14V402.63z"/>
	</g>
	<g class="st1">
		<path class="st0" d="M791.94,396.39h1.14v5.85h-1.14V396.39z"/>
	</g>
	<g class="st1">
		<path class="st0" d="M779.9,399.95c0.3,0.3,0.46,0.72,0.46,1.25v2.72c0,0.54-0.15,0.96-0.46,1.25s-0.75,0.45-1.33,0.45
			c-0.58,0-1.03-0.15-1.33-0.44s-0.46-0.72-0.46-1.26v-2.72c0-0.54,0.15-0.96,0.46-1.25s0.75-0.45,1.33-0.45
			C779.15,399.5,779.6,399.65,779.9,399.95z M778.07,400.82c-0.11,0.16-0.16,0.38-0.16,0.67v2.15c0,0.29,0.05,0.51,0.16,0.67
			c0.11,0.16,0.27,0.23,0.5,0.23s0.4-0.08,0.5-0.23c0.11-0.16,0.16-0.38,0.16-0.67v-2.15c0-0.29-0.05-0.51-0.16-0.67
			c-0.11-0.16-0.27-0.23-0.5-0.23S778.17,400.66,778.07,400.82z"/>
	</g>
	<g class="st1">
		<path class="st0" d="M973.55,402.63h1.14v5.85h-1.14V402.63z"/>
	</g>
	<g class="st1">
		<path class="st0" d="M959.83,396.39h1.14v5.85h-1.14V396.39z"/>
	</g>
	<g class="st1">
		<path class="st0" d="M947.79,399.95c0.3,0.3,0.46,0.72,0.46,1.25v2.72c0,0.54-0.15,0.96-0.46,1.25s-0.75,0.45-1.33,0.45
			c-0.58,0-1.03-0.15-1.33-0.44c-0.3-0.3-0.46-0.72-0.46-1.26v-2.72c0-0.54,0.15-0.96,0.46-1.25s0.75-0.45,1.33-0.45
			C947.04,399.5,947.49,399.65,947.79,399.95z M945.95,400.82c-0.11,0.16-0.16,0.38-0.16,0.67v2.15c0,0.29,0.05,0.51,0.16,0.67
			c0.11,0.16,0.27,0.23,0.5,0.23s0.4-0.08,0.5-0.23c0.11-0.16,0.16-0.38,0.16-0.67v-2.15c0-0.29-0.05-0.51-0.16-0.67
			c-0.11-0.16-0.27-0.23-0.5-0.23S946.06,400.66,945.95,400.82z"/>
	</g>
	<g class="st1">
		<path class="st0" d="M945.81,520.09h-1.14v-5.85h1.14V520.09z"/>
	</g>
	<g class="st1">
		<path class="st0" d="M959.53,526.33h-1.14v-5.85h1.14V526.33z"/>
	</g>
	<g class="st1">
		<path class="st0" d="M971.56,522.77c-0.3-0.3-0.46-0.72-0.46-1.25v-2.72c0-0.54,0.15-0.96,0.46-1.25s0.75-0.45,1.33-0.45
			c0.58,0,1.03,0.15,1.33,0.44c0.3,0.3,0.46,0.72,0.46,1.26v2.72c0,0.54-0.15,0.96-0.46,1.25s-0.75,0.45-1.33,0.45
			C972.31,523.22,971.87,523.07,971.56,522.77z M973.4,521.9c0.11-0.16,0.16-0.38,0.16-0.67v-2.15c0-0.29-0.05-0.51-0.16-0.67
			c-0.11-0.16-0.27-0.23-0.5-0.23c-0.23,0-0.4,0.08-0.5,0.23c-0.11,0.16-0.16,0.38-0.16,0.67v2.15c0,0.29,0.05,0.51,0.16,0.67
			c0.11,0.16,0.27,0.23,0.5,0.23C973.12,522.13,973.29,522.05,973.4,521.9z"/>
	</g>
	<g class="st1">
		<path class="st0" d="M897.38,402.63h1.14v5.85h-1.14V402.63z"/>
	</g>
	<g class="st1">
		<path class="st0" d="M883.67,396.39h1.14v5.85h-1.14V396.39z"/>
	</g>
	<g class="st1">
		<path class="st0" d="M871.63,399.95c0.3,0.3,0.46,0.72,0.46,1.25v2.72c0,0.54-0.15,0.96-0.46,1.25s-0.75,0.45-1.33,0.45
			c-0.58,0-1.03-0.15-1.33-0.44c-0.3-0.3-0.46-0.72-0.46-1.26v-2.72c0-0.54,0.15-0.96,0.46-1.25c0.31-0.3,0.75-0.45,1.33-0.45
			C870.88,399.5,871.32,399.65,871.63,399.95z M869.79,400.82c-0.11,0.16-0.16,0.38-0.16,0.67v2.15c0,0.29,0.05,0.51,0.16,0.67
			c0.11,0.16,0.27,0.23,0.5,0.23c0.23,0,0.4-0.08,0.5-0.23c0.11-0.16,0.16-0.38,0.16-0.67v-2.15c0-0.29-0.05-0.51-0.16-0.67
			c-0.11-0.16-0.27-0.23-0.5-0.23C870.07,400.58,869.9,400.66,869.79,400.82z"/>
	</g>
	<g class="st1">
		<path class="st0" d="M897.38,523.26h1.14v5.85h-1.14V523.26z"/>
	</g>
	<g class="st1">
		<path class="st0" d="M883.67,517.02h1.14v5.85h-1.14V517.02z"/>
	</g>
	<g class="st1">
		<path class="st0" d="M871.63,520.58c0.3,0.3,0.46,0.72,0.46,1.25v2.72c0,0.54-0.15,0.96-0.46,1.25s-0.75,0.45-1.33,0.45
			c-0.58,0-1.03-0.15-1.33-0.44c-0.3-0.3-0.46-0.72-0.46-1.26v-2.72c0-0.54,0.15-0.96,0.46-1.25c0.31-0.3,0.75-0.45,1.33-0.45
			C870.88,520.13,871.32,520.28,871.63,520.58z M869.79,521.45c-0.11,0.16-0.16,0.38-0.16,0.67v2.15c0,0.29,0.05,0.51,0.16,0.67
			c0.11,0.16,0.27,0.23,0.5,0.23c0.23,0,0.4-0.08,0.5-0.23s0.16-0.38,0.16-0.67v-2.15c0-0.29-0.05-0.51-0.16-0.67
			c-0.11-0.16-0.27-0.23-0.5-0.23C870.07,521.22,869.9,521.3,869.79,521.45z"/>
	</g>
	<g class="st1">
		<path class="st0" d="M816.14,515.58h1.69v8.64h-1.69V515.58z"/>
	</g>
	<g class="st1">
		<path class="st0" d="M778.06,511.61c0.45,0.44,0.68,1.06,0.68,1.85v4.03c0,0.8-0.23,1.41-0.68,1.85
			c-0.45,0.44-1.11,0.66-1.97,0.66c-0.86,0-1.52-0.22-1.97-0.66c-0.45-0.44-0.68-1.06-0.68-1.86v-4.03c0-0.8,0.23-1.41,0.68-1.85
			s1.11-0.66,1.97-0.66C776.95,510.95,777.61,511.17,778.06,511.61z M775.35,512.9c-0.16,0.23-0.24,0.56-0.24,0.99v3.17
			c0,0.43,0.08,0.76,0.24,0.99c0.16,0.23,0.41,0.34,0.74,0.34c0.34,0,0.58-0.11,0.74-0.34c0.16-0.23,0.24-0.56,0.24-0.99v-3.17
			c0-0.43-0.08-0.76-0.24-0.99c-0.16-0.23-0.41-0.34-0.74-0.34C775.75,512.55,775.51,512.67,775.35,512.9z"/>
	</g>
	<g class="st1">
		<path class="st0" d="M800.3,505.5c0.45,0.44,0.68,1.06,0.68,1.85v4.03c0,0.8-0.23,1.41-0.68,1.85c-0.45,0.44-1.11,0.66-1.97,0.66
			c-0.86,0-1.52-0.22-1.97-0.66c-0.45-0.44-0.68-1.06-0.68-1.86v-4.03c0-0.8,0.23-1.41,0.68-1.85s1.11-0.66,1.97-0.66
			C799.19,504.83,799.85,505.05,800.3,505.5z M797.58,506.78c-0.16,0.23-0.24,0.56-0.24,0.99v3.17c0,0.43,0.08,0.76,0.24,0.99
			s0.41,0.34,0.74,0.34c0.34,0,0.58-0.11,0.74-0.34s0.24-0.56,0.24-0.99v-3.17c0-0.43-0.08-0.76-0.24-0.99s-0.41-0.34-0.74-0.34
			C797.99,506.44,797.74,506.55,797.58,506.78z"/>
	</g>
	<g class="st1">
		<path class="st0" d="M731.8,533.29h-1.38v-7.07h1.38V533.29z"/>
	</g>
	<g class="st1">
		<path class="st0" d="M748.39,540.84h-1.38v-7.07h1.38V540.84z"/>
	</g>
	<g class="st1">
		<path class="st0" d="M762.95,536.53c-0.37-0.36-0.55-0.87-0.55-1.51v-3.29c0-0.65,0.19-1.16,0.56-1.52
			c0.37-0.36,0.91-0.54,1.61-0.54c0.71,0,1.25,0.18,1.61,0.54c0.37,0.36,0.55,0.87,0.55,1.52v3.29c0,0.65-0.19,1.16-0.56,1.52
			c-0.37,0.36-0.91,0.54-1.61,0.54C763.85,537.08,763.31,536.9,762.95,536.53z M765.17,535.48c0.13-0.19,0.19-0.46,0.19-0.81v-2.6
			c0-0.35-0.06-0.62-0.19-0.81c-0.13-0.19-0.33-0.28-0.61-0.28s-0.48,0.09-0.61,0.28s-0.19,0.46-0.19,0.81v2.6
			c0,0.35,0.06,0.62,0.19,0.81s0.33,0.28,0.61,0.28S765.04,535.67,765.17,535.48z"/>
	</g>
	<g class="st1">
		<path class="st0" d="M673.23,537.13h1.38v7.07h-1.38V537.13z"/>
	</g>
	<g class="st1">
		<path class="st0" d="M656.64,529.58h1.38v7.07h-1.38V529.58z"/>
	</g>
	<g class="st1">
		<path class="st0" d="M642.08,533.89c0.37,0.36,0.55,0.87,0.55,1.51v3.29c0,0.65-0.19,1.16-0.56,1.52
			c-0.37,0.36-0.91,0.54-1.61,0.54c-0.71,0-1.25-0.18-1.61-0.54c-0.37-0.36-0.55-0.87-0.55-1.52v-3.29c0-0.65,0.19-1.16,0.56-1.52
			c0.37-0.36,0.91-0.54,1.61-0.54C641.17,533.34,641.71,533.53,642.08,533.89z M639.86,534.94c-0.13,0.19-0.19,0.46-0.19,0.81v2.6
			c0,0.35,0.06,0.62,0.19,0.81c0.13,0.19,0.33,0.28,0.61,0.28s0.48-0.09,0.61-0.28s0.19-0.46,0.19-0.81v-2.6
			c0-0.35-0.06-0.62-0.19-0.81s-0.33-0.28-0.61-0.28S639.99,534.75,639.86,534.94z"/>
	</g>
	<g class="st1">
		<path class="st0" d="M574.97,527.83h2.04v10.46h-2.04V527.83z"/>
	</g>
	<g class="st1">
		<path class="st0" d="M528.91,523.04c0.54,0.54,0.82,1.28,0.82,2.24v4.87c0,0.96-0.27,1.71-0.82,2.24c-0.55,0.53-1.34,0.8-2.38,0.8
			c-1.05,0-1.84-0.27-2.39-0.8c-0.55-0.53-0.82-1.28-0.82-2.25v-4.87c0-0.96,0.27-1.71,0.82-2.24c0.55-0.53,1.34-0.8,2.38-0.8
			C527.57,522.23,528.37,522.5,528.91,523.04z M525.63,524.59c-0.19,0.28-0.29,0.68-0.29,1.2v3.84c0,0.52,0.1,0.92,0.29,1.2
			c0.19,0.28,0.49,0.42,0.9,0.42s0.71-0.14,0.9-0.42c0.19-0.28,0.29-0.68,0.29-1.2v-3.84c0-0.52-0.1-0.92-0.29-1.2
			c-0.19-0.28-0.49-0.42-0.9-0.42S525.82,524.32,525.63,524.59z"/>
	</g>
	<g class="st1">
		<path class="st0" d="M555.81,515.64c0.55,0.54,0.82,1.28,0.82,2.24v4.87c0,0.96-0.27,1.71-0.82,2.24s-1.34,0.8-2.38,0.8
			c-1.05,0-1.84-0.27-2.39-0.8c-0.55-0.53-0.82-1.28-0.82-2.25v-4.87c0-0.96,0.27-1.71,0.82-2.24s1.34-0.8,2.38-0.8
			C554.47,514.84,555.26,515.11,555.81,515.64z M552.52,517.2c-0.19,0.28-0.29,0.68-0.29,1.2v3.84c0,0.52,0.1,0.92,0.29,1.2
			c0.19,0.28,0.49,0.42,0.9,0.42s0.71-0.14,0.9-0.42c0.19-0.28,0.29-0.68,0.29-1.2v-3.84c0-0.52-0.1-0.92-0.29-1.2
			c-0.19-0.28-0.49-0.42-0.9-0.42S552.71,516.92,552.52,517.2z"/>
	</g>
	<g class="st1">
		<path class="st0" d="M558.25,392.88h1.38l0,7.07h-1.38V392.88z"/>
	</g>
	<g class="st1">
		<path class="st0" d="M541.66,385.33h1.38v7.07h-1.38V385.33z"/>
	</g>
	<g class="st1">
		<path class="st0" d="M527.1,389.64c0.37,0.36,0.55,0.87,0.55,1.51v3.29c0,0.65-0.19,1.16-0.56,1.52
			c-0.37,0.36-0.91,0.54-1.61,0.54c-0.71,0-1.25-0.18-1.61-0.54c-0.37-0.36-0.55-0.87-0.55-1.52v-3.29c0-0.65,0.19-1.16,0.56-1.52
			c0.37-0.36,0.91-0.54,1.61-0.54C526.2,389.1,526.73,389.28,527.1,389.64z M524.88,390.69c-0.13,0.19-0.19,0.46-0.19,0.81v2.6
			c0,0.35,0.06,0.62,0.19,0.81s0.33,0.28,0.61,0.28s0.48-0.09,0.61-0.28s0.19-0.46,0.19-0.81v-2.6c0-0.35-0.06-0.62-0.19-0.81
			s-0.33-0.28-0.61-0.28C525.21,390.41,525.01,390.51,524.88,390.69z"/>
	</g>
	<g class="st1">
		<path class="st0" d="M616.82,389.04h-1.38v-7.07h1.38V389.04z"/>
	</g>
	<g class="st1">
		<path class="st0" d="M633.41,396.59h-1.38v-7.07h1.38V396.59z"/>
	</g>
	<g class="st1">
		<path class="st0" d="M647.97,392.29c-0.37-0.36-0.55-0.87-0.55-1.51v-3.29c0-0.65,0.19-1.16,0.56-1.52s0.91-0.54,1.61-0.54
			c0.71,0,1.25,0.18,1.61,0.54c0.37,0.36,0.55,0.87,0.55,1.52v3.29c0,0.65-0.19,1.16-0.56,1.52c-0.37,0.36-0.91,0.54-1.61,0.54
			C648.88,392.83,648.34,392.65,647.97,392.29z M650.19,391.23c0.13-0.19,0.19-0.46,0.19-0.81v-2.6c0-0.35-0.06-0.62-0.19-0.81
			s-0.33-0.28-0.61-0.28s-0.48,0.09-0.61,0.28s-0.19,0.46-0.19,0.81v2.6c0,0.35,0.06,0.62,0.19,0.81s0.33,0.28,0.61,0.28
			S650.06,391.42,650.19,391.23z"/>
	</g>
	<g class="st1">
		<path class="st0" d="M715.08,398.34h-2.04v-10.46h2.04V398.34z"/>
	</g>
	<g class="st1">
		<path class="st0" d="M761.14,403.14c-0.55-0.54-0.82-1.28-0.82-2.24v-4.87c0-0.96,0.27-1.71,0.82-2.24
			c0.55-0.53,1.34-0.8,2.38-0.8c1.05,0,1.84,0.27,2.39,0.8c0.55,0.53,0.82,1.28,0.82,2.25v4.87c0,0.96-0.27,1.71-0.82,2.24
			s-1.34,0.8-2.38,0.8C762.48,403.94,761.68,403.67,761.14,403.14z M764.42,401.58c0.19-0.28,0.29-0.68,0.29-1.2v-3.84
			c0-0.52-0.1-0.92-0.29-1.2c-0.19-0.28-0.49-0.42-0.9-0.42s-0.71,0.14-0.9,0.42c-0.19,0.28-0.29,0.68-0.29,1.2v3.84
			c0,0.52,0.1,0.92,0.29,1.2c0.19,0.28,0.49,0.42,0.9,0.42S764.23,401.86,764.42,401.58z"/>
	</g>
	<g class="st1">
		<path class="st0" d="M734.24,410.53c-0.55-0.54-0.82-1.28-0.82-2.24v-4.87c0-0.96,0.27-1.71,0.82-2.24
			c0.55-0.53,1.34-0.8,2.38-0.8c1.05,0,1.84,0.27,2.39,0.8c0.54,0.53,0.82,1.28,0.82,2.25v4.87c0,0.96-0.27,1.71-0.82,2.24
			c-0.55,0.53-1.34,0.8-2.38,0.8C735.58,411.34,734.79,411.07,734.24,410.53z M737.53,408.98c0.19-0.28,0.29-0.68,0.29-1.2v-3.84
			c0-0.52-0.1-0.92-0.29-1.2c-0.19-0.28-0.49-0.42-0.9-0.42s-0.71,0.14-0.9,0.42c-0.19,0.28-0.29,0.68-0.29,1.2v3.84
			c0,0.52,0.1,0.92,0.29,1.2c0.19,0.28,0.49,0.42,0.9,0.42S737.33,409.26,737.53,408.98z"/>
	</g>
	<g>
		<path class="st0" d="M643.24,417.73c-0.3-0.3-0.46-0.72-0.46-1.25v-2.72c0-0.54,0.15-0.96,0.46-1.25c0.31-0.3,0.75-0.45,1.33-0.45
			c0.58,0,1.03,0.15,1.33,0.44c0.3,0.3,0.46,0.72,0.46,1.26v2.72c0,0.54-0.15,0.96-0.46,1.25s-0.75,0.45-1.33,0.45
			C643.99,418.18,643.54,418.03,643.24,417.73z M645.07,416.86c0.11-0.16,0.16-0.38,0.16-0.67v-2.15c0-0.29-0.05-0.51-0.16-0.67
			c-0.11-0.16-0.27-0.23-0.5-0.23s-0.4,0.08-0.5,0.23c-0.11,0.16-0.16,0.38-0.16,0.67v2.15c0,0.29,0.05,0.51,0.16,0.67
			c0.11,0.16,0.27,0.23,0.5,0.23S644.97,417.01,645.07,416.86z"/>
	</g>
</g>
<g>
	<path class="st0" d="M471.96,465.54l-61.72,106.9c-3.56,6.17-10.14,9.97-17.27,9.97h-55.69c-1.97,0-3.74-0.8-5.03-2.09
		c-1.29-1.29-2.09-3.06-2.09-5.03c0-3.93,3.19-7.12,7.12-7.12h47.47c7.12,0,13.71-3.8,17.27-9.97l53.5-92.67
		c4.23-7.33,4.23-16.36,0-23.69l-53.71-93.03c-3.43-5.94-9.77-9.6-16.63-9.6h-46.57l-96.79,236.57l-1.68,4.12l-15.01,36.68
		c-1.29,3.16-4.91,4.68-8.07,3.39c-3.16-1.3-4.68-4.91-3.38-8.08l12.06-29.48h-46.7c-7.12,0-13.7-3.8-17.27-9.97l-61.72-106.9
		c-4.23-7.33-4.23-16.36,0-23.69l61.93-107.27c3.43-5.94,9.77-9.6,16.63-9.6h56.11c3.93,0,7.12,3.19,7.12,7.12
		c0,1.97-0.8,3.74-2.09,5.03c-1.29,1.29-3.06,2.09-5.03,2.09h-47.89c-6.86,0-13.21,3.66-16.63,9.6l-53.71,93.03
		c-4.23,7.33-4.23,16.36,0,23.69l53.5,92.67c3.56,6.17,10.14,9.97,17.27,9.97h44.31l107.98-263.91c1.29-3.16,4.91-4.68,8.07-3.38
		c2.4,0.98,3.85,3.29,3.85,5.72c0,0.79-0.15,1.58-0.46,2.35l-6.56,16.03h48.96c6.86,0,13.21,3.66,16.63,9.6l61.93,107.27
		C476.19,449.19,476.19,458.21,471.96,465.54z"/>
	<path class="st0" d="M241.82,575.79c-0.11,1.57-0.72,3-1.68,4.12L241.82,575.79z"/>
</g>
</svg>
