<?xml version="1.0" encoding="utf-8"?>
<svg version="1.1" id="Layer_1" xmlns="http://www.w3.org/2000/svg" xmlns:xlink="http://www.w3.org/1999/xlink" x="0px" y="0px"
	 viewBox="0 0 1080 1080" style="enable-background:new 0 0 1080 1080;" xml:space="preserve">
<style type="text/css">
	.st0{fill:#3b82f6;}
</style>
<g>
	<path class="st0" d="M1060.4,554.8L887.78,853.79c-9.95,17.26-28.37,27.88-48.29,27.88H683.74c-5.5,0-10.47-2.23-14.07-5.83
		c-3.6-3.6-5.83-8.57-5.83-14.07c0-10.99,8.91-19.9,19.9-19.9H816.5c19.92,0,38.34-10.63,48.29-27.88l149.64-259.18
		c11.84-20.51,11.84-45.74,0-66.25L864.2,228.35c-9.59-16.61-27.33-26.86-46.52-26.86H687.44l-270.7,661.64l-4.71,11.53
		l-41.97,102.58c-3.62,8.84-13.72,13.08-22.57,9.47c-8.84-3.63-13.08-13.72-9.47-22.59l33.73-82.45H241.14
		c-19.92,0-38.32-10.63-48.29-27.88L20.23,554.8c-11.84-20.51-11.84-45.74,0-66.25l173.21-300c9.59-16.61,27.33-26.86,46.52-26.86
		h156.93c10.99,0,19.9,8.91,19.9,19.9c0,5.5-2.23,10.47-5.83,14.07c-3.6,3.6-8.57,5.83-14.07,5.83H262.95
		c-19.19,0-36.93,10.25-46.52,26.86L66.2,488.55c-11.84,20.51-11.84,45.74,0,66.25l149.64,259.18
		c9.95,17.26,28.37,27.88,48.29,27.88h123.92l302-738.1c3.62-8.84,13.72-13.08,22.57-9.47c6.72,2.73,10.77,9.21,10.77,16.01
		c0,2.2-0.42,4.41-1.3,6.56l-18.35,44.83h136.94c19.19,0,36.93,10.25,46.52,26.86l173.21,300
		C1072.24,509.06,1072.24,534.3,1060.4,554.8z"/>
	<path class="st0" d="M416.74,863.13c-0.29,4.4-2.02,8.39-4.71,11.53L416.74,863.13z"/>
</g>
</svg>
