<?xml version="1.0" encoding="UTF-8"?>
<!DOCTYPE svg PUBLIC "-//W3C//DTD SVG 1.1//EN" "http://www.w3.org/Graphics/SVG/1.1/DTD/svg11.dtd">
<svg xmlns="http://www.w3.org/2000/svg" version="1.1" width="904px" height="321px" style="shape-rendering:geometricPrecision; text-rendering:geometricPrecision; image-rendering:optimizeQuality; fill-rule:evenodd; clip-rule:evenodd" xmlns:xlink="http://www.w3.org/1999/xlink">
<g><path style="opacity:0.549" fill="#3b82f6" d="M 253.5,1.5 C 251.097,1.44805 248.764,1.78138 246.5,2.5C 247.312,1.00691 248.645,0.340239 250.5,0.5C 251.726,0.519537 252.726,0.852871 253.5,1.5 Z"/></g>
<g><path style="opacity:1" fill="#3b82f6" d="M 253.5,1.5 C 256.138,2.24154 257.471,4.07487 257.5,7C 255.754,13.2394 253.421,19.2394 250.5,25C 268.833,25.3333 287.167,25.6667 305.5,26C 307.066,26.6082 308.4,27.4415 309.5,28.5C 309.973,29.9063 310.973,30.573 312.5,30.5C 312.427,32.0269 313.094,33.0269 314.5,33.5C 314.427,35.0269 315.094,36.0269 316.5,36.5C 317.338,36.8417 317.672,37.5084 317.5,38.5C 317.427,40.0269 318.094,41.0269 319.5,41.5C 320.338,41.8417 320.672,42.5084 320.5,43.5C 320.427,45.0269 321.094,46.0269 322.5,46.5C 323.674,47.5137 324.34,48.847 324.5,50.5C 324.427,52.0269 325.094,53.0269 326.5,53.5C 327.674,54.5137 328.34,55.847 328.5,57.5C 328.427,59.0269 329.094,60.0269 330.5,60.5C 331.674,61.5137 332.34,62.847 332.5,64.5C 332.427,66.0269 333.094,67.0269 334.5,67.5C 335.338,67.8417 335.672,68.5084 335.5,69.5C 335.427,71.0269 336.094,72.0269 337.5,72.5C 338.674,73.5137 339.34,74.847 339.5,76.5C 339.427,78.0269 340.094,79.0269 341.5,79.5C 342.674,80.5137 343.34,81.847 343.5,83.5C 343.427,85.0269 344.094,86.0269 345.5,86.5C 346.674,87.5137 347.34,88.847 347.5,90.5C 347.427,92.0269 348.094,93.0269 349.5,93.5C 350.338,93.8417 350.672,94.5084 350.5,95.5C 350.427,97.0269 351.094,98.0269 352.5,98.5C 353.674,99.5137 354.34,100.847 354.5,102.5C 354.427,104.027 355.094,105.027 356.5,105.5C 357.674,106.514 358.34,107.847 358.5,109.5C 358.427,111.027 359.094,112.027 360.5,112.5C 361.338,112.842 361.672,113.508 361.5,114.5C 361.427,116.027 362.094,117.027 363.5,117.5C 364.674,118.514 365.34,119.847 365.5,121.5C 365.427,123.027 366.094,124.027 367.5,124.5C 368.674,125.514 369.34,126.847 369.5,128.5C 369.427,130.027 370.094,131.027 371.5,131.5C 372.674,132.514 373.34,133.847 373.5,135.5C 373.427,137.027 374.094,138.027 375.5,138.5C 381.519,146.448 382.686,155.115 379,164.5C 358.333,200.5 337.667,236.5 317,272.5C 313.665,278.083 308.832,281.583 302.5,283C 281.833,283.667 261.167,283.667 240.5,283C 235.311,280.087 234.144,275.92 237,270.5C 237.75,269.874 238.584,269.374 239.5,269C 257.164,268.5 274.83,268.333 292.5,268.5C 295.01,268.946 297.01,268.28 298.5,266.5C 300.972,265.091 303.305,263.424 305.5,261.5C 306.906,261.027 307.573,260.027 307.5,258.5C 307.328,257.508 307.662,256.842 308.5,256.5C 309.906,256.027 310.573,255.027 310.5,253.5C 310.66,251.847 311.326,250.514 312.5,249.5C 313.906,249.027 314.573,248.027 314.5,246.5C 314.328,245.508 314.662,244.842 315.5,244.5C 316.906,244.027 317.573,243.027 317.5,241.5C 317.66,239.847 318.326,238.514 319.5,237.5C 320.906,237.027 321.573,236.027 321.5,234.5C 321.66,232.847 322.326,231.514 323.5,230.5C 324.906,230.027 325.573,229.027 325.5,227.5C 325.66,225.847 326.326,224.514 327.5,223.5C 328.906,223.027 329.573,222.027 329.5,220.5C 329.328,219.508 329.662,218.842 330.5,218.5C 331.906,218.027 332.573,217.027 332.5,215.5C 332.66,213.847 333.326,212.514 334.5,211.5C 335.906,211.027 336.573,210.027 336.5,208.5C 336.66,206.847 337.326,205.514 338.5,204.5C 339.906,204.027 340.573,203.027 340.5,201.5C 340.66,199.847 341.326,198.514 342.5,197.5C 343.906,197.027 344.573,196.027 344.5,194.5C 344.328,193.508 344.662,192.842 345.5,192.5C 346.906,192.027 347.573,191.027 347.5,189.5C 347.66,187.847 348.326,186.514 349.5,185.5C 350.906,185.027 351.573,184.027 351.5,182.5C 351.66,180.847 352.326,179.514 353.5,178.5C 354.906,178.027 355.573,177.027 355.5,175.5C 355.66,173.847 356.326,172.514 357.5,171.5C 358.906,171.027 359.573,170.027 359.5,168.5C 365.082,158.262 364.749,148.262 358.5,138.5C 358.715,136.821 358.048,135.821 356.5,135.5C 351.902,127.968 347.568,120.302 343.5,112.5C 343.715,110.821 343.048,109.821 341.5,109.5C 336.902,101.968 332.568,94.3015 328.5,86.5C 328.715,84.8212 328.048,83.8212 326.5,83.5C 322.981,78.4632 319.981,73.1298 317.5,67.5C 317.715,65.8212 317.048,64.8212 315.5,64.5C 314.4,63.3951 313.733,62.0618 313.5,60.5C 313.715,58.8212 313.048,57.8212 311.5,57.5C 309.5,54.1667 307.5,50.8333 305.5,47.5C 304.833,44.8333 303.167,43.1667 300.5,42.5C 298.421,42.0293 296.421,41.3627 294.5,40.5C 286.173,39.8336 277.673,39.5002 269,39.5C 260.139,39.5019 251.639,40.1686 243.5,41.5C 205.893,134.654 167.893,227.654 129.5,320.5C 127.167,320.5 124.833,320.5 122.5,320.5C 122.027,319.094 121.027,318.427 119.5,318.5C 118.371,316.372 118.204,314.039 119,311.5C 122.566,302.276 126.399,293.276 130.5,284.5C 131.043,284.44 131.376,284.107 131.5,283.5C 114.513,282.501 97.5131,282.167 80.5,282.5C 77.509,282.834 75.1757,281.834 73.5,279.5C 73.0269,278.094 72.0269,277.427 70.5,277.5C 66.5058,273.521 63.5058,268.855 61.5,263.5C 61.7148,261.821 61.0481,260.821 59.5,260.5C 58.3995,259.395 57.7329,258.062 57.5,256.5C 57.7148,254.821 57.0481,253.821 55.5,253.5C 51.9814,248.463 48.9814,243.13 46.5,237.5C 46.7148,235.821 46.0481,234.821 44.5,234.5C 39.9015,226.968 35.5682,219.302 31.5,211.5C 31.7148,209.821 31.0481,208.821 29.5,208.5C 24.9015,200.968 20.5682,193.302 16.5,185.5C 16.7148,183.821 16.0481,182.821 14.5,182.5C 8.12727,173.951 3.79394,164.451 1.5,154C 2.00722,148.168 4.00722,143.002 7.5,138.5C 8.90632,138.027 9.57298,137.027 9.5,135.5C 9.6596,133.847 10.3263,132.514 11.5,131.5C 12.9063,131.027 13.573,130.027 13.5,128.5C 13.6596,126.847 14.3263,125.514 15.5,124.5C 16.9063,124.027 17.573,123.027 17.5,121.5C 17.3284,120.508 17.6618,119.842 18.5,119.5C 19.9063,119.027 20.573,118.027 20.5,116.5C 20.6596,114.847 21.3263,113.514 22.5,112.5C 23.9063,112.027 24.573,111.027 24.5,109.5C 24.6596,107.847 25.3263,106.514 26.5,105.5C 27.9063,105.027 28.573,104.027 28.5,102.5C 28.3284,101.508 28.6618,100.842 29.5,100.5C 30.9063,100.027 31.573,99.0269 31.5,97.5C 31.6596,95.847 32.3263,94.5137 33.5,93.5C 34.9063,93.0269 35.573,92.0269 35.5,90.5C 35.6596,88.847 36.3263,87.5137 37.5,86.5C 38.9063,86.0269 39.573,85.0269 39.5,83.5C 39.6596,81.847 40.3263,80.5137 41.5,79.5C 42.9063,79.0269 43.573,78.0269 43.5,76.5C 43.3284,75.5084 43.6618,74.8417 44.5,74.5C 45.9063,74.0269 46.573,73.0269 46.5,71.5C 46.6596,69.847 47.3263,68.5137 48.5,67.5C 49.9063,67.0269 50.573,66.0269 50.5,64.5C 50.6596,62.847 51.3263,61.5137 52.5,60.5C 53.9063,60.0269 54.573,59.0269 54.5,57.5C 54.6596,55.847 55.3263,54.5137 56.5,53.5C 57.9063,53.0269 58.573,52.0269 58.5,50.5C 58.3284,49.5084 58.6618,48.8417 59.5,48.5C 60.9063,48.0269 61.573,47.0269 61.5,45.5C 61.6596,43.847 62.3263,42.5137 63.5,41.5C 64.9063,41.0269 65.573,40.0269 65.5,38.5C 65.3284,37.5084 65.6618,36.8417 66.5,36.5C 67.9063,36.0269 68.573,35.0269 68.5,33.5C 70.5,32.1667 72.1667,30.5 73.5,28.5C 74.6002,27.4415 75.9336,26.6082 77.5,26C 100.004,25.1704 122.337,25.3371 144.5,26.5C 146.178,29.5516 146.845,32.8849 146.5,36.5C 145.657,38.1733 144.324,39.34 142.5,40C 124.167,40.3333 105.833,40.6667 87.5,41C 84.8608,41.6529 82.5274,42.8196 80.5,44.5C 78.5,44.5 77.5,45.5 77.5,47.5C 58.4946,80.0204 39.6612,112.687 21,145.5C 18.5634,153.533 19.3967,161.199 23.5,168.5C 23.427,170.027 24.0937,171.027 25.5,171.5C 26.6737,172.514 27.3404,173.847 27.5,175.5C 27.427,177.027 28.0937,178.027 29.5,178.5C 30.6737,179.514 31.3404,180.847 31.5,182.5C 31.427,184.027 32.0937,185.027 33.5,185.5C 34.6737,186.514 35.3404,187.847 35.5,189.5C 35.427,191.027 36.0937,192.027 37.5,192.5C 38.3382,192.842 38.6716,193.508 38.5,194.5C 38.427,196.027 39.0937,197.027 40.5,197.5C 41.6737,198.514 42.3404,199.847 42.5,201.5C 42.427,203.027 43.0937,204.027 44.5,204.5C 45.6737,205.514 46.3404,206.847 46.5,208.5C 46.427,210.027 47.0937,211.027 48.5,211.5C 49.3382,211.842 49.6716,212.508 49.5,213.5C 49.427,215.027 50.0937,216.027 51.5,216.5C 52.6737,217.514 53.3404,218.847 53.5,220.5C 53.427,222.027 54.0937,223.027 55.5,223.5C 56.6737,224.514 57.3404,225.847 57.5,227.5C 57.427,229.027 58.0937,230.027 59.5,230.5C 60.6737,231.514 61.3404,232.847 61.5,234.5C 61.427,236.027 62.0937,237.027 63.5,237.5C 64.3382,237.842 64.6716,238.508 64.5,239.5C 64.427,241.027 65.0937,242.027 66.5,242.5C 67.6737,243.514 68.3404,244.847 68.5,246.5C 68.427,248.027 69.0937,249.027 70.5,249.5C 71.6737,250.514 72.3404,251.847 72.5,253.5C 72.427,255.027 73.0937,256.027 74.5,256.5C 75.3382,256.842 75.6716,257.508 75.5,258.5C 75.427,260.027 76.0937,261.027 77.5,261.5C 81.6192,264.893 86.2858,267.226 91.5,268.5C 98.9926,269.166 106.659,269.5 114.5,269.5C 122.53,269.498 130.197,268.831 137.5,267.5C 171.038,184.085 204.871,100.752 239,17.5C 241.019,12.129 243.519,7.12897 246.5,2.5C 248.764,1.78138 251.097,1.44805 253.5,1.5 Z"/></g>
<g><path style="opacity:0.008" fill="#3b82f6" d="M 309.5,28.5 C 311.027,28.427 312.027,29.0937 312.5,30.5C 310.973,30.573 309.973,29.9063 309.5,28.5 Z"/></g>
<g><path style="opacity:0.682" fill="#3b82f6" d="M 73.5,28.5 C 72.1667,30.5 70.5,32.1667 68.5,33.5C 69.1667,30.8333 70.8333,29.1667 73.5,28.5 Z"/></g>
<g><path style="opacity:0.776" fill="#3b82f6" d="M 144.5,26.5 C 145.458,26.9528 146.292,27.6195 147,28.5C 147.801,31.367 147.634,34.0336 146.5,36.5C 146.845,32.8849 146.178,29.5516 144.5,26.5 Z"/></g>
<g><path style="opacity:0.757" fill="#3b82f6" d="M 312.5,30.5 C 313.906,30.9731 314.573,31.9731 314.5,33.5C 313.094,33.0269 312.427,32.0269 312.5,30.5 Z"/></g>
<g><path style="opacity:0.553" fill="#3b82f6" d="M 68.5,33.5 C 68.573,35.0269 67.9063,36.0269 66.5,36.5C 66.427,34.9731 67.0937,33.9731 68.5,33.5 Z"/></g>
<g><path style="opacity:0.565" fill="#3b82f6" d="M 314.5,33.5 C 315.906,33.9731 316.573,34.9731 316.5,36.5C 315.094,36.0269 314.427,35.0269 314.5,33.5 Z"/></g>
<g><path style="opacity:0.2" fill="#f8fcfe" d="M 294.5,40.5 C 277.423,40.1816 260.423,40.5149 243.5,41.5C 251.639,40.1686 260.139,39.5019 269,39.5C 277.673,39.5002 286.173,39.8336 294.5,40.5 Z"/></g>
<g><path style="opacity:0.439" fill="#e2f4fc" d="M 65.5,38.5 C 65.573,40.0269 64.9063,41.0269 63.5,41.5C 63.427,39.9731 64.0937,38.9731 65.5,38.5 Z"/></g>
<g><path style="opacity:0.451" fill="#e1f4fc" d="M 317.5,38.5 C 318.906,38.9731 319.573,39.9731 319.5,41.5C 318.094,41.0269 317.427,40.0269 317.5,38.5 Z"/></g>
<g><path style="opacity:0.612" fill="#e1f4fc" d="M 300.5,42.5 C 303.167,43.1667 304.833,44.8333 305.5,47.5C 303.5,46.1667 301.833,44.5 300.5,42.5 Z"/></g>
<g><path style="opacity:0.008" fill="#f1fafd" d="M 80.5,44.5 C 79.8333,45.8333 78.8333,46.8333 77.5,47.5C 77.5,45.5 78.5,44.5 80.5,44.5 Z"/></g>
<g><path style="opacity:0.337" fill="#eaf7fd" d="M 320.5,43.5 C 321.906,43.9731 322.573,44.9731 322.5,46.5C 321.094,46.0269 320.427,45.0269 320.5,43.5 Z"/></g>
<g><path style="opacity:0.486" fill="#3b82f6" d="M 61.5,45.5 C 61.573,47.0269 60.9063,48.0269 59.5,48.5C 59.427,46.9731 60.0937,45.9731 61.5,45.5 Z"/></g>
<g><path style="opacity:0.373" fill="#e7f6fd" d="M 58.5,50.5 C 58.573,52.0269 57.9063,53.0269 56.5,53.5C 56.427,51.9731 57.0937,50.9731 58.5,50.5 Z"/></g>
<g><path style="opacity:0.38" fill="#e6f6fc" d="M 324.5,50.5 C 325.906,50.9731 326.573,51.9731 326.5,53.5C 325.094,53.0269 324.427,52.0269 324.5,50.5 Z"/></g>
<g><path style="opacity:0.984" fill="#cbecf9" d="M 311.5,57.5 C 313.048,57.8212 313.715,58.8212 313.5,60.5C 312.599,59.7095 311.932,58.7095 311.5,57.5 Z"/></g>
<g><path style="opacity:0.412" fill="#e4f5fc" d="M 54.5,57.5 C 54.573,59.0269 53.9063,60.0269 52.5,60.5C 52.427,58.9731 53.0937,57.9731 54.5,57.5 Z"/></g>
<g><path style="opacity:0.424" fill="#e2f5fc" d="M 328.5,57.5 C 329.906,57.9731 330.573,58.9731 330.5,60.5C 329.094,60.0269 328.427,59.0269 328.5,57.5 Z"/></g>
<g><path style="opacity:0.973" fill="#ccebf9" d="M 315.5,64.5 C 317.048,64.8212 317.715,65.8212 317.5,67.5C 316.599,66.7095 315.932,65.7095 315.5,64.5 Z"/></g>
<g><path style="opacity:0.455" fill="#e1f3fc" d="M 50.5,64.5 C 50.573,66.0269 49.9063,67.0269 48.5,67.5C 48.427,65.9731 49.0937,64.9731 50.5,64.5 Z"/></g>
<g><path style="opacity:0.463" fill="#dff3fc" d="M 332.5,64.5 C 333.906,64.9731 334.573,65.9731 334.5,67.5C 333.094,67.0269 332.427,66.0269 332.5,64.5 Z"/></g>
<g><path style="opacity:0.349" fill="#e8f6fc" d="M 335.5,69.5 C 336.906,69.9731 337.573,70.9731 337.5,72.5C 336.094,72.0269 335.427,71.0269 335.5,69.5 Z"/></g>
<g><path style="opacity:0.494" fill="#3b82f6" d="M 46.5,71.5 C 46.573,73.0269 45.9063,74.0269 44.5,74.5C 44.427,72.9731 45.0937,71.9731 46.5,71.5 Z"/></g>
<g><path style="opacity:0.38" fill="#e7f6fc" d="M 43.5,76.5 C 43.573,78.0269 42.9063,79.0269 41.5,79.5C 41.427,77.9731 42.0937,76.9731 43.5,76.5 Z"/></g>
<g><path style="opacity:0.392" fill="#e5f6fc" d="M 339.5,76.5 C 340.906,76.9731 341.573,77.9731 341.5,79.5C 340.094,79.0269 339.427,78.0269 339.5,76.5 Z"/></g>
<g><path style="opacity:0.128" fill="#fafdfe" d="M 520.5,81.5 C 521.765,82.5145 522.431,84.0145 522.5,86C 522.167,87.5 521.833,89 521.5,90.5C 520.516,87.5719 520.183,84.5719 520.5,81.5 Z"/></g>
<g><path style="opacity:0.984" fill="#cbecf9" d="M 326.5,83.5 C 328.048,83.8212 328.715,84.8212 328.5,86.5C 327.599,85.7095 326.932,84.7095 326.5,83.5 Z"/></g>
<g><path style="opacity:0.424" fill="#e3f4fc" d="M 39.5,83.5 C 39.573,85.0269 38.9063,86.0269 37.5,86.5C 37.427,84.9731 38.0937,83.9731 39.5,83.5 Z"/></g>
<g><path style="opacity:0.431" fill="#e2f4fc" d="M 343.5,83.5 C 344.906,83.9731 345.573,84.9731 345.5,86.5C 344.094,86.0269 343.427,85.0269 343.5,83.5 Z"/></g>
<g><path style="opacity:0.062" fill="#fbfdfe" d="M 446.5,85.5 C 447.5,85.5 448.5,85.5 449.5,85.5C 449.5,88.1667 449.5,90.8333 449.5,93.5C 448.5,93.5 447.5,93.5 446.5,93.5C 446.5,90.8333 446.5,88.1667 446.5,85.5 Z"/></g>
<g><path style="opacity:0.252" fill="#f8fcfe" d="M 553.5,85.5 C 554.833,85.5 556.167,85.5 557.5,85.5C 557.5,88.1667 557.5,90.8333 557.5,93.5C 555.833,93.5 554.167,93.5 552.5,93.5C 552.279,90.7212 552.612,88.0545 553.5,85.5 Z"/></g>
<g><path style="opacity:0.343" fill="#f5fbfe" d="M 618.5,87.5 C 619.5,87.5 620.5,87.5 621.5,87.5C 621.5,91.5 621.5,95.5 621.5,99.5C 620.5,99.5 619.5,99.5 618.5,99.5C 618.5,95.5 618.5,91.5 618.5,87.5 Z"/></g>
<g><path style="opacity:0.138" fill="#f9fcfe" d="M 537.5,89.5 C 538.748,90.3339 539.415,91.6672 539.5,93.5C 539.167,94.8333 538.833,96.1667 538.5,97.5C 537.52,94.9135 537.187,92.2469 537.5,89.5 Z"/></g>
<g><path style="opacity:0.242" fill="#f8fcfe" d="M 428.5,89.5 C 430.167,89.5 431.833,89.5 433.5,89.5C 433.663,91.8568 433.497,94.1902 433,96.5C 431.667,97.8333 430.333,97.8333 429,96.5C 428.503,94.1902 428.337,91.8568 428.5,89.5 Z"/></g>
<g><path style="opacity:0.463" fill="#e0f3fc" d="M 35.5,90.5 C 35.573,92.0269 34.9063,93.0269 33.5,93.5C 33.427,91.9731 34.0937,90.9731 35.5,90.5 Z"/></g>
<g><path style="opacity:0.475" fill="#def3fb" d="M 347.5,90.5 C 348.906,90.9731 349.573,91.9731 349.5,93.5C 348.094,93.0269 347.427,92.0269 347.5,90.5 Z"/></g>
<g><path style="opacity:0.242" fill="#f8fcfe" d="M 463.5,92.5 C 464.748,93.3339 465.415,94.6672 465.5,96.5C 465.167,97.8333 464.833,99.1667 464.5,100.5C 463.52,97.9135 463.187,95.2469 463.5,92.5 Z"/></g>
<g><path style="opacity:0.347" fill="#f6fbfe" d="M 666.5,93.5 C 668.467,93.2606 670.301,93.5939 672,94.5C 672.784,97.7603 672.617,100.927 671.5,104C 669.559,104.743 667.726,104.576 666,103.5C 665.253,100.076 665.42,96.7431 666.5,93.5 Z"/></g>
<g><path style="opacity:0.035" fill="#fcfdfe" d="M 696.5,96.5 C 697.5,96.5 698.5,96.5 699.5,96.5C 699.5,98.8333 699.5,101.167 699.5,103.5C 698.5,103.5 697.5,103.5 696.5,103.5C 696.5,101.167 696.5,98.8333 696.5,96.5 Z"/></g>
<g><path style="opacity:0.101" fill="#fbfdfe" d="M 788.5,96.5 C 789.725,97.1522 790.392,98.3189 790.5,100C 790.167,101.167 789.833,102.333 789.5,103.5C 788.526,101.257 788.192,98.924 788.5,96.5 Z"/></g>
<g><path style="opacity:0.07" fill="#fafdfe" d="M 864.5,96.5 C 865.725,97.1522 866.392,98.3189 866.5,100C 866.167,101.167 865.833,102.333 865.5,103.5C 864.526,101.257 864.192,98.924 864.5,96.5 Z"/></g>
<g><path style="opacity:0.361" fill="#e8f6fd" d="M 350.5,95.5 C 351.906,95.9731 352.573,96.9731 352.5,98.5C 351.094,98.0269 350.427,97.0269 350.5,95.5 Z"/></g>
<g><path style="opacity:0.502" fill="#dcf2fb" d="M 31.5,97.5 C 31.573,99.0269 30.9063,100.027 29.5,100.5C 29.427,98.9731 30.0937,97.9731 31.5,97.5 Z"/></g>
<g><path style="opacity:0.329" fill="#f8fcfe" d="M 682.5,99.5 C 686.473,100.075 687.473,102.242 685.5,106C 684.216,106.684 683.049,106.517 682,105.5C 681.322,103.402 681.489,101.402 682.5,99.5 Z"/></g>
<g><path style="opacity:0.255" fill="#f9fdfe" d="M 774.5,99.5 C 778.473,100.075 779.473,102.242 777.5,106C 776.207,106.49 774.873,106.657 773.5,106.5C 773.298,104.05 773.631,101.717 774.5,99.5 Z"/></g>
<g><path style="opacity:0.347" fill="#f7fcfe" d="M 639.5,100.5 C 641.467,100.261 643.301,100.594 645,101.5C 645.789,105.091 645.622,108.591 644.5,112C 642.765,112.651 641.098,112.485 639.5,111.5C 638.242,107.79 638.242,104.123 639.5,100.5 Z"/></g>
<g><path style="opacity:0.281" fill="#f8fcfe" d="M 850.5,99.5 C 854.473,100.075 855.473,102.242 853.5,106C 852.216,106.684 851.049,106.517 850,105.5C 849.322,103.402 849.489,101.402 850.5,99.5 Z"/></g>
<g><path style="opacity:0.103" fill="#fbfdfe" d="M 710.5,102.5 C 711.725,103.152 712.392,104.319 712.5,106C 712.167,107.167 711.833,108.333 711.5,109.5C 710.526,107.257 710.192,104.924 710.5,102.5 Z"/></g>
<g><path style="opacity:0.166" fill="#fbfdff" d="M 802.5,102.5 C 803.725,103.152 804.392,104.319 804.5,106C 804.167,107.167 803.833,108.333 803.5,109.5C 802.526,107.257 802.192,104.924 802.5,102.5 Z"/></g>
<g><path style="opacity:0.125" fill="#fbfdfe" d="M 878.5,102.5 C 879.725,103.152 880.392,104.319 880.5,106C 880.167,107.167 879.833,108.333 879.5,109.5C 878.526,107.257 878.192,104.924 878.5,102.5 Z"/></g>
<g><path style="opacity:0.392" fill="#e6f6fc" d="M 28.5,102.5 C 28.573,104.027 27.9063,105.027 26.5,105.5C 26.427,103.973 27.0937,102.973 28.5,102.5 Z"/></g>
<g><path style="opacity:0.4" fill="#e5f5fc" d="M 354.5,102.5 C 355.906,102.973 356.573,103.973 356.5,105.5C 355.094,105.027 354.427,104.027 354.5,102.5 Z"/></g>
<g><path style="opacity:0.064" fill="#e8f6fc" d="M 526.5,105.5 C 527.5,105.5 528.5,105.5 529.5,105.5C 529.5,107.833 529.5,110.167 529.5,112.5C 528.5,112.5 527.5,112.5 526.5,112.5C 526.5,110.167 526.5,107.833 526.5,105.5 Z"/></g>
<g><path style="opacity:0.271" fill="#e2f4fb" d="M 534.5,107.5 C 535.725,108.152 536.392,109.319 536.5,111C 536.167,112.167 535.833,113.333 535.5,114.5C 534.526,112.257 534.192,109.924 534.5,107.5 Z"/></g>
<g><path style="opacity:0.98" fill="#cbecf9" d="M 341.5,109.5 C 343.048,109.821 343.715,110.821 343.5,112.5C 342.599,111.71 341.932,110.71 341.5,109.5 Z"/></g>
<g><path style="opacity:0.239" fill="#e1f4fc" d="M 500.5,108.5 C 501.725,109.152 502.392,110.319 502.5,112C 502.167,113.167 501.833,114.333 501.5,115.5C 500.526,113.257 500.192,110.924 500.5,108.5 Z"/></g>
<g><path style="opacity:0.263" fill="#e2f4fb" d="M 514.5,108.5 C 515.725,109.152 516.392,110.319 516.5,112C 516.167,113.167 515.833,114.333 515.5,115.5C 514.526,113.257 514.192,110.924 514.5,108.5 Z"/></g>
<g><path style="opacity:0.4" fill="#e3f5fc" d="M 590.5,109.5 C 591.725,110.152 592.392,111.319 592.5,113C 592.167,114.167 591.833,115.333 591.5,116.5C 590.526,114.257 590.192,111.924 590.5,109.5 Z"/></g>
<g><path style="opacity:0.431" fill="#e3f4fc" d="M 24.5,109.5 C 24.573,111.027 23.9063,112.027 22.5,112.5C 22.427,110.973 23.0937,109.973 24.5,109.5 Z"/></g>
<g><path style="opacity:0.443" fill="#e1f4fc" d="M 358.5,109.5 C 359.906,109.973 360.573,110.973 360.5,112.5C 359.094,112.027 358.427,111.027 358.5,109.5 Z"/></g>
<g><path style="opacity:0.467" fill="#e0f4fc" d="M 526.5,115.5 C 527.167,116.167 527.833,116.833 528.5,117.5C 527.662,117.842 527.328,118.508 527.5,119.5C 526.662,119.842 526.328,120.508 526.5,121.5C 525.549,120.081 525.216,118.415 525.5,116.5C 523.585,116.784 521.919,116.451 520.5,115.5C 521.833,115.5 523.167,115.5 524.5,115.5C 524.5,114.5 524.5,113.5 524.5,112.5C 523.167,112.5 521.833,112.5 520.5,112.5C 520.176,109.32 521.51,108.153 524.5,109C 525.117,111.277 525.784,113.444 526.5,115.5 Z M 522.5,109.5 C 523.773,110.077 523.773,110.743 522.5,111.5C 521.537,111.03 521.537,110.363 522.5,109.5 Z"/></g>
<g><path style="opacity:1" fill="#93d8f5" d="M 814.5,121.5 C 814.738,123.404 815.738,124.738 817.5,125.5C 817.427,127.027 818.094,128.027 819.5,128.5C 821.851,130.417 821.851,132.084 819.5,133.5C 818.515,137.634 818.182,141.968 818.5,146.5C 817.5,146.5 816.5,146.5 815.5,146.5C 815.5,144.833 815.5,143.167 815.5,141.5C 813.901,141.232 812.568,141.566 811.5,142.5C 811.5,144.167 811.5,145.833 811.5,147.5C 809.89,144.797 808.89,141.797 808.5,138.5C 807.549,139.919 807.216,141.585 807.5,143.5C 806.167,143.5 804.833,143.5 803.5,143.5C 802.439,134.776 797.439,130.109 788.5,129.5C 780.098,130.249 774.765,134.582 772.5,142.5C 771.833,139.5 771.167,136.5 770.5,133.5C 768.833,133.5 767.167,133.5 765.5,133.5C 764.521,136.625 764.187,139.958 764.5,143.5C 763.5,143.5 762.5,143.5 761.5,143.5C 761.5,141.167 761.5,138.833 761.5,136.5C 759.5,136.5 757.5,136.5 755.5,136.5C 755.167,143.167 754.833,143.167 754.5,136.5C 754.752,132.673 756.085,129.34 758.5,126.5C 760.262,125.738 761.262,124.404 761.5,122.5C 768.453,114.611 777.286,110.611 788,110.5C 798.61,110.231 807.444,113.898 814.5,121.5 Z"/></g>
<g><path style="opacity:0.162" fill="#f9fdfe" d="M 873.5,133.5 C 873.5,132.167 873.5,130.833 873.5,129.5C 882.167,129.5 890.833,129.5 899.5,129.5C 899.5,123.833 899.5,118.167 899.5,112.5C 876.167,112.5 852.833,112.5 829.5,112.5C 829.5,118.167 829.5,123.833 829.5,129.5C 838.167,129.5 846.833,129.5 855.5,129.5C 855.192,131.924 855.526,134.257 856.5,136.5C 857.429,135.311 857.762,133.978 857.5,132.5C 858.833,132.5 860.167,132.5 861.5,132.5C 861.5,132.833 861.5,133.167 861.5,133.5C 860.835,135.698 860.168,138.031 859.5,140.5C 858.614,139.675 858.281,138.675 858.5,137.5C 857.167,137.5 855.833,137.5 854.5,137.5C 854.5,135.167 854.5,132.833 854.5,130.5C 845.833,130.5 837.167,130.5 828.5,130.5C 828.5,124.167 828.5,117.833 828.5,111.5C 852.5,111.5 876.5,111.5 900.5,111.5C 900.5,117.833 900.5,124.167 900.5,130.5C 891.833,130.5 883.167,130.5 874.5,130.5C 874.737,131.791 874.404,132.791 873.5,133.5 Z"/></g>
<g><path style="opacity:1" fill="#8dd6f5" d="M 487.5,129.5 C 472.5,129.5 457.5,129.5 442.5,129.5C 442.5,137.167 442.5,144.833 442.5,152.5C 454.655,153.495 466.989,153.829 479.5,153.5C 479.5,158.833 479.5,164.167 479.5,169.5C 466.989,169.171 454.655,169.505 442.5,170.5C 442.5,178.167 442.5,185.833 442.5,193.5C 441.5,193.5 440.5,193.5 439.5,193.5C 439.167,193.5 438.833,193.5 438.5,193.5C 438.44,192.957 438.107,192.624 437.5,192.5C 436.824,193.602 436.158,194.602 435.5,195.5C 435.5,194.5 435.5,193.5 435.5,192.5C 433.852,190.544 433.185,188.211 433.5,185.5C 431.167,185.5 428.833,185.5 426.5,185.5C 426.802,182.941 426.468,180.607 425.5,178.5C 424.503,156.34 424.169,134.006 424.5,111.5C 445.5,111.5 466.5,111.5 487.5,111.5C 487.5,117.5 487.5,123.5 487.5,129.5 Z"/></g>
<g><path style="opacity:1" fill="#8ad6f4" d="M 520.5,112.5 C 521.833,112.5 523.167,112.5 524.5,112.5C 524.5,113.5 524.5,114.5 524.5,115.5C 523.167,115.5 521.833,115.5 520.5,115.5C 520.5,114.5 520.5,113.5 520.5,112.5 Z"/></g>
<g><path style="opacity:0.16" fill="#e0f3fc" d="M 608.5,112.5 C 609.725,113.152 610.392,114.319 610.5,116C 610.167,117.167 609.833,118.333 609.5,119.5C 608.526,117.257 608.192,114.924 608.5,112.5 Z"/></g>
<g><path style="opacity:1" fill="#8cd6f5" d="M 716.5,112.5 C 721.778,112.642 726.112,114.642 729.5,118.5C 729.833,119.5 730.5,120.167 731.5,120.5C 734.051,122.578 735.884,125.244 737,128.5C 740.266,139.122 739.266,149.455 734,159.5C 731.963,161.706 729.797,163.706 727.5,165.5C 724.079,163.853 720.413,163.187 716.5,163.5C 716.5,161.5 716.5,159.5 716.5,157.5C 714.393,156.532 712.059,156.198 709.5,156.5C 709.5,158.5 709.5,160.5 709.5,162.5C 707.5,162.5 705.5,162.5 703.5,162.5C 703.5,164.5 703.5,166.5 703.5,168.5C 702.167,168.5 700.833,168.5 699.5,168.5C 695.6,169.43 691.6,169.763 687.5,169.5C 687.5,182.167 687.5,194.833 687.5,207.5C 681.833,207.5 676.167,207.5 670.5,207.5C 670.5,175.833 670.5,144.167 670.5,112.5C 685.833,112.5 701.167,112.5 716.5,112.5 Z M 713.5,130.5 C 713.833,130.5 714.167,130.5 714.5,130.5C 715.167,131.833 716.167,132.833 717.5,133.5C 720.87,140.637 719.537,146.637 713.5,151.5C 705.167,151.5 696.833,151.5 688.5,151.5C 688.5,144.5 688.5,137.5 688.5,130.5C 696.833,130.5 705.167,130.5 713.5,130.5 Z"/></g>
<g><path style="opacity:1" fill="#8ad6f4" d="M 873.5,133.5 C 873.167,133.5 872.833,133.5 872.5,133.5C 871.532,135.607 871.198,137.941 871.5,140.5C 870.5,140.5 869.5,140.5 868.5,140.5C 868.815,136.629 868.482,132.962 867.5,129.5C 866.5,129.5 865.5,129.5 864.5,129.5C 864.5,132.167 864.5,134.833 864.5,137.5C 862.972,136.198 861.972,134.531 861.5,132.5C 860.167,132.5 858.833,132.5 857.5,132.5C 857.762,133.978 857.429,135.311 856.5,136.5C 855.526,134.257 855.192,131.924 855.5,129.5C 846.833,129.5 838.167,129.5 829.5,129.5C 829.5,123.833 829.5,118.167 829.5,112.5C 852.833,112.5 876.167,112.5 899.5,112.5C 899.5,118.167 899.5,123.833 899.5,129.5C 890.833,129.5 882.167,129.5 873.5,129.5C 873.5,130.833 873.5,132.167 873.5,133.5 Z"/></g>
<g><path style="opacity:0.553" fill="#e1f4fc" d="M 621.5,112.5 C 622.725,113.152 623.392,114.319 623.5,116C 623.167,117.167 622.833,118.333 622.5,119.5C 621.526,117.257 621.192,114.924 621.5,112.5 Z"/></g>
<g><path style="opacity:0.108" fill="#e7f5fc" d="M 650.5,113.5 C 651.5,113.5 652.5,113.5 653.5,113.5C 653.5,115.833 653.5,118.167 653.5,120.5C 652.5,120.5 651.5,120.5 650.5,120.5C 650.5,118.167 650.5,115.833 650.5,113.5 Z"/></g>
<g><path style="opacity:0.808" fill="#cfedfa" d="M 507.5,110.5 C 511.473,111.075 512.473,113.242 510.5,117C 509.216,117.684 508.049,117.517 507,116.5C 506.322,114.402 506.489,112.402 507.5,110.5 Z"/></g>
<g><path style="opacity:0.769" fill="#c8eaf9" d="M 549.5,112.5 C 550.5,112.5 551.5,112.5 552.5,112.5C 552.662,114.527 552.495,116.527 552,118.5C 550.708,119.791 549.542,119.791 548.5,118.5C 548.325,116.379 548.659,114.379 549.5,112.5 Z"/></g>
<g><path style="opacity:0.075" fill="#e7f6fc" d="M 604.5,114.5 C 605.5,114.5 606.5,114.5 607.5,114.5C 607.5,116.833 607.5,119.167 607.5,121.5C 606.5,121.5 605.5,121.5 604.5,121.5C 604.5,119.167 604.5,116.833 604.5,114.5 Z"/></g>
<g><path style="opacity:0.373" fill="#e2f4fc" d="M 517.5,114.5 C 518.725,115.152 519.392,116.319 519.5,118C 519.167,119.167 518.833,120.333 518.5,121.5C 517.526,119.257 517.192,116.924 517.5,114.5 Z"/></g>
<g><path style="opacity:0.4" fill="#eaf8fd" d="M 539.5,108.5 C 541.144,108.286 542.644,108.62 544,109.5C 544.497,111.81 544.663,114.143 544.5,116.5C 542.5,116.5 540.5,116.5 538.5,116.5C 538.575,113.794 538.908,111.127 539.5,108.5 Z"/></g>
<g><path style="opacity:1" fill="#8ad6f4" d="M 539.5,112.5 C 540.833,112.5 542.167,112.5 543.5,112.5C 543.5,113.5 543.5,114.5 543.5,115.5C 542.167,115.5 540.833,115.5 539.5,115.5C 539.5,114.5 539.5,113.5 539.5,112.5 Z"/></g>
<g><path style="opacity:1" fill="#8fd7f5" d="M 555.5,114.5 C 558.37,115.433 560.704,117.1 562.5,119.5C 562.427,121.027 563.094,122.027 564.5,122.5C 564.427,124.027 565.094,125.027 566.5,125.5C 571.175,134.811 571.675,144.478 568,154.5C 567.208,157.106 565.708,159.106 563.5,160.5C 561.833,161.5 560.5,162.833 559.5,164.5C 557.137,166.68 554.47,168.347 551.5,169.5C 551.427,171.027 552.094,172.027 553.5,172.5C 554.674,173.514 555.34,174.847 555.5,176.5C 555.427,178.027 556.094,179.027 557.5,179.5C 558.674,180.514 559.34,181.847 559.5,183.5C 559.427,185.027 560.094,186.027 561.5,186.5C 562.338,186.842 562.672,187.508 562.5,188.5C 562.427,190.027 563.094,191.027 564.5,191.5C 565.674,192.514 566.34,193.847 566.5,195.5C 566.427,197.027 567.094,198.027 568.5,198.5C 569.338,198.842 569.672,199.508 569.5,200.5C 569.427,202.027 570.094,203.027 571.5,203.5C 572.338,203.842 572.672,204.508 572.5,205.5C 569.572,206.82 566.239,207.486 562.5,207.5C 558.45,207.432 554.45,207.098 550.5,206.5C 547.9,202.299 545.566,197.966 543.5,193.5C 543.715,191.821 543.048,190.821 541.5,190.5C 537.805,183.816 534.138,177.15 530.5,170.5C 526.702,169.517 522.702,169.183 518.5,169.5C 518.5,182.167 518.5,194.833 518.5,207.5C 512.833,207.5 507.167,207.5 501.5,207.5C 501.5,185.5 501.5,163.5 501.5,141.5C 503.5,141.5 505.5,141.5 507.5,141.5C 507.5,139.167 507.5,136.833 507.5,134.5C 513.701,135.466 516.535,132.8 516,126.5C 517.333,125.167 518.667,125.167 520,126.5C 519.713,134.803 519.546,143.136 519.5,151.5C 528.553,151.778 537.553,151.444 546.5,150.5C 548.5,150.5 549.5,149.5 549.5,147.5C 551.003,142.364 550.67,137.364 548.5,132.5C 548.027,131.094 547.027,130.427 545.5,130.5C 545.833,129.167 546.167,127.833 546.5,126.5C 547.5,126.5 548.5,126.5 549.5,126.5C 549.833,119.833 550.167,119.833 550.5,126.5C 551.833,126.5 553.167,126.5 554.5,126.5C 554.183,122.298 554.517,118.298 555.5,114.5 Z"/></g>
<g><path style="opacity:0.765" fill="#d3eefb" d="M 594.5,109.5 C 595.822,109.33 596.989,109.663 598,110.5C 598.495,112.473 598.662,114.473 598.5,116.5C 593.549,116.47 592.216,114.137 594.5,109.5 Z"/></g>
<g><path style="opacity:0.329" fill="#eaf7fd" d="M 361.5,114.5 C 362.906,114.973 363.573,115.973 363.5,117.5C 362.094,117.027 361.427,116.027 361.5,114.5 Z"/></g>
<g><path style="opacity:0.183" fill="#e4f5fd" d="M 549.5,112.5 C 548.659,114.379 548.325,116.379 548.5,118.5C 547.839,119.718 547.172,121.051 546.5,122.5C 546.167,121.5 545.833,120.5 545.5,119.5C 546.116,116.581 547.45,114.248 549.5,112.5 Z"/></g>
<g><path style="opacity:0.614" fill="#ccecfa" d="M 614.5,115.5 C 615.29,116.609 615.79,117.942 616,119.5C 617.008,114.459 617.508,114.792 617.5,120.5C 616.614,121.776 615.614,121.776 614.5,120.5C 613.265,118.684 613.265,117.017 614.5,115.5 Z"/></g>
<g><path style="opacity:0.51" fill="#e6f6fc" d="M 614.5,115.5 C 615.568,114.566 616.901,114.232 618.5,114.5C 618.795,116.735 618.461,118.735 617.5,120.5C 617.508,114.792 617.008,114.459 616,119.5C 615.79,117.942 615.29,116.609 614.5,115.5 Z"/></g>
<g><path style="opacity:0.718" fill="#ceedfa" d="M 636.5,119.5 C 635.432,120.434 634.099,120.768 632.5,120.5C 632.5,118.5 632.5,116.5 632.5,114.5C 633.833,114.5 635.167,114.5 636.5,114.5C 636.5,116.167 636.5,117.833 636.5,119.5 Z"/></g>
<g><path style="opacity:0.416" fill="#eaf7fd" d="M 537.5,119.5 C 538.451,120.919 538.784,122.585 538.5,124.5C 536.5,124.5 534.5,124.5 532.5,124.5C 532.337,122.143 532.503,119.81 533,117.5C 534.356,116.62 535.856,116.286 537.5,116.5C 537.5,117.5 537.5,118.5 537.5,119.5 Z M 536.5,119.5 C 534.972,119.483 534.472,118.816 535,117.5C 535.717,118.044 536.217,118.711 536.5,119.5 Z"/></g>
<g><path style="opacity:0.475" fill="#dff3fc" d="M 20.5,116.5 C 20.573,118.027 19.9063,119.027 18.5,119.5C 18.427,117.973 19.0937,116.973 20.5,116.5 Z"/></g>
<g><path style="opacity:0.008" fill="#eaf7fd" d="M 729.5,118.5 C 730.833,118.5 731.5,119.167 731.5,120.5C 730.5,120.167 729.833,119.5 729.5,118.5 Z"/></g>
<g><path style="opacity:0.282" fill="#e1f4fb" d="M 521.5,118.5 C 522.725,119.152 523.392,120.319 523.5,122C 523.167,123.167 522.833,124.333 522.5,125.5C 521.526,123.257 521.192,120.924 521.5,118.5 Z"/></g>
<g><path style="opacity:0.38" fill="#e3f5fc" d="M 540.5,118.5 C 541.725,119.152 542.392,120.319 542.5,122C 542.167,123.167 541.833,124.333 541.5,125.5C 540.526,123.257 540.192,120.924 540.5,118.5 Z"/></g>
<g><path style="opacity:0.476" fill="#e9f7fd" d="M 603.5,125.5 C 603.167,125.5 602.833,125.5 602.5,125.5C 602.768,123.901 602.434,122.568 601.5,121.5C 600.833,118.833 600.167,118.833 599.5,121.5C 599.167,121.5 598.833,121.5 598.5,121.5C 598.631,117.348 600.131,116.682 603,119.5C 603.495,121.473 603.662,123.473 603.5,125.5 Z M 601.5,121.5 C 600.833,121.5 600.167,121.5 599.5,121.5C 600.167,118.833 600.833,118.833 601.5,121.5 Z"/></g>
<g><path style="opacity:0.088" fill="#e9f7fd" d="M 628.5,123.5 C 628.5,125.167 628.5,126.833 628.5,128.5C 627.596,127.791 627.263,126.791 627.5,125.5C 626.5,125.5 625.5,125.5 624.5,125.5C 624.689,121.002 625.689,116.669 627.5,112.5C 628.059,116.315 628.392,119.982 628.5,123.5 Z"/></g>
<g><path style="opacity:0.4" fill="#e2f5fc" d="M 510.5,119.5 C 511.725,120.152 512.392,121.319 512.5,123C 512.167,124.167 511.833,125.333 511.5,126.5C 510.526,124.257 510.192,121.924 510.5,119.5 Z"/></g>
<g><path style="opacity:0.765" fill="#ccecfa" d="M 526.5,121.5 C 526.328,120.508 526.662,119.842 527.5,119.5C 528.338,119.158 528.672,118.492 528.5,117.5C 527.833,116.833 527.167,116.167 526.5,115.5C 529.004,113.969 530.337,114.803 530.5,118C 530.576,120.756 529.243,121.923 526.5,121.5 Z"/></g>
<g><path style="opacity:1" fill="#8cd6f5" d="M 536.5,119.5 C 536.833,119.5 537.167,119.5 537.5,119.5C 537.5,120.833 537.5,122.167 537.5,123.5C 536.167,123.5 534.833,123.5 533.5,123.5C 533.5,122.5 533.5,121.5 533.5,120.5C 534.791,120.737 535.791,120.404 536.5,119.5 Z"/></g>
<g><path style="opacity:0.093" fill="#f2fafd" d="M 555.5,114.5 C 554.517,118.298 554.183,122.298 554.5,126.5C 553.167,126.5 551.833,126.5 550.5,126.5C 550.167,119.833 549.833,119.833 549.5,126.5C 548.5,126.5 547.5,126.5 546.5,126.5C 548.075,124.886 548.741,122.886 548.5,120.5C 549.5,120.5 550.5,120.5 551.5,120.5C 551.215,122.288 551.548,123.955 552.5,125.5C 553.167,121.5 553.833,117.5 554.5,113.5C 555.107,113.624 555.44,113.957 555.5,114.5 Z"/></g>
<g><path style="opacity:0.529" fill="#e1f4fc" d="M 593.5,119.5 C 592.767,121.294 591.767,122.961 590.5,124.5C 589.539,122.735 589.205,120.735 589.5,118.5C 591.099,118.232 592.432,118.566 593.5,119.5 Z"/></g>
<g><path style="opacity:1" fill="#bfe7f9" d="M 593.5,119.5 C 594.735,121.017 594.735,122.684 593.5,124.5C 592.386,125.776 591.386,125.776 590.5,124.5C 591.767,122.961 592.767,121.294 593.5,119.5 Z"/></g>
<g><path style="opacity:0.373" fill="#edf8fd" d="M 648.5,122.5 C 647.5,122.5 646.5,122.5 645.5,122.5C 643.949,120.087 643.283,117.421 643.5,114.5C 645.5,114.5 647.5,114.5 649.5,114.5C 649.721,117.279 649.388,119.946 648.5,122.5 Z"/></g>
<g><path style="opacity:1" fill="#8ad6f4" d="M 644.5,115.5 C 645.833,115.5 647.167,115.5 648.5,115.5C 648.5,116.5 648.5,117.5 648.5,118.5C 647.167,118.5 645.833,118.5 644.5,118.5C 644.5,117.5 644.5,116.5 644.5,115.5 Z"/></g>
<g><path style="opacity:0.561" fill="#dff3fc" d="M 562.5,119.5 C 563.906,119.973 564.573,120.973 564.5,122.5C 563.094,122.027 562.427,121.027 562.5,119.5 Z"/></g>
<g><path style="opacity:1" fill="#a4def6" d="M 598.5,121.5 C 598.833,121.5 599.167,121.5 599.5,121.5C 600.167,121.5 600.833,121.5 601.5,121.5C 602.434,122.568 602.768,123.901 602.5,125.5C 600.833,125.5 599.167,125.5 597.5,125.5C 597.232,123.901 597.566,122.568 598.5,121.5 Z"/></g>
<g><path style="opacity:0.945" fill="#cbebfa" d="M 814.5,121.5 C 816.262,122.262 817.262,123.596 817.5,125.5C 815.738,124.738 814.738,123.404 814.5,121.5 Z"/></g>
<g><path style="opacity:0.361" fill="#e9f7fd" d="M 17.5,121.5 C 17.573,123.027 16.9063,124.027 15.5,124.5C 15.427,122.973 16.0937,121.973 17.5,121.5 Z"/></g>
<g><path style="opacity:0.369" fill="#e7f6fd" d="M 365.5,121.5 C 366.906,121.973 367.573,122.973 367.5,124.5C 366.094,124.027 365.427,123.027 365.5,121.5 Z"/></g>
<g><path style="opacity:1" fill="#8cd6f5" d="M 615.5,123.5 C 616.833,123.5 618.167,123.5 619.5,123.5C 619.5,124.5 619.5,125.5 619.5,126.5C 618.167,126.5 616.833,126.5 615.5,126.5C 615.5,125.5 615.5,124.5 615.5,123.5 Z"/></g>
<g><path style="opacity:0.412" fill="#e2f4fc" d="M 621.5,122.5 C 622.725,123.152 623.392,124.319 623.5,126C 623.167,127.167 622.833,128.333 622.5,129.5C 621.526,127.257 621.192,124.924 621.5,122.5 Z"/></g>
<g><path style="opacity:0.957" fill="#ccecfa" d="M 761.5,122.5 C 761.262,124.404 760.262,125.738 758.5,126.5C 758.738,124.596 759.738,123.262 761.5,122.5 Z"/></g>
<g><path style="opacity:0.471" fill="#e8f6fd" d="M 501.5,119.5 C 503.5,119.5 505.5,119.5 507.5,119.5C 507.425,122.206 507.092,124.873 506.5,127.5C 505.167,127.5 503.833,127.5 502.5,127.5C 501.908,124.873 501.575,122.206 501.5,119.5 Z"/></g>
<g><path style="opacity:1" fill="#8ad6f4" d="M 502.5,120.5 C 503.833,120.5 505.167,120.5 506.5,120.5C 506.5,121.5 506.5,122.5 506.5,123.5C 505.167,123.5 503.833,123.5 502.5,123.5C 502.5,122.5 502.5,121.5 502.5,120.5 Z"/></g>
<g><path style="opacity:0.502" fill="#dcf2fb" d="M 564.5,122.5 C 565.906,122.973 566.573,123.973 566.5,125.5C 565.094,125.027 564.427,124.027 564.5,122.5 Z"/></g>
<g><path style="opacity:1" fill="#c0e7f9" d="M 613.5,128.5 C 612.767,126.706 611.767,125.039 610.5,123.5C 611.386,122.224 612.386,122.224 613.5,123.5C 614.735,125.316 614.735,126.983 613.5,128.5 Z"/></g>
<g><path style="opacity:0.361" fill="#e2f5fc" d="M 633.5,123.5 C 634.725,124.152 635.392,125.319 635.5,127C 635.167,128.167 634.833,129.333 634.5,130.5C 633.526,128.257 633.192,125.924 633.5,123.5 Z"/></g>
<g><path style="opacity:0.624" fill="#dbf2fb" d="M 603.5,126.5 C 603.5,126.167 603.5,125.833 603.5,125.5C 604.833,125.5 606.167,125.5 607.5,125.5C 607.5,126.833 607.5,128.167 607.5,129.5C 606.5,129.5 605.5,129.5 604.5,129.5C 604.737,128.209 604.404,127.209 603.5,126.5 Z"/></g>
<g><path style="opacity:0.624" fill="#def3fb" d="M 610.5,123.5 C 611.767,125.039 612.767,126.706 613.5,128.5C 612.432,129.434 611.099,129.768 609.5,129.5C 609.205,127.265 609.539,125.265 610.5,123.5 Z"/></g>
<g><path style="opacity:0.15" fill="#dff2fb" d="M 507.5,126.5 C 508.725,127.152 509.392,128.319 509.5,130C 509.167,131.167 508.833,132.333 508.5,133.5C 507.526,131.257 507.192,128.924 507.5,126.5 Z"/></g>
<g><path style="opacity:0.753" fill="#cdecfa" d="M 615.5,123.5 C 616.919,122.549 618.585,122.216 620.5,122.5C 620.5,124.167 620.5,125.833 620.5,127.5C 619.833,127.5 619.167,127.5 618.5,127.5C 618.167,127.5 617.833,127.5 617.5,127.5C 616.833,127.5 616.167,127.5 615.5,127.5C 615.5,127.167 615.5,126.833 615.5,126.5C 616.833,126.5 618.167,126.5 619.5,126.5C 619.5,125.5 619.5,124.5 619.5,123.5C 618.167,123.5 616.833,123.5 615.5,123.5 Z"/></g>
<g><path style="opacity:0.718" fill="#bde6f8" d="M 631.5,123.5 C 631.854,125.767 631.521,127.101 630.5,127.5C 630.167,124.833 629.833,124.833 629.5,127.5C 629.5,128.167 629.167,128.5 628.5,128.5C 628.5,126.833 628.5,125.167 628.5,123.5C 629.5,122.167 630.5,122.167 631.5,123.5 Z"/></g>
<g><path style="opacity:0.49" fill="#3b82f6" d="M 817.5,125.5 C 818.906,125.973 819.573,126.973 819.5,128.5C 818.094,128.027 817.427,127.027 817.5,125.5 Z"/></g>
<g><path style="opacity:0.224" fill="#f3fbfe" d="M 615.5,127.5 C 616.167,127.5 616.833,127.5 617.5,127.5C 617.833,130.167 618.167,130.167 618.5,127.5C 619.167,127.5 619.833,127.5 620.5,127.5C 620.5,128.5 620.5,129.5 620.5,130.5C 618.833,130.5 617.167,130.5 615.5,130.5C 615.5,129.5 615.5,128.5 615.5,127.5 Z"/></g>
<g><path style="opacity:0.702" fill="#e1f4fc" d="M 631.5,123.5 C 632.461,125.265 632.795,127.265 632.5,129.5C 630.901,129.768 629.568,129.434 628.5,128.5C 629.167,128.5 629.5,128.167 629.5,127.5C 629.833,127.5 630.167,127.5 630.5,127.5C 631.521,127.101 631.854,125.767 631.5,123.5 Z"/></g>
<g><path style="opacity:0.2" fill="#fbfdff" d="M 487.5,129.5 C 473.01,130.496 458.343,130.829 443.5,130.5C 443.5,137.833 443.5,145.167 443.5,152.5C 443.167,152.5 442.833,152.5 442.5,152.5C 442.5,144.833 442.5,137.167 442.5,129.5C 457.5,129.5 472.5,129.5 487.5,129.5 Z"/></g>
<g><path style="opacity:0.663" fill="#d5effa" d="M 546.5,126.5 C 546.167,127.833 545.833,129.167 545.5,130.5C 543.14,129.092 543.474,127.759 546.5,126.5 Z"/></g>
<g><path style="opacity:0.22" fill="#f7fcfe" d="M 643.5,122.5 C 643.5,123.833 643.5,125.167 643.5,126.5C 641.5,126.5 639.5,126.5 637.5,126.5C 637.5,127.5 637.5,128.5 637.5,129.5C 642.833,129.5 648.167,129.5 653.5,129.5C 653.5,127.167 653.5,124.833 653.5,122.5C 654.473,124.948 654.806,127.615 654.5,130.5C 648.5,130.5 642.5,130.5 636.5,130.5C 636.5,128.833 636.5,127.167 636.5,125.5C 639.041,125.851 640.708,125.518 641.5,124.5C 641.5,123.167 641.5,121.833 641.5,120.5C 640.167,120.5 638.833,120.5 637.5,120.5C 637.5,121.833 637.5,123.167 637.5,124.5C 636.596,123.791 636.263,122.791 636.5,121.5C 634.901,121.768 633.568,121.434 632.5,120.5C 634.099,120.768 635.432,120.434 636.5,119.5C 637.234,118.071 638.401,117.071 640,116.5C 641.749,118.223 642.916,120.223 643.5,122.5 Z"/></g>
<g><path style="opacity:1" fill="#8cd6f5" d="M 643.5,122.5 C 644.167,122.5 644.833,122.5 645.5,122.5C 646.5,122.5 647.5,122.5 648.5,122.5C 650.167,122.5 651.833,122.5 653.5,122.5C 653.5,124.833 653.5,127.167 653.5,129.5C 648.167,129.5 642.833,129.5 637.5,129.5C 637.5,128.5 637.5,127.5 637.5,126.5C 639.5,126.5 641.5,126.5 643.5,126.5C 643.5,125.167 643.5,123.833 643.5,122.5 Z"/></g>
<g><path style="opacity:1" fill="#95d9f6" d="M 641.5,124.5 C 640.167,124.5 638.833,124.5 637.5,124.5C 637.5,123.167 637.5,121.833 637.5,120.5C 638.833,120.5 640.167,120.5 641.5,120.5C 641.5,121.833 641.5,123.167 641.5,124.5 Z"/></g>
<g><path style="opacity:0.063" fill="#eef9fd" d="M 867.5,129.5 C 868.482,132.962 868.815,136.629 868.5,140.5C 869.5,140.5 870.5,140.5 871.5,140.5C 871.198,137.941 871.532,135.607 872.5,133.5C 872.5,136.167 872.5,138.833 872.5,141.5C 870.801,141.34 869.134,141.506 867.5,142C 868.406,143.699 868.739,145.533 868.5,147.5C 866.5,147.5 864.5,147.5 862.5,147.5C 861.416,142.858 863.083,139.858 867.5,138.5C 864.87,135.424 864.87,132.424 867.5,129.5 Z"/></g>
<g><path style="opacity:0.4" fill="#e5f6fc" d="M 13.5,128.5 C 13.573,130.027 12.9063,131.027 11.5,131.5C 11.427,129.973 12.0937,128.973 13.5,128.5 Z"/></g>
<g><path style="opacity:0.412" fill="#e3f5fc" d="M 369.5,128.5 C 370.906,128.973 371.573,129.973 371.5,131.5C 370.094,131.027 369.427,130.027 369.5,128.5 Z"/></g>
<g><path style="opacity:0.412" fill="#e3f5fc" d="M 600.5,129.5 C 601.725,130.152 602.392,131.319 602.5,133C 602.167,134.167 601.833,135.333 601.5,136.5C 600.526,134.257 600.192,131.924 600.5,129.5 Z"/></g>
<g><path style="opacity:1" fill="#8bd6f5" d="M 603.5,126.5 C 604.404,127.209 604.737,128.209 604.5,129.5C 605.5,129.5 606.5,129.5 607.5,129.5C 607.5,136.833 607.5,144.167 607.5,151.5C 619.989,152.495 632.656,152.829 645.5,152.5C 645.5,157.833 645.5,163.167 645.5,168.5C 632.656,168.171 619.989,168.505 607.5,169.5C 607.5,176.5 607.5,183.5 607.5,190.5C 622.833,190.5 638.167,190.5 653.5,190.5C 653.5,196.167 653.5,201.833 653.5,207.5C 632.167,207.5 610.833,207.5 589.5,207.5C 589.5,185.833 589.5,164.167 589.5,142.5C 591.167,142.5 592.833,142.5 594.5,142.5C 594.5,139.5 594.5,136.5 594.5,133.5C 595.833,133.5 597.167,133.5 598.5,133.5C 598.5,135.833 598.5,138.167 598.5,140.5C 600.265,141.461 602.265,141.795 604.5,141.5C 604.813,137.958 604.479,134.625 603.5,131.5C 603.5,129.833 603.5,128.167 603.5,126.5 Z"/></g>
<g><path style="opacity:0.855" fill="#d6effa" d="M 714.5,130.5 C 716.5,130.5 717.5,131.5 717.5,133.5C 716.167,132.833 715.167,131.833 714.5,130.5 Z"/></g>
<g><path style="opacity:0.51" fill="#e5f5fc" d="M 545.5,130.5 C 547.027,130.427 548.027,131.094 548.5,132.5C 546.973,132.573 545.973,131.906 545.5,130.5 Z"/></g>
<g><path style="opacity:0.147" fill="#f1f9fd" d="M 603.5,131.5 C 604.479,134.625 604.813,137.958 604.5,141.5C 602.265,141.795 600.265,141.461 598.5,140.5C 600.167,140.5 601.833,140.5 603.5,140.5C 603.5,137.5 603.5,134.5 603.5,131.5 Z"/></g>
<g><path style="opacity:0.514" fill="#dcf2fb" d="M 503.5,132.5 C 504.693,132.97 505.36,133.97 505.5,135.5C 505.167,136.5 504.833,137.5 504.5,138.5C 503.534,136.604 503.201,134.604 503.5,132.5 Z"/></g>
<g><path style="opacity:0.741" fill="#c4eafa" d="M 861.5,132.5 C 861.972,134.531 862.972,136.198 864.5,137.5C 863.791,138.404 862.791,138.737 861.5,138.5C 861.5,136.833 861.5,135.167 861.5,133.5C 861.5,133.167 861.5,132.833 861.5,132.5 Z"/></g>
<g><path style="opacity:0.98" fill="#cbecf9" d="M 356.5,135.5 C 358.048,135.821 358.715,136.821 358.5,138.5C 357.599,137.71 356.932,136.71 356.5,135.5 Z"/></g>
<g><path style="opacity:0.38" fill="#e5f5fc" d="M 819.5,133.5 C 822.063,138.04 821.729,142.374 818.5,146.5C 818.182,141.968 818.515,137.634 819.5,133.5 Z"/></g>
<g><path style="opacity:0.443" fill="#e2f4fc" d="M 9.5,135.5 C 9.57298,137.027 8.90632,138.027 7.5,138.5C 7.42702,136.973 8.09368,135.973 9.5,135.5 Z"/></g>
<g><path style="opacity:0.455" fill="#e0f3fc" d="M 373.5,135.5 C 374.906,135.973 375.573,136.973 375.5,138.5C 374.094,138.027 373.427,137.027 373.5,135.5 Z"/></g>
<g><path style="opacity:0.044" fill="#ebf8fd" d="M 765.5,133.5 C 767.167,134.833 768.833,134.833 770.5,133.5C 771.167,136.5 771.833,139.5 772.5,142.5C 771.434,143.692 770.601,143.359 770,141.5C 768.667,142.833 767.333,142.833 766,141.5C 765.517,142.448 765.351,143.448 765.5,144.5C 763.833,144.5 762.167,144.5 760.5,144.5C 760.5,142.167 760.5,139.833 760.5,137.5C 759.167,137.5 757.833,137.5 756.5,137.5C 756.682,139.591 756.348,141.591 755.5,143.5C 755.994,145.026 756.661,146.359 757.5,147.5C 756.89,148.391 756.557,149.391 756.5,150.5C 754.5,150.5 752.5,150.5 750.5,150.5C 751.169,145.547 752.502,140.881 754.5,136.5C 754.833,143.167 755.167,143.167 755.5,136.5C 757.5,136.5 759.5,136.5 761.5,136.5C 761.5,138.833 761.5,141.167 761.5,143.5C 762.5,143.5 763.5,143.5 764.5,143.5C 764.187,139.958 764.521,136.625 765.5,133.5 Z"/></g>
<g><path style="opacity:1" fill="#92d8f5" d="M 765.5,135.5 C 767.167,135.5 768.833,135.5 770.5,135.5C 770.5,136.5 770.5,137.5 770.5,138.5C 768.833,138.5 767.167,138.5 765.5,138.5C 765.5,137.5 765.5,136.5 765.5,135.5 Z"/></g>
<g><path style="opacity:0.753" fill="#cfedfa" d="M 757.5,138.5 C 758.693,138.97 759.36,139.97 759.5,141.5C 759.167,142.5 758.833,143.5 758.5,144.5C 757.534,142.604 757.201,140.604 757.5,138.5 Z"/></g>
<g><path style="opacity:0.178" fill="#f7fcfe" d="M 507.5,134.5 C 507.5,136.833 507.5,139.167 507.5,141.5C 505.5,141.5 503.5,141.5 501.5,141.5C 501.5,163.5 501.5,185.5 501.5,207.5C 501.5,207.833 501.5,208.167 501.5,208.5C 500.503,186.006 500.169,163.339 500.5,140.5C 502.5,140.5 504.5,140.5 506.5,140.5C 506.205,138.265 506.539,136.265 507.5,134.5 Z"/></g>
<g><path style="opacity:0.189" fill="#f2fafe" d="M 598.5,133.5 C 597.167,133.5 595.833,133.5 594.5,133.5C 594.5,136.5 594.5,139.5 594.5,142.5C 592.833,142.5 591.167,142.5 589.5,142.5C 589.5,164.167 589.5,185.833 589.5,207.5C 589.5,207.833 589.5,208.167 589.5,208.5C 588.337,184.003 588.17,159.337 589,134.5C 590.062,131.971 590.895,129.304 591.5,126.5C 592.346,135.376 594.013,135.376 596.5,126.5C 597.275,128.843 597.942,131.177 598.5,133.5 Z"/></g>
<g><path style="opacity:1" fill="#8ad6f4" d="M 589.5,137.5 C 590.833,137.5 592.167,137.5 593.5,137.5C 593.5,138.5 593.5,139.5 593.5,140.5C 592.167,140.5 590.833,140.5 589.5,140.5C 589.5,139.5 589.5,138.5 589.5,137.5 Z"/></g>
<g><path style="opacity:0.451" fill="#dcf3fb" d="M 811.5,142.5 C 812.568,141.566 813.901,141.232 815.5,141.5C 815.5,143.167 815.5,144.833 815.5,146.5C 814.566,145.432 814.232,144.099 814.5,142.5C 813.5,142.5 812.5,142.5 811.5,142.5 Z"/></g>
<g><path style="opacity:1" fill="#8ad6f4" d="M 863.5,143.5 C 864.833,143.5 866.167,143.5 867.5,143.5C 867.5,144.5 867.5,145.5 867.5,146.5C 866.167,146.5 864.833,146.5 863.5,146.5C 863.5,145.5 863.5,144.5 863.5,143.5 Z"/></g>
<g><path style="opacity:0.424" fill="#e3f5fc" d="M 870.5,143.5 C 871.725,144.152 872.392,145.319 872.5,147C 872.167,148.167 871.833,149.333 871.5,150.5C 870.526,148.257 870.192,145.924 870.5,143.5 Z"/></g>
<g><path style="opacity:0.675" fill="#bce6f8" d="M 860.5,143.5 C 860.508,149.208 860.008,149.541 859,144.5C 858.79,146.058 858.29,147.391 857.5,148.5C 857.5,146.833 857.5,145.167 857.5,143.5C 858.5,142.167 859.5,142.167 860.5,143.5 Z"/></g>
<g><path style="opacity:1" fill="#8ad6f4" d="M 751.5,146.5 C 752.833,146.5 754.167,146.5 755.5,146.5C 755.5,147.5 755.5,148.5 755.5,149.5C 754.167,149.5 752.833,149.5 751.5,149.5C 751.5,148.5 751.5,147.5 751.5,146.5 Z"/></g>
<g><path style="opacity:0.361" fill="#e3f5fc" d="M 770.5,145.5 C 771.725,146.152 772.392,147.319 772.5,149C 772.167,150.167 771.833,151.333 771.5,152.5C 770.526,150.257 770.192,147.924 770.5,145.5 Z"/></g>
<g><path style="opacity:0.074" fill="#ecf8fd" d="M 808.5,138.5 C 808.89,141.797 809.89,144.797 811.5,147.5C 810.791,148.404 809.791,148.737 808.5,148.5C 808.737,149.791 808.404,150.791 807.5,151.5C 807.5,149.833 807.5,148.167 807.5,146.5C 808.473,144.052 808.806,141.385 808.5,138.5 Z"/></g>
<g><path style="opacity:1" fill="#abe1f7" d="M 807.5,146.5 C 807.5,148.167 807.5,149.833 807.5,151.5C 806.767,149.706 805.767,148.039 804.5,146.5C 805.5,145.167 806.5,145.167 807.5,146.5 Z"/></g>
<g><path style="opacity:0.31" fill="#e6f6fc" d="M 819.5,155.5 C 819.5,154.167 819.5,152.833 819.5,151.5C 820.163,149.958 820.83,148.291 821.5,146.5C 822.958,150.051 822.291,153.051 819.5,155.5 Z"/></g>
<g><path style="opacity:0.282" fill="#e2f5fc" d="M 857.5,143.5 C 857.5,145.167 857.5,146.833 857.5,148.5C 856.837,150.042 856.17,151.709 855.5,153.5C 854.029,150.679 854.363,148.179 856.5,146C 854.363,143.821 854.029,141.321 855.5,138.5C 856.17,140.291 856.837,141.958 857.5,143.5 Z"/></g>
<g><path style="opacity:1" fill="#b6e4f8" d="M 763.5,147.5 C 763.5,149.5 763.5,151.5 763.5,153.5C 762.307,153.03 761.64,152.03 761.5,150.5C 761.64,148.97 762.307,147.97 763.5,147.5 Z"/></g>
<g><path style="opacity:0.937" fill="#99daf6" d="M 769.5,149.5 C 768.833,149.5 768.167,149.5 767.5,149.5C 767.167,149.5 766.833,149.5 766.5,149.5C 765.167,149.5 764.5,148.833 764.5,147.5C 765.552,145.744 767.219,145.077 769.5,145.5C 769.5,146.833 769.5,148.167 769.5,149.5 Z"/></g>
<g><path style="opacity:0.647" fill="#def3fb" d="M 804.5,146.5 C 805.767,148.039 806.767,149.706 807.5,151.5C 806.432,152.434 805.099,152.768 803.5,152.5C 803.205,150.265 803.539,148.265 804.5,146.5 Z"/></g>
<g><path style="opacity:0.71" fill="#e6f6fc" d="M 860.5,143.5 C 861.461,145.265 861.795,147.265 861.5,149.5C 859.901,149.768 858.568,149.434 857.5,148.5C 858.29,147.391 858.79,146.058 859,144.5C 860.008,149.541 860.508,149.208 860.5,143.5 Z"/></g>
<g><path style="opacity:0.297" fill="#e3f5fc" d="M 864.5,148.5 C 865.725,149.152 866.392,150.319 866.5,152C 866.167,153.167 865.833,154.333 865.5,155.5C 864.526,153.257 864.192,150.924 864.5,148.5 Z"/></g>
<g><path style="opacity:0.733" fill="#d6f0fb" d="M 549.5,147.5 C 549.5,149.5 548.5,150.5 546.5,150.5C 547.167,149.167 548.167,148.167 549.5,147.5 Z"/></g>
<g><path style="opacity:0.827" fill="#cbecfa" d="M 757.5,147.5 C 758.5,147.5 759.5,147.5 760.5,147.5C 760.756,149.792 760.423,151.959 759.5,154C 757.066,154.333 756.066,153.166 756.5,150.5C 756.557,149.391 756.89,148.391 757.5,147.5 Z"/></g>
<g><path style="opacity:0.416" fill="#edf9fd" d="M 763.5,147.5 C 763.833,147.5 764.167,147.5 764.5,147.5C 764.5,148.833 765.167,149.5 766.5,149.5C 766.833,152.167 767.167,152.167 767.5,149.5C 768.167,149.5 768.833,149.5 769.5,149.5C 769.374,151.2 768.707,152.7 767.5,154C 767.57,154.765 767.903,155.265 768.5,155.5C 768.5,156.833 768.5,158.167 768.5,159.5C 767.833,159.5 767.5,159.833 767.5,160.5C 766.833,160.5 766.167,160.5 765.5,160.5C 765.664,157.813 765.497,155.146 765,152.5C 764.617,153.056 764.117,153.389 763.5,153.5C 763.5,151.5 763.5,149.5 763.5,147.5 Z"/></g>
<g><path style="opacity:0.49" fill="#e2f4fc" d="M 810.5,149.5 C 811.725,150.152 812.392,151.319 812.5,153C 812.167,154.167 811.833,155.333 811.5,156.5C 810.526,154.257 810.192,151.924 810.5,149.5 Z"/></g>
<g><path style="opacity:0.502" fill="#e1f4fc" d="M 867.5,149.5 C 868.725,150.152 869.392,151.319 869.5,153C 869.167,154.167 868.833,155.333 868.5,156.5C 867.526,154.257 867.192,151.924 867.5,149.5 Z"/></g>
<g><path style="opacity:0.334" fill="#edf8fd" d="M 713.5,130.5 C 705.167,130.5 696.833,130.5 688.5,130.5C 688.5,137.5 688.5,144.5 688.5,151.5C 696.833,151.5 705.167,151.5 713.5,151.5C 705.016,152.493 696.349,152.826 687.5,152.5C 687.5,144.833 687.5,137.167 687.5,129.5C 696.349,129.174 705.016,129.507 713.5,130.5 Z"/></g>
<g><path style="opacity:0.57" fill="#d9f2fc" d="M 752.5,151.5 C 753.693,151.97 754.36,152.97 754.5,154.5C 754.167,155.5 753.833,156.5 753.5,157.5C 752.534,155.604 752.201,153.604 752.5,151.5 Z"/></g>
<g><path style="opacity:0.463" fill="#ebf8fd" d="M 819.5,151.5 C 819.167,151.5 818.833,151.5 818.5,151.5C 817.833,148.833 817.167,148.833 816.5,151.5C 815.566,152.568 815.232,153.901 815.5,155.5C 813.812,152.316 814.479,149.65 817.5,147.5C 819.111,148.32 819.778,149.654 819.5,151.5 Z M 818.5,151.5 C 817.833,151.5 817.167,151.5 816.5,151.5C 817.167,148.833 817.833,148.833 818.5,151.5 Z"/></g>
<g><path style="opacity:1" fill="#90d7f5" d="M 816.5,151.5 C 817.167,151.5 817.833,151.5 818.5,151.5C 818.833,151.5 819.167,151.5 819.5,151.5C 819.5,152.833 819.5,154.167 819.5,155.5C 818.167,155.5 816.833,155.5 815.5,155.5C 815.232,153.901 815.566,152.568 816.5,151.5 Z"/></g>
<g><path style="opacity:1" fill="#8ad6f4" d="M 858.5,153.5 C 859.833,153.5 861.167,153.5 862.5,153.5C 862.5,154.5 862.5,155.5 862.5,156.5C 861.167,156.5 859.833,156.5 858.5,156.5C 858.5,155.5 858.5,154.5 858.5,153.5 Z"/></g>
<g><path style="opacity:0.533" fill="#dbf2fb" d="M 871.5,158.5 C 871.201,156.396 871.534,154.396 872.5,152.5C 872.833,153.5 873.167,154.5 873.5,155.5C 873.36,157.03 872.693,158.03 871.5,158.5 Z"/></g>
<g><path style="opacity:0.239" fill="#e0f4fc" d="M 755.5,155.5 C 756.725,156.152 757.392,157.319 757.5,159C 757.167,160.167 756.833,161.333 756.5,162.5C 755.526,160.257 755.192,157.924 755.5,155.5 Z"/></g>
<g><path style="opacity:1" fill="#a0ddf6" d="M 759.5,155.5 C 761.167,155.5 762.833,155.5 764.5,155.5C 764.768,157.099 764.434,158.432 763.5,159.5C 763.167,159.5 762.833,159.5 762.5,159.5C 761.833,159.5 761.167,159.5 760.5,159.5C 759.566,158.432 759.232,157.099 759.5,155.5 Z"/></g>
<g><path style="opacity:0.553" fill="#e0f4fc" d="M 806.5,155.5 C 807.725,156.152 808.392,157.319 808.5,159C 808.167,160.167 807.833,161.333 807.5,162.5C 806.526,160.257 806.192,157.924 806.5,155.5 Z"/></g>
<g><path style="opacity:0.143" fill="#dff2fb" d="M 855.5,156.5 C 856.725,157.152 857.392,158.319 857.5,160C 857.167,161.167 856.833,162.333 856.5,163.5C 855.526,161.257 855.192,158.924 855.5,156.5 Z"/></g>
<g><path style="opacity:0.735" fill="#cfedfa" d="M 858.5,153.5 C 859.919,152.549 861.585,152.216 863.5,152.5C 863.5,154.167 863.5,155.833 863.5,157.5C 862.833,157.5 862.167,157.5 861.5,157.5C 861.167,157.5 860.833,157.5 860.5,157.5C 859.833,157.5 859.167,157.5 858.5,157.5C 858.5,157.167 858.5,156.833 858.5,156.5C 859.833,156.5 861.167,156.5 862.5,156.5C 862.5,155.5 862.5,154.5 862.5,153.5C 861.167,153.5 859.833,153.5 858.5,153.5 Z"/></g>
<g><path style="opacity:0.075" fill="#e7f6fc" d="M 815.5,158.5 C 816.5,158.5 817.5,158.5 818.5,158.5C 818.5,160.833 818.5,163.167 818.5,165.5C 817.5,165.5 816.5,165.5 815.5,165.5C 815.5,163.167 815.5,160.833 815.5,158.5 Z"/></g>
<g><path style="opacity:0.42" fill="#f0f9fd" d="M 858.5,157.5 C 859.167,157.5 859.833,157.5 860.5,157.5C 860.833,160.167 861.167,160.167 861.5,157.5C 862.167,157.5 862.833,157.5 863.5,157.5C 862.952,160.084 861.285,161.084 858.5,160.5C 858.5,159.5 858.5,158.5 858.5,157.5 Z"/></g>
<g><path style="opacity:0.297" fill="#e3f5fc" d="M 864.5,158.5 C 865.725,159.152 866.392,160.319 866.5,162C 866.167,163.167 865.833,164.333 865.5,165.5C 864.526,163.257 864.192,160.924 864.5,158.5 Z"/></g>
<g><path style="opacity:0.69" fill="#ceedfa" d="M 768.5,160.5 C 768.5,160.167 768.5,159.833 768.5,159.5C 768.5,158.167 768.5,156.833 768.5,155.5C 769.077,153.348 770.244,153.015 772,154.5C 772.495,156.473 772.662,158.473 772.5,160.5C 771.167,160.5 769.833,160.5 768.5,160.5 Z"/></g>
<g><path style="opacity:0.882" fill="#c3e8f8" d="M 803.5,158.5 C 804.693,158.97 805.36,159.97 805.5,161.5C 805.167,162.5 804.833,163.5 804.5,164.5C 803.534,162.604 803.201,160.604 803.5,158.5 Z"/></g>
<g><path style="opacity:0.779" fill="#ccecfa" d="M 810.5,157.5 C 811.833,157.5 813.167,157.5 814.5,157.5C 814.5,159.833 814.5,162.167 814.5,164.5C 813.167,164.5 811.833,164.5 810.5,164.5C 810.5,162.167 810.5,159.833 810.5,157.5 Z"/></g>
<g><path style="opacity:0.31" fill="#e3f4fc" d="M 820.5,159.5 C 821.725,160.152 822.392,161.319 822.5,163C 822.167,164.167 821.833,165.333 821.5,166.5C 820.526,164.257 820.192,161.924 820.5,159.5 Z"/></g>
<g><path style="opacity:0.568" fill="#def3fc" d="M 871.5,158.5 C 871.5,158.833 871.5,159.167 871.5,159.5C 870.767,161.294 869.767,162.961 868.5,164.5C 867.539,162.735 867.205,160.735 867.5,158.5C 868.833,158.5 870.167,158.5 871.5,158.5 Z"/></g>
<g><path style="opacity:1" fill="#bde6f9" d="M 871.5,159.5 C 872.815,161.135 872.815,162.801 871.5,164.5C 870.386,165.776 869.386,165.776 868.5,164.5C 869.767,162.961 870.767,161.294 871.5,159.5 Z"/></g>
<g><path style="opacity:0.482" fill="#e9f7fd" d="M 759.5,155.5 C 759.232,157.099 759.566,158.432 760.5,159.5C 761.167,162.167 761.833,162.167 762.5,159.5C 762.833,159.5 763.167,159.5 763.5,159.5C 763.934,162.166 762.934,163.333 760.5,163C 758.354,160.643 758.021,158.143 759.5,155.5 Z M 760.5,159.5 C 761.167,159.5 761.833,159.5 762.5,159.5C 761.833,162.167 761.167,162.167 760.5,159.5 Z"/></g>
<g><path style="opacity:0.945" fill="#9edbf5" d="M 765.5,160.5 C 766.167,160.5 766.833,160.5 767.5,160.5C 766.233,162.039 765.233,163.706 764.5,165.5C 764.216,163.585 764.549,161.919 765.5,160.5 Z"/></g>
<g><path style="opacity:0.02" fill="#ecf8fd" d="M 563.5,160.5 C 563.167,162.833 561.833,164.167 559.5,164.5C 560.5,162.833 561.833,161.5 563.5,160.5 Z"/></g>
<g><path style="opacity:0.704" fill="#d3effb" d="M 716.5,157.5 C 715.532,159.607 715.198,161.941 715.5,164.5C 714.167,164.5 712.833,164.5 711.5,164.5C 711.663,162.143 711.497,159.81 711,157.5C 710.505,159.473 710.338,161.473 710.5,163.5C 707.959,163.149 706.292,163.482 705.5,164.5C 705.5,165.833 705.5,167.167 705.5,168.5C 704.833,168.5 704.167,168.5 703.5,168.5C 703.5,166.5 703.5,164.5 703.5,162.5C 705.5,162.5 707.5,162.5 709.5,162.5C 709.5,160.5 709.5,158.5 709.5,156.5C 712.059,156.198 714.393,156.532 716.5,157.5 Z"/></g>
<g><path style="opacity:0.16" fill="#e0f3fc" d="M 752.5,162.5 C 753.725,163.152 754.392,164.319 754.5,166C 754.167,167.167 753.833,168.333 753.5,169.5C 752.526,167.257 752.192,164.924 752.5,162.5 Z"/></g>
<g><path style="opacity:0.424" fill="#e3f5fc" d="M 860.5,161.5 C 861.725,162.152 862.392,163.319 862.5,165C 862.167,166.167 861.833,167.333 861.5,168.5C 860.526,166.257 860.192,163.924 860.5,161.5 Z"/></g>
<g><path style="opacity:0.333" fill="#f1f9fd" d="M 716.5,163.5 C 720.413,163.187 724.079,163.853 727.5,165.5C 727.265,166.097 726.765,166.43 726,166.5C 722.843,165.093 719.676,164.093 716.5,163.5 Z"/></g>
<g><path style="opacity:1" fill="#a1ddf6" d="M 705.5,164.5 C 707.167,164.5 708.833,164.5 710.5,164.5C 710.5,165.833 710.5,167.167 710.5,168.5C 710.167,168.5 709.833,168.5 709.5,168.5C 709.167,168.5 708.833,168.5 708.5,168.5C 707.833,168.5 707.167,168.5 706.5,168.5C 706.167,168.5 705.833,168.5 705.5,168.5C 705.5,167.167 705.5,165.833 705.5,164.5 Z"/></g>
<g><path style="opacity:0.251" fill="#e1f3fb" d="M 769.5,163.5 C 770.725,164.152 771.392,165.319 771.5,167C 771.167,168.167 770.833,169.333 770.5,170.5C 769.526,168.257 769.192,165.924 769.5,163.5 Z"/></g>
<g><path style="opacity:0.115" fill="#dff2fb" d="M 807.5,164.5 C 808.725,165.152 809.392,166.319 809.5,168C 809.167,169.167 808.833,170.333 808.5,171.5C 807.526,169.257 807.192,166.924 807.5,164.5 Z"/></g>
<g><path style="opacity:0.31" fill="#f2fafe" d="M 815.5,169.5 C 813.833,169.5 812.167,169.5 810.5,169.5C 810.35,165.839 811.85,164.839 815,166.5C 815.483,167.448 815.649,168.448 815.5,169.5 Z"/></g>
<g><path style="opacity:0.533" fill="#e1f4fc" d="M 721.5,165.5 C 722.725,166.152 723.392,167.319 723.5,169C 723.167,170.167 722.833,171.333 722.5,172.5C 721.526,170.257 721.192,167.924 721.5,165.5 Z"/></g>
<g><path style="opacity:0.902" fill="#b9e5f7" d="M 857.5,165.5 C 854.833,167.5 854.833,169.5 857.5,171.5C 856.5,171.5 855.5,171.5 854.5,171.5C 854.338,169.473 854.505,167.473 855,165.5C 855.977,164.226 856.811,164.226 857.5,165.5 Z"/></g>
<g><path style="opacity:0.541" fill="#e1f4fc" d="M 816.5,166.5 C 817.725,167.152 818.392,168.319 818.5,170C 818.167,171.167 817.833,172.333 817.5,173.5C 816.526,171.257 816.192,168.924 816.5,166.5 Z"/></g>
<g><path style="opacity:0.451" fill="#e3f5fc" d="M 857.5,165.5 C 858.434,166.568 858.768,167.901 858.5,169.5C 858.5,170.167 858.5,170.833 858.5,171.5C 858.167,171.5 857.833,171.5 857.5,171.5C 854.833,169.5 854.833,167.5 857.5,165.5 Z"/></g>
<g><path style="opacity:0.424" fill="#e3f5fc" d="M 870.5,166.5 C 871.725,167.152 872.392,168.319 872.5,170C 872.167,171.167 871.833,172.333 871.5,173.5C 870.526,171.257 870.192,168.924 870.5,166.5 Z"/></g>
<g><path style="opacity:0.8" fill="#bee7f9" d="M 607.5,151.5 C 620.5,151.5 633.5,151.5 646.5,151.5C 646.5,157.5 646.5,163.5 646.5,169.5C 633.5,169.5 620.5,169.5 607.5,169.5C 619.989,168.505 632.656,168.171 645.5,168.5C 645.5,163.167 645.5,157.833 645.5,152.5C 632.656,152.829 619.989,152.495 607.5,151.5 Z"/></g>
<g><path style="opacity:0.601" fill="#c8ebfa" d="M 442.5,152.5 C 442.833,152.5 443.167,152.5 443.5,152.5C 455.833,152.5 468.167,152.5 480.5,152.5C 480.5,158.5 480.5,164.5 480.5,170.5C 468.167,170.5 455.833,170.5 443.5,170.5C 443.167,170.5 442.833,170.5 442.5,170.5C 454.655,169.505 466.989,169.171 479.5,169.5C 479.5,164.167 479.5,158.833 479.5,153.5C 466.989,153.829 454.655,153.495 442.5,152.5 Z"/></g>
<g><path style="opacity:1" fill="#c9ebf9" d="M 710.5,168.5 C 711.5,168.5 712.5,168.5 713.5,168.5C 713.5,170.5 713.5,172.5 713.5,174.5C 712.5,174.5 711.5,174.5 710.5,174.5C 710.5,172.5 710.5,170.5 710.5,168.5 Z"/></g>
<g><path style="opacity:0.576" fill="#e6f5fc" d="M 717.5,168.5 C 718.833,170.5 718.833,172.5 717.5,174.5C 717.096,173.244 716.429,172.077 715.5,171C 716.056,169.989 716.722,169.156 717.5,168.5 Z"/></g>
<g><path style="opacity:1" fill="#92d8f5" d="M 810.5,169.5 C 812.167,169.5 813.833,169.5 815.5,169.5C 815.5,170.5 815.5,171.5 815.5,172.5C 813.833,172.5 812.167,172.5 810.5,172.5C 810.5,171.5 810.5,170.5 810.5,169.5 Z"/></g>
<g><path style="opacity:0.353" fill="#e8f6fc" d="M 23.5,168.5 C 24.9063,168.973 25.573,169.973 25.5,171.5C 24.0937,171.027 23.427,170.027 23.5,168.5 Z"/></g>
<g><path style="opacity:0.353" fill="#e9f7fd" d="M 359.5,168.5 C 359.573,170.027 358.906,171.027 357.5,171.5C 357.427,169.973 358.094,168.973 359.5,168.5 Z"/></g>
<g><path style="opacity:0.058" fill="#fcfefe" d="M 442.5,170.5 C 442.833,170.5 443.167,170.5 443.5,170.5C 443.802,178.918 443.469,187.252 442.5,195.5C 441.167,195.5 439.833,195.5 438.5,195.5C 438.833,194.833 439.167,194.167 439.5,193.5C 440.5,193.5 441.5,193.5 442.5,193.5C 442.5,185.833 442.5,178.167 442.5,170.5 Z"/></g>
<g><path style="opacity:0.878" fill="#bce6f7" d="M 530.5,170.5 C 526.833,170.5 523.167,170.5 519.5,170.5C 519.5,183.167 519.5,195.833 519.5,208.5C 513.5,208.5 507.5,208.5 501.5,208.5C 501.5,208.167 501.5,207.833 501.5,207.5C 507.167,207.5 512.833,207.5 518.5,207.5C 518.5,194.833 518.5,182.167 518.5,169.5C 522.702,169.183 526.702,169.517 530.5,170.5 Z"/></g>
<g><path style="opacity:0.588" fill="#e2f4fc" d="M 716.5,112.5 C 701.167,112.5 685.833,112.5 670.5,112.5C 670.5,144.167 670.5,175.833 670.5,207.5C 676.167,207.5 681.833,207.5 687.5,207.5C 687.5,194.833 687.5,182.167 687.5,169.5C 691.6,169.763 695.6,169.43 699.5,168.5C 696.316,170.414 692.649,171.08 688.5,170.5C 688.5,183.167 688.5,195.833 688.5,208.5C 682.167,208.5 675.833,208.5 669.5,208.5C 669.5,176.167 669.5,143.833 669.5,111.5C 685.342,111.17 701.009,111.504 716.5,112.5 Z"/></g>
<g><path style="opacity:0.525" fill="#e4f5fc" d="M 705.5,168.5 C 705.833,168.5 706.167,168.5 706.5,168.5C 707.167,171.167 707.833,171.167 708.5,168.5C 708.833,168.5 709.167,168.5 709.5,168.5C 709.5,169.5 709.5,170.5 709.5,171.5C 708.167,171.5 706.833,171.5 705.5,171.5C 705.5,170.5 705.5,169.5 705.5,168.5 Z M 706.5,168.5 C 707.167,168.5 707.833,168.5 708.5,168.5C 707.833,171.167 707.167,171.167 706.5,168.5 Z"/></g>
<g><path style="opacity:0.333" fill="#ebf7fd" d="M 767.5,160.5 C 767.833,160.5 768.167,160.5 768.5,160.5C 768.5,162.5 768.5,164.5 768.5,166.5C 767.167,166.5 765.833,166.5 764.5,166.5C 764.5,167.5 764.5,168.5 764.5,169.5C 764.5,171.5 764.5,173.5 764.5,175.5C 763.167,175.5 761.833,175.5 760.5,175.5C 760.5,174.167 760.5,172.833 760.5,171.5C 759.167,171.5 757.833,171.5 756.5,171.5C 756.797,161.791 757.63,161.458 759,170.5C 759.495,168.527 759.662,166.527 759.5,164.5C 761.099,164.232 762.432,164.566 763.5,165.5C 763.833,165.5 764.167,165.5 764.5,165.5C 765.233,163.706 766.233,162.039 767.5,160.5 Z M 761.5,171.5 C 763.465,171.948 763.798,172.948 762.5,174.5C 761.614,173.675 761.281,172.675 761.5,171.5 Z"/></g>
<g><path style="opacity:0.965" fill="#97daf4" d="M 763.5,165.5 C 763.5,167.167 763.5,168.833 763.5,170.5C 762.448,170.649 761.448,170.483 760.5,170C 761.897,168.69 762.897,167.19 763.5,165.5 Z"/></g>
<g><path style="opacity:1" fill="#91d8f5" d="M 764.5,169.5 C 765.167,169.5 765.833,169.5 766.5,169.5C 766.5,172.833 766.5,176.167 766.5,179.5C 767.5,179.5 768.5,179.5 769.5,179.5C 769.5,177.833 769.5,176.167 769.5,174.5C 770.5,174.5 771.5,174.5 772.5,174.5C 773.01,177.539 773.677,180.539 774.5,183.5C 775.167,186.167 776.833,187.833 779.5,188.5C 781.284,188.893 782.95,189.559 784.5,190.5C 785.793,191.158 787.293,191.492 789,191.5C 791.544,191.664 793.71,190.997 795.5,189.5C 795.842,188.662 796.508,188.328 797.5,188.5C 800.167,187.833 801.833,186.167 802.5,183.5C 802.5,181.5 802.5,179.5 802.5,177.5C 803.924,179.515 804.59,181.848 804.5,184.5C 806.5,184.5 808.5,184.5 810.5,184.5C 810.5,182.5 810.5,180.5 810.5,178.5C 810.5,177.167 810.5,175.833 810.5,174.5C 812.861,174.674 815.194,175.007 817.5,175.5C 818.167,177.167 818.833,178.833 819.5,180.5C 820.167,177.5 820.833,174.5 821.5,171.5C 821.5,172.833 821.5,174.167 821.5,175.5C 822.388,178.054 822.721,180.721 822.5,183.5C 821.82,188.522 819.82,192.856 816.5,196.5C 815.094,196.973 814.427,197.973 814.5,199.5C 814.5,200.167 814.167,200.5 813.5,200.5C 811.973,200.427 810.973,201.094 810.5,202.5C 804.167,207.591 796.834,209.924 788.5,209.5C 781.524,209.841 775.191,208.174 769.5,204.5C 769.027,203.094 768.027,202.427 766.5,202.5C 766.027,201.094 765.027,200.427 763.5,200.5C 762.5,200.167 761.833,199.5 761.5,198.5C 761.573,196.973 760.906,195.973 759.5,195.5C 757.127,193.421 755.794,190.754 755.5,187.5C 755.433,186.041 755.766,184.708 756.5,183.5C 756.5,179.5 756.5,175.5 756.5,171.5C 757.833,171.5 759.167,171.5 760.5,171.5C 760.5,172.833 760.5,174.167 760.5,175.5C 761.833,175.5 763.167,175.5 764.5,175.5C 764.5,173.5 764.5,171.5 764.5,169.5 Z M 761.5,171.5 C 761.281,172.675 761.614,173.675 762.5,174.5C 763.798,172.948 763.465,171.948 761.5,171.5 Z"/></g>
<g><path style="opacity:0.98" fill="#bce6f8" d="M 805.5,168.5 C 804.833,169.167 804.167,169.833 803.5,170.5C 803.5,171.167 803.5,171.833 803.5,172.5C 804.167,173.167 804.833,173.833 805.5,174.5C 805.167,174.5 804.833,174.5 804.5,174.5C 802.278,174.441 801.278,173.275 801.5,171C 801.833,170.167 802.167,169.333 802.5,168.5C 803.687,167.347 804.687,167.347 805.5,168.5 Z"/></g>
<g><path style="opacity:0.698" fill="#d5f0fa" d="M 805.5,168.5 C 806.833,170.5 806.833,172.5 805.5,174.5C 804.833,173.833 804.167,173.167 803.5,172.5C 804.833,171.833 804.833,171.167 803.5,170.5C 804.167,169.833 804.833,169.167 805.5,168.5 Z"/></g>
<g><path style="opacity:0.357" fill="#e8f6fc" d="M 551.5,169.5 C 552.906,169.973 553.573,170.973 553.5,172.5C 552.094,172.027 551.427,171.027 551.5,169.5 Z"/></g>
<g><path style="opacity:0.104" fill="#fdfeff" d="M 726.5,172.5 C 727.797,174.693 727.797,177.027 726.5,179.5C 725.893,179.376 725.56,179.043 725.5,178.5C 726.461,176.735 726.795,174.735 726.5,172.5 Z"/></g>
<g><path style="opacity:0.667" fill="#d6f0fb" d="M 810.5,172.5 C 812.167,172.5 813.833,172.5 815.5,172.5C 815.782,173.778 816.449,174.778 817.5,175.5C 815.194,175.007 812.861,174.674 810.5,174.5C 810.5,173.833 810.5,173.167 810.5,172.5 Z"/></g>
<g><path style="opacity:0.869" fill="#9fdcf5" d="M 858.5,169.5 C 860.167,169.5 861.833,169.5 863.5,169.5C 863.843,171.483 863.176,172.817 861.5,173.5C 861.167,173.5 860.833,173.5 860.5,173.5C 859.833,173.5 859.167,173.5 858.5,173.5C 858.5,172.833 858.5,172.167 858.5,171.5C 858.5,170.833 858.5,170.167 858.5,169.5 Z"/></g>
<g><path style="opacity:0.361" fill="#e2f5fc" d="M 706.5,172.5 C 707.725,173.152 708.392,174.319 708.5,176C 708.167,177.167 707.833,178.333 707.5,179.5C 706.526,177.257 706.192,174.924 706.5,172.5 Z"/></g>
<g><path style="opacity:0.714" fill="#c5e9f9" d="M 717.5,168.5 C 716.722,169.156 716.056,169.989 715.5,171C 716.429,172.077 717.096,173.244 717.5,174.5C 716.5,174.5 715.5,174.5 714.5,174.5C 714.5,172.167 714.5,169.833 714.5,167.5C 715.791,167.263 716.791,167.596 717.5,168.5 Z"/></g>
<g><path style="opacity:1" fill="#b9e5f8" d="M 726.5,172.5 C 726.795,174.735 726.461,176.735 725.5,178.5C 724.853,177.726 724.52,176.726 724.5,175.5C 724.64,173.97 725.307,172.97 726.5,172.5 Z"/></g>
<g><path style="opacity:0.973" fill="#b8e4f7" d="M 857.5,178.5 C 856.307,178.03 855.64,177.03 855.5,175.5C 855.833,174.5 856.167,173.5 856.5,172.5C 857.466,174.396 857.799,176.396 857.5,178.5 Z"/></g>
<g><path style="opacity:0.575" fill="#d8f1fb" d="M 766.5,169.5 C 768.215,171.551 770.215,173.218 772.5,174.5C 771.5,174.5 770.5,174.5 769.5,174.5C 769.5,176.167 769.5,177.833 769.5,179.5C 768.5,179.5 767.5,179.5 766.5,179.5C 766.5,176.167 766.5,172.833 766.5,169.5 Z"/></g>
<g><path style="opacity:0.396" fill="#e5f5fc" d="M 27.5,175.5 C 28.9063,175.973 29.573,176.973 29.5,178.5C 28.0937,178.027 27.427,177.027 27.5,175.5 Z"/></g>
<g><path style="opacity:0.396" fill="#e6f6fc" d="M 355.5,175.5 C 355.573,177.027 354.906,178.027 353.5,178.5C 353.427,176.973 354.094,175.973 355.5,175.5 Z"/></g>
<g><path style="opacity:0.443" fill="#edf8fd" d="M 821.5,171.5 C 820.833,174.5 820.167,177.5 819.5,180.5C 819.18,177.102 819.513,173.768 820.5,170.5C 821.107,170.624 821.44,170.957 821.5,171.5 Z"/></g>
<g><path style="opacity:0.686" fill="#d7f0fb" d="M 821.5,175.5 C 822.748,176.334 823.415,177.667 823.5,179.5C 823.489,181.045 823.156,182.378 822.5,183.5C 822.721,180.721 822.388,178.054 821.5,175.5 Z"/></g>
<g><path style="opacity:0.42" fill="#e2f5fc" d="M 555.5,176.5 C 556.906,176.973 557.573,177.973 557.5,179.5C 556.094,179.027 555.427,178.027 555.5,176.5 Z"/></g>
<g><path style="opacity:0.16" fill="#d6f0fb" d="M 753.5,172.5 C 754.693,172.97 755.36,173.97 755.5,175.5C 755.299,177.973 754.632,180.306 753.5,182.5C 752.447,179.185 752.447,175.852 753.5,172.5 Z"/></g>
<g><path style="opacity:1" fill="#97daf6" d="M 858.5,177.5 C 859.552,177.351 860.552,177.517 861.5,178C 860.103,179.31 859.103,180.81 858.5,182.5C 858.5,182.167 858.5,181.833 858.5,181.5C 858.5,180.5 858.5,179.5 858.5,178.5C 858.5,178.167 858.5,177.833 858.5,177.5 Z"/></g>
<g><path style="opacity:0.556" fill="#e7f6fc" d="M 869.5,174.5 C 868.833,174.833 868.167,175.167 867.5,175.5C 864.683,174.083 863.017,175.083 862.5,178.5C 862.942,179.739 863.609,180.739 864.5,181.5C 863.167,181.5 861.833,181.5 860.5,181.5C 860.5,183.5 860.5,185.5 860.5,187.5C 858.833,187.5 857.167,187.5 855.5,187.5C 855.29,184.248 855.956,181.248 857.5,178.5C 857.833,178.5 858.167,178.5 858.5,178.5C 858.5,179.5 858.5,180.5 858.5,181.5C 858.214,187.1 858.214,187.433 858.5,182.5C 859.103,180.81 860.103,179.31 861.5,178C 860.552,177.517 859.552,177.351 858.5,177.5C 858.5,176.167 858.5,174.833 858.5,173.5C 859.167,173.5 859.833,173.5 860.5,173.5C 860.833,176.167 861.167,176.167 861.5,173.5C 863.176,172.817 863.843,171.483 863.5,169.5C 864.404,168.791 864.737,167.791 864.5,166.5C 865.833,166.5 867.167,166.5 868.5,166.5C 869.092,169.127 869.425,171.794 869.5,174.5 Z M 865.5,167.5 C 866.289,167.783 866.956,168.283 867.5,169C 866.184,169.528 865.517,169.028 865.5,167.5 Z M 858.5,181.5 C 858.5,181.833 858.5,182.167 858.5,182.5C 858.214,187.433 858.214,187.1 858.5,181.5 Z"/></g>
<g><path style="opacity:1" fill="#8ad6f4" d="M 864.5,170.5 C 865.833,170.5 867.167,170.5 868.5,170.5C 868.5,171.5 868.5,172.5 868.5,173.5C 867.167,173.5 865.833,173.5 864.5,173.5C 864.5,172.5 864.5,171.5 864.5,170.5 Z"/></g>
<g><path style="opacity:0.322" fill="#edf8fd" d="M 804.5,174.5 C 804.833,174.5 805.167,174.5 805.5,174.5C 807.707,175.13 809.374,176.464 810.5,178.5C 810.5,180.5 810.5,182.5 810.5,184.5C 808.5,184.5 806.5,184.5 804.5,184.5C 804.59,181.848 803.924,179.515 802.5,177.5C 803.551,176.778 804.218,175.778 804.5,174.5 Z"/></g>
<g><path style="opacity:1" fill="#8ad6f4" d="M 805.5,179.5 C 806.833,179.5 808.167,179.5 809.5,179.5C 809.5,180.5 809.5,181.5 809.5,182.5C 808.167,182.5 806.833,182.5 805.5,182.5C 805.5,181.5 805.5,180.5 805.5,179.5 Z"/></g>
<g><path style="opacity:0.631" fill="#d8f1fb" d="M 869.5,174.5 C 870.492,174.328 871.158,174.662 871.5,175.5C 869.011,180.418 868.011,185.751 868.5,191.5C 866.901,191.768 865.568,191.434 864.5,190.5C 865.5,190.5 866.5,190.5 867.5,190.5C 867.471,186.895 866.805,183.395 865.5,180C 865.759,178.213 866.425,176.713 867.5,175.5C 868.167,175.167 868.833,174.833 869.5,174.5 Z"/></g>
<g><path style="opacity:1" fill="#8ad5f4" d="M 871.5,175.5 C 871.5,175.833 871.5,176.167 871.5,176.5C 873.029,186.76 873.696,197.094 873.5,207.5C 867.5,207.5 861.5,207.5 855.5,207.5C 855.5,200.833 855.5,194.167 855.5,187.5C 857.167,187.5 858.833,187.5 860.5,187.5C 860.5,185.5 860.5,183.5 860.5,181.5C 861.833,181.5 863.167,181.5 864.5,181.5C 864.5,184.5 864.5,187.5 864.5,190.5C 865.568,191.434 866.901,191.768 868.5,191.5C 868.011,185.751 869.011,180.418 871.5,175.5 Z"/></g>
<g><path style="opacity:0.98" fill="#cbecf9" d="M 14.5,182.5 C 16.0481,182.821 16.7148,183.821 16.5,185.5C 15.5987,184.71 14.9321,183.71 14.5,182.5 Z"/></g>
<g><path style="opacity:0.111" fill="#e9f7fd" d="M 710.5,176.5 C 710.5,178.5 710.5,180.5 710.5,182.5C 709.387,183.946 709.22,185.613 710,187.5C 711.707,185.963 713.207,184.296 714.5,182.5C 715.338,182.158 715.672,181.492 715.5,180.5C 717.167,180.5 718.833,180.5 720.5,180.5C 720.369,181.239 720.536,181.906 721,182.5C 722.151,174.526 722.984,174.526 723.5,182.5C 725.492,182.672 727.158,182.005 728.5,180.5C 729.879,183.467 729.546,186.134 727.5,188.5C 726.549,187.081 726.216,185.415 726.5,183.5C 724.833,183.5 723.167,183.5 721.5,183.5C 721.5,186.5 721.5,189.5 721.5,192.5C 719.5,192.5 717.5,192.5 715.5,192.5C 715.664,189.813 715.497,187.146 715,184.5C 713.27,186.402 711.437,188.069 709.5,189.5C 708.06,188.054 707.393,186.221 707.5,184C 708.139,181.241 709.139,178.741 710.5,176.5 Z M 710.5,182.5 C 711.632,183.354 712.965,183.354 714.5,182.5C 713.207,184.296 711.707,185.963 710,187.5C 709.22,185.613 709.387,183.946 710.5,182.5 Z"/></g>
<g><path style="opacity:0.902" fill="#c7eaf9" d="M 710.5,176.5 C 714.068,176.759 715.401,178.759 714.5,182.5C 712.965,183.354 711.632,183.354 710.5,182.5C 710.5,180.5 710.5,178.5 710.5,176.5 Z"/></g>
<g><path style="opacity:1" fill="#99daf6" d="M 720.5,180.5 C 718.833,180.5 717.167,180.5 715.5,180.5C 715.5,179.167 715.5,177.833 715.5,176.5C 717.167,176.5 718.833,176.5 720.5,176.5C 720.5,177.833 720.5,179.167 720.5,180.5 Z"/></g>
<g><path style="opacity:1" fill="#90d7f5" d="M 727.5,188.5 C 729.099,188.232 730.432,188.566 731.5,189.5C 731.427,191.027 732.094,192.027 733.5,192.5C 734.674,193.514 735.34,194.847 735.5,196.5C 735.427,198.027 736.094,199.027 737.5,199.5C 738.338,199.842 738.672,200.508 738.5,201.5C 738.427,203.027 739.094,204.027 740.5,204.5C 741.338,204.842 741.672,205.508 741.5,206.5C 734.352,207.492 727.019,207.825 719.5,207.5C 718.4,206.395 717.733,205.062 717.5,203.5C 717.715,201.821 717.048,200.821 715.5,200.5C 713.246,196.993 711.246,193.327 709.5,189.5C 711.437,188.069 713.27,186.402 715,184.5C 715.497,187.146 715.664,189.813 715.5,192.5C 717.5,192.5 719.5,192.5 721.5,192.5C 721.5,189.5 721.5,186.5 721.5,183.5C 723.167,183.5 724.833,183.5 726.5,183.5C 726.216,185.415 726.549,187.081 727.5,188.5 Z"/></g>
<g><path style="opacity:0.4" fill="#ecf8fd" d="M 756.5,183.5 C 755.766,184.708 755.433,186.041 755.5,187.5C 754.876,187.083 754.543,186.416 754.5,185.5C 754.747,184.287 755.414,183.62 756.5,183.5 Z"/></g>
<g><path style="opacity:0.019" fill="#fdfefe" d="M 871.5,176.5 C 873.447,182.708 874.447,189.208 874.5,196C 874.499,200.347 874.166,204.514 873.5,208.5C 873.5,208.167 873.5,207.833 873.5,207.5C 873.696,197.094 873.029,186.76 871.5,176.5 Z"/></g>
<g><path style="opacity:0.435" fill="#e2f4fc" d="M 31.5,182.5 C 32.9063,182.973 33.573,183.973 33.5,185.5C 32.0937,185.027 31.427,184.027 31.5,182.5 Z"/></g>
<g><path style="opacity:0.435" fill="#e3f4fc" d="M 351.5,182.5 C 351.573,184.027 350.906,185.027 349.5,185.5C 349.427,183.973 350.094,182.973 351.5,182.5 Z"/></g>
<g><path style="opacity:0.267" fill="#ebf7fd" d="M 425.5,178.5 C 426.468,180.607 426.802,182.941 426.5,185.5C 428.833,185.5 431.167,185.5 433.5,185.5C 433.185,188.211 433.852,190.544 435.5,192.5C 434.5,192.5 433.5,192.5 432.5,192.5C 432.719,193.675 432.386,194.675 431.5,195.5C 429.821,193.896 427.821,193.229 425.5,193.5C 425.317,191.064 425.984,188.897 427.5,187C 425.679,184.544 425.012,181.711 425.5,178.5 Z M 428.5,187.5 C 429.568,186.566 430.901,186.232 432.5,186.5C 432.762,187.978 432.429,189.311 431.5,190.5C 430.859,189.007 429.859,188.007 428.5,187.5 Z"/></g>
<g><path style="opacity:0.482" fill="#def3fb" d="M 559.5,183.5 C 560.906,183.973 561.573,184.973 561.5,186.5C 560.094,186.027 559.427,185.027 559.5,183.5 Z"/></g>
<g><path style="opacity:0.667" fill="#e0f4fc" d="M 774.5,183.5 C 776.5,184.833 778.167,186.5 779.5,188.5C 776.833,187.833 775.167,186.167 774.5,183.5 Z"/></g>
<g><path style="opacity:0.827" fill="#cfedfa" d="M 802.5,183.5 C 801.833,186.167 800.167,187.833 797.5,188.5C 798.833,186.5 800.5,184.833 802.5,183.5 Z"/></g>
<g><path style="opacity:1" fill="#8ad6f4" d="M 426.5,190.5 C 427.675,190.281 428.675,190.614 429.5,191.5C 427.948,192.798 426.948,192.465 426.5,190.5 Z"/></g>
<g><path style="opacity:0.984" fill="#cbecf9" d="M 541.5,190.5 C 543.048,190.821 543.715,191.821 543.5,193.5C 542.599,192.71 541.932,191.71 541.5,190.5 Z"/></g>
<g><path style="opacity:0.38" fill="#e6f6fc" d="M 562.5,188.5 C 563.906,188.973 564.573,189.973 564.5,191.5C 563.094,191.027 562.427,190.027 562.5,188.5 Z"/></g>
<g><path style="opacity:0.933" fill="#ceedfb" d="M 795.5,189.5 C 793.71,190.997 791.544,191.664 789,191.5C 787.293,191.492 785.793,191.158 784.5,190.5C 788.215,190.577 791.881,190.244 795.5,189.5 Z"/></g>
<g><path style="opacity:0.478" fill="#def3fb" d="M 35.5,189.5 C 36.9063,189.973 37.573,190.973 37.5,192.5C 36.0937,192.027 35.427,191.027 35.5,189.5 Z"/></g>
<g><path style="opacity:0.478" fill="#dff3fc" d="M 347.5,189.5 C 347.573,191.027 346.906,192.027 345.5,192.5C 345.427,190.973 346.094,189.973 347.5,189.5 Z"/></g>
<g><path style="opacity:0.388" fill="#e6f6fc" d="M 731.5,189.5 C 732.906,189.973 733.573,190.973 733.5,192.5C 732.094,192.027 731.427,191.027 731.5,189.5 Z"/></g>
<g><path style="opacity:0.101" fill="#f9fdfe" d="M 438.5,193.5 C 437.9,194.9 436.9,195.9 435.5,196.5C 435.5,196.167 435.5,195.833 435.5,195.5C 436.158,194.602 436.824,193.602 437.5,192.5C 438.107,192.624 438.44,192.957 438.5,193.5 Z"/></g>
<g><path style="opacity:0.122" fill="#ecf8fd" d="M 426.5,194.5 C 427.693,194.97 428.36,195.97 428.5,197.5C 428.167,198.5 427.833,199.5 427.5,200.5C 426.534,198.604 426.201,196.604 426.5,194.5 Z"/></g>
<g><path style="opacity:0.365" fill="#e8f6fd" d="M 38.5,194.5 C 39.9063,194.973 40.573,195.973 40.5,197.5C 39.0937,197.027 38.427,196.027 38.5,194.5 Z"/></g>
<g><path style="opacity:0.365" fill="#e8f7fd" d="M 344.5,194.5 C 344.573,196.027 343.906,197.027 342.5,197.5C 342.427,195.973 343.094,194.973 344.5,194.5 Z"/></g>
<g><path style="opacity:0.004" fill="#f0f9fd" d="M 759.5,195.5 C 760.906,195.973 761.573,196.973 761.5,198.5C 760.094,198.027 759.427,197.027 759.5,195.5 Z"/></g>
<g><path style="opacity:0.337" fill="#f3fafe" d="M 433.5,199.5 C 432.167,199.5 430.833,199.5 429.5,199.5C 429.5,198.5 429.5,197.5 429.5,196.5C 430.833,196.5 432.167,196.5 433.5,196.5C 433.5,197.5 433.5,198.5 433.5,199.5 Z"/></g>
<g><path style="opacity:0.902" fill="#b9e5f9" d="M 435.5,196.5 C 435.662,198.527 435.495,200.527 435,202.5C 434.211,200.288 434.378,198.288 435.5,196.5 Z"/></g>
<g><path style="opacity:0.8" fill="#a5def6" d="M 438.5,195.5 C 439.833,195.5 441.167,195.5 442.5,195.5C 442.5,196.5 442.5,197.5 442.5,198.5C 442.167,198.5 441.833,198.5 441.5,198.5C 440.833,198.5 440.167,198.5 439.5,198.5C 439.167,198.5 438.833,198.5 438.5,198.5C 438.5,197.5 438.5,196.5 438.5,195.5 Z"/></g>
<g><path style="opacity:0.443" fill="#e1f4fc" d="M 566.5,195.5 C 567.906,195.973 568.573,196.973 568.5,198.5C 567.094,198.027 566.427,197.027 566.5,195.5 Z"/></g>
<g><path style="opacity:0.008" fill="#edf9fd" d="M 816.5,196.5 C 816.573,198.027 815.906,199.027 814.5,199.5C 814.427,197.973 815.094,196.973 816.5,196.5 Z"/></g>
<g><path style="opacity:0.451" fill="#e0f4fc" d="M 735.5,196.5 C 736.906,196.973 737.573,197.973 737.5,199.5C 736.094,199.027 735.427,198.027 735.5,196.5 Z"/></g>
<g><path style="opacity:0.285" fill="#f4fbfd" d="M 438.5,198.5 C 438.833,198.5 439.167,198.5 439.5,198.5C 440.167,199.833 440.833,199.833 441.5,198.5C 441.833,198.5 442.167,198.5 442.5,198.5C 441.167,202.5 439.833,202.5 438.5,198.5 Z"/></g>
<g><path style="opacity:0.98" fill="#cbecf9" d="M 715.5,200.5 C 717.048,200.821 717.715,201.821 717.5,203.5C 716.599,202.71 715.932,201.71 715.5,200.5 Z"/></g>
<g><path style="opacity:0.933" fill="#9bdcf6" d="M 429.5,199.5 C 430.833,199.5 432.167,199.5 433.5,199.5C 433.5,200.5 433.5,201.5 433.5,202.5C 432.167,202.5 430.833,202.5 429.5,202.5C 429.5,201.5 429.5,200.5 429.5,199.5 Z"/></g>
<g><path style="opacity:0.612" fill="#dcf2fb" d="M 763.5,200.5 C 765.027,200.427 766.027,201.094 766.5,202.5C 764.973,202.573 763.973,201.906 763.5,200.5 Z"/></g>
<g><path style="opacity:0.004" fill="#f3fafe" d="M 813.5,200.5 C 813.027,201.906 812.027,202.573 810.5,202.5C 810.973,201.094 811.973,200.427 813.5,200.5 Z"/></g>
<g><path style="opacity:0.138" fill="#edf8fd" d="M 426.5,202.5 C 427.693,202.97 428.36,203.97 428.5,205.5C 428.167,206.5 427.833,207.5 427.5,208.5C 426.534,206.604 426.201,204.604 426.5,202.5 Z"/></g>
<g><path style="opacity:0.345" fill="#e9f6fd" d="M 569.5,200.5 C 570.906,200.973 571.573,201.973 571.5,203.5C 570.094,203.027 569.427,202.027 569.5,200.5 Z"/></g>
<g><path style="opacity:0.404" fill="#e4f5fc" d="M 42.5,201.5 C 43.9063,201.973 44.573,202.973 44.5,204.5C 43.0937,204.027 42.427,203.027 42.5,201.5 Z"/></g>
<g><path style="opacity:0.408" fill="#e5f5fc" d="M 340.5,201.5 C 340.573,203.027 339.906,204.027 338.5,204.5C 338.427,202.973 339.094,201.973 340.5,201.5 Z"/></g>
<g><path style="opacity:0.29" fill="#3b82f6" d="M 437.5,202.5 C 438.693,202.97 439.36,203.97 439.5,205.5C 439.167,206.5 438.833,207.5 438.5,208.5C 437.534,206.604 437.201,204.604 437.5,202.5 Z"/></g>
<g><path style="opacity:0.349" fill="#e9f6fd" d="M 738.5,201.5 C 739.906,201.973 740.573,202.973 740.5,204.5C 739.094,204.027 738.427,203.027 738.5,201.5 Z"/></g>
<g><path style="opacity:0.655" fill="#d1eefa" d="M 766.5,202.5 C 768.027,202.427 769.027,203.094 769.5,204.5C 767.973,204.573 766.973,203.906 766.5,202.5 Z"/></g>
<g><path style="opacity:0.667" fill="#ceedfa" d="M 572.5,205.5 C 573.267,206.172 573.934,207.005 574.5,208C 566.833,208.667 559.167,208.667 551.5,208C 550.944,207.617 550.611,207.117 550.5,206.5C 554.45,207.098 558.45,207.432 562.5,207.5C 566.239,207.486 569.572,206.82 572.5,205.5 Z"/></g>
<g><path style="opacity:0.616" fill="#daf2fb" d="M 431.5,204.5 C 432.833,204.5 434.167,204.5 435.5,204.5C 435.5,206.167 435.5,207.833 435.5,209.5C 434.167,209.5 432.833,209.5 431.5,209.5C 431.5,207.833 431.5,206.167 431.5,204.5 Z"/></g>
<g><path style="opacity:0.067" fill="#e9f7fd" d="M 440.5,207.5 C 441.693,207.97 442.36,208.97 442.5,210.5C 442.167,211.5 441.833,212.5 441.5,213.5C 440.534,211.604 440.201,209.604 440.5,207.5 Z"/></g>
<g><path style="opacity:0.667" fill="#d4f0fa" d="M 653.5,190.5 C 654.49,196.31 654.823,202.31 654.5,208.5C 632.833,208.5 611.167,208.5 589.5,208.5C 589.5,208.167 589.5,207.833 589.5,207.5C 610.833,207.5 632.167,207.5 653.5,207.5C 653.5,201.833 653.5,196.167 653.5,190.5 Z"/></g>
<g><path style="opacity:0.667" fill="#d0eefa" d="M 741.5,206.5 C 742.043,206.56 742.376,206.893 742.5,207.5C 734.677,208.82 727.01,208.82 719.5,207.5C 727.019,207.825 734.352,207.492 741.5,206.5 Z"/></g>
<g><path style="opacity:0.675" fill="#dbf1fb" d="M 855.5,187.5 C 855.5,194.167 855.5,200.833 855.5,207.5C 861.5,207.5 867.5,207.5 873.5,207.5C 873.5,207.833 873.5,208.167 873.5,208.5C 867.167,208.5 860.833,208.5 854.5,208.5C 854.175,201.313 854.509,194.313 855.5,187.5 Z"/></g>
<g><path style="opacity:0.98" fill="#cbecf9" d="M 29.5,208.5 C 31.0481,208.821 31.7148,209.821 31.5,211.5C 30.5987,210.71 29.9321,209.71 29.5,208.5 Z"/></g>
<g><path style="opacity:0.447" fill="#e1f4fc" d="M 46.5,208.5 C 47.9063,208.973 48.573,209.973 48.5,211.5C 47.0937,211.027 46.427,210.027 46.5,208.5 Z"/></g>
<g><path style="opacity:0.447" fill="#e1f4fc" d="M 336.5,208.5 C 336.573,210.027 335.906,211.027 334.5,211.5C 334.427,209.973 335.094,208.973 336.5,208.5 Z"/></g>
<g><path style="opacity:0.392" fill="#eef9fd" d="M 434.5,211.5 C 435.693,211.97 436.36,212.97 436.5,214.5C 436.167,215.5 435.833,216.5 435.5,217.5C 434.534,215.604 434.201,213.604 434.5,211.5 Z"/></g>
<g><path style="opacity:0.268" fill="#f6fcfe" d="M 702.5,204.5 C 703.822,204.33 704.989,204.663 706,205.5C 706.498,208.482 706.665,211.482 706.5,214.5C 700.796,214.854 698.963,212.187 701,206.5C 701.717,205.956 702.217,205.289 702.5,204.5 Z"/></g>
<g><path style="opacity:0.256" fill="#f8fcfe" d="M 681.5,210.5 C 682.15,210.804 682.817,211.137 683.5,211.5C 684.484,214.428 684.817,217.428 684.5,220.5C 682.5,220.5 680.5,220.5 678.5,220.5C 678.5,217.5 678.5,214.5 678.5,211.5C 679.791,211.737 680.791,211.404 681.5,210.5 Z"/></g>
<g><path style="opacity:0.1" fill="#fbfdfe" d="M 849.5,214.5 C 850.725,215.152 851.392,216.319 851.5,218C 851.167,219.167 850.833,220.333 850.5,221.5C 849.526,219.257 849.192,216.924 849.5,214.5 Z"/></g>
<g><path style="opacity:0.333" fill="#e9f7fd" d="M 49.5,213.5 C 50.9063,213.973 51.573,214.973 51.5,216.5C 50.0937,216.027 49.427,215.027 49.5,213.5 Z"/></g>
<g><path style="opacity:0.348" fill="#f6fcfe" d="M 457.5,214.5 C 459.39,214.297 460.89,214.963 462,216.5C 462.784,219.76 462.617,222.927 461.5,226C 456.515,227.517 454.515,225.684 455.5,220.5C 455.676,218.215 456.343,216.215 457.5,214.5 Z"/></g>
<g><path style="opacity:0.41" fill="#ebf7fd" d="M 427.5,211.5 C 429.167,211.5 430.833,211.5 432.5,211.5C 432.868,214.056 432.034,216.056 430,217.5C 429.228,217.355 428.561,217.022 428,216.5C 427.506,214.866 427.34,213.199 427.5,211.5 Z"/></g>
<g><path style="opacity:1" fill="#8ad6f4" d="M 428.5,212.5 C 429.675,212.281 430.675,212.614 431.5,213.5C 429.948,214.798 428.948,214.465 428.5,212.5 Z"/></g>
<g><path style="opacity:0.296" fill="#f6fcfe" d="M 721.5,215.5 C 722.777,216.694 723.444,218.36 723.5,220.5C 723.167,222.167 722.833,223.833 722.5,225.5C 721.513,222.232 721.18,218.898 721.5,215.5 Z"/></g>
<g><path style="opacity:0.49" fill="#def2fb" d="M 332.5,215.5 C 332.573,217.027 331.906,218.027 330.5,218.5C 330.427,216.973 331.094,215.973 332.5,215.5 Z"/></g>
<g><path style="opacity:0.276" fill="#f8fcfe" d="M 788.5,217.5 C 789.693,217.97 790.36,218.97 790.5,220.5C 790.167,221.5 789.833,222.5 789.5,223.5C 788.534,221.604 788.201,219.604 788.5,217.5 Z"/></g>
<g><path style="opacity:0.6" fill="#dcf2fb" d="M 438.5,216.5 C 439.833,216.5 441.167,216.5 442.5,216.5C 442.949,218.977 442.283,220.977 440.5,222.5C 438.717,220.977 438.051,218.977 438.5,216.5 Z"/></g>
<g><path style="opacity:0.234" fill="#f9fdfe" d="M 876.5,217.5 C 877.833,217.5 879.167,217.5 880.5,217.5C 880.662,219.527 880.495,221.527 880,223.5C 879,224.833 878,224.833 877,223.5C 876.505,221.527 876.338,219.527 876.5,217.5 Z"/></g>
<g><path style="opacity:0.251" fill="#f9fdfe" d="M 773.5,220.5 C 777.677,219.842 779.177,221.508 778,225.5C 777.047,227.592 775.714,227.925 774,226.5C 773.505,224.527 773.338,222.527 773.5,220.5 Z"/></g>
<g><path style="opacity:0.165" fill="#fbfdff" d="M 863.5,220.5 C 864.725,221.152 865.392,222.319 865.5,224C 865.167,225.167 864.833,226.333 864.5,227.5C 863.526,225.257 863.192,222.924 863.5,220.5 Z"/></g>
<g><path style="opacity:0.373" fill="#e6f6fd" d="M 53.5,220.5 C 54.9063,220.973 55.573,221.973 55.5,223.5C 54.0937,223.027 53.427,222.027 53.5,220.5 Z"/></g>
<g><path style="opacity:0.376" fill="#e7f6fc" d="M 329.5,220.5 C 329.573,222.027 328.906,223.027 327.5,223.5C 327.427,221.973 328.094,220.973 329.5,220.5 Z"/></g>
<g><path style="opacity:0.348" fill="#f6fcfe" d="M 429.5,222.5 C 431.467,222.261 433.301,222.594 435,223.5C 435.824,226.882 435.657,230.216 434.5,233.5C 432.833,234.833 431.167,234.833 429.5,233.5C 428.242,229.79 428.242,226.123 429.5,222.5 Z"/></g>
<g><path style="opacity:0.166" fill="#fbfdff" d="M 802.5,223.5 C 803.725,224.152 804.392,225.319 804.5,227C 804.167,228.167 803.833,229.333 803.5,230.5C 802.526,228.257 802.192,225.924 802.5,223.5 Z"/></g>
<g><path style="opacity:0.169" fill="#f9fdfe" d="M 635.5,226.5 C 636.748,227.334 637.415,228.667 637.5,230.5C 637.167,231.833 636.833,233.167 636.5,234.5C 635.52,231.914 635.187,229.247 635.5,226.5 Z"/></g>
<g><path style="opacity:0.349" fill="#f7fcfe" d="M 480.5,227.5 C 481.496,227.414 482.329,227.748 483,228.5C 483.667,231.833 483.667,235.167 483,238.5C 481.989,239.337 480.822,239.67 479.5,239.5C 479.237,235.4 479.57,231.4 480.5,227.5 Z"/></g>
<g><path style="opacity:0.416" fill="#e3f5fc" d="M 57.5,227.5 C 58.9063,227.973 59.573,228.973 59.5,230.5C 58.0937,230.027 57.427,229.027 57.5,227.5 Z"/></g>
<g><path style="opacity:0.416" fill="#e4f5fc" d="M 325.5,227.5 C 325.573,229.027 324.906,230.027 323.5,230.5C 323.427,228.973 324.094,227.973 325.5,227.5 Z"/></g>
<g><path style="opacity:0.064" fill="#fbfdfe" d="M 561.5,229.5 C 562.5,229.5 563.5,229.5 564.5,229.5C 564.5,232.167 564.5,234.833 564.5,237.5C 563.5,237.5 562.5,237.5 561.5,237.5C 561.5,234.833 561.5,232.167 561.5,229.5 Z"/></g>
<g><path style="opacity:0.116" fill="#f9fdfe" d="M 652.5,233.5 C 653.748,234.334 654.415,235.667 654.5,237.5C 654.167,238.833 653.833,240.167 653.5,241.5C 652.52,238.914 652.187,236.247 652.5,233.5 Z"/></g>
<g><path style="opacity:0.976" fill="#cdecf9" d="M 44.5,234.5 C 46.0481,234.821 46.7148,235.821 46.5,237.5C 45.5987,236.71 44.9321,235.71 44.5,234.5 Z"/></g>
<g><path style="opacity:0.243" fill="#f8fcfe" d="M 543.5,233.5 C 545.167,233.5 546.833,233.5 548.5,233.5C 548.5,236.167 548.5,238.833 548.5,241.5C 546.833,241.5 545.167,241.5 543.5,241.5C 543.5,238.833 543.5,236.167 543.5,233.5 Z"/></g>
<g><path style="opacity:0.455" fill="#e0f3fc" d="M 61.5,234.5 C 62.9063,234.973 63.573,235.973 63.5,237.5C 62.0937,237.027 61.427,236.027 61.5,234.5 Z"/></g>
<g><path style="opacity:0.459" fill="#e0f3fc" d="M 321.5,234.5 C 321.573,236.027 320.906,237.027 319.5,237.5C 319.427,235.973 320.094,234.973 321.5,234.5 Z"/></g>
<g><path style="opacity:0.29" fill="#f7fcfe" d="M 668.5,229.5 C 671.734,229.237 673.068,230.737 672.5,234C 670.833,240 669.167,240 667.5,234C 667.605,232.408 667.939,230.908 668.5,229.5 Z"/></g>
<g><path style="opacity:0.173" fill="#f9fdfe" d="M 578.5,237.5 C 579.748,238.334 580.415,239.667 580.5,241.5C 580.167,242.833 579.833,244.167 579.5,245.5C 578.52,242.914 578.187,240.247 578.5,237.5 Z"/></g>
<g><path style="opacity:0.341" fill="#e9f6fd" d="M 64.5,239.5 C 65.9063,239.973 66.573,240.973 66.5,242.5C 65.0937,242.027 64.427,241.027 64.5,239.5 Z"/></g>
<g><path style="opacity:0.498" fill="#3b82f6" d="M 317.5,241.5 C 317.573,243.027 316.906,244.027 315.5,244.5C 315.427,242.973 316.094,241.973 317.5,241.5 Z"/></g>
<g><path style="opacity:0.384" fill="#e6f6fc" d="M 68.5,246.5 C 69.9063,246.973 70.573,247.973 70.5,249.5C 69.0937,249.027 68.427,248.027 68.5,246.5 Z"/></g>
<g><path style="opacity:0.384" fill="#e6f6fc" d="M 314.5,246.5 C 314.573,248.027 313.906,249.027 312.5,249.5C 312.427,247.973 313.094,246.973 314.5,246.5 Z"/></g>
<g><path style="opacity:0.984" fill="#cbecf9" d="M 55.5,253.5 C 57.0481,253.821 57.7148,254.821 57.5,256.5C 56.5987,255.71 55.9321,254.71 55.5,253.5 Z"/></g>
<g><path style="opacity:0.424" fill="#e3f5fc" d="M 72.5,253.5 C 73.9063,253.973 74.573,254.973 74.5,256.5C 73.0937,256.027 72.427,255.027 72.5,253.5 Z"/></g>
<g><path style="opacity:0.427" fill="#e3f4fc" d="M 310.5,253.5 C 310.573,255.027 309.906,256.027 308.5,256.5C 308.427,254.973 309.094,253.973 310.5,253.5 Z"/></g>
<g><path style="opacity:0.976" fill="#cdecf9" d="M 59.5,260.5 C 61.0481,260.821 61.7148,261.821 61.5,263.5C 60.5987,262.71 59.9321,261.71 59.5,260.5 Z"/></g>
<g><path style="opacity:0.561" fill="#dcf2fb" d="M 75.5,258.5 C 76.9063,258.973 77.573,259.973 77.5,261.5C 76.0937,261.027 75.427,260.027 75.5,258.5 Z"/></g>
<g><path style="opacity:0.565" fill="#ddf1fc" d="M 307.5,258.5 C 307.573,260.027 306.906,261.027 305.5,261.5C 305.427,259.973 306.094,258.973 307.5,258.5 Z"/></g>
<g><path style="opacity:0.98" fill="#ceedf9" d="M 298.5,266.5 C 297.01,268.28 295.01,268.946 292.5,268.5C 294.302,267.542 296.302,266.875 298.5,266.5 Z"/></g>
<g><path style="opacity:0.8" fill="#b4e4f8" d="M 137.5,267.5 C 130.197,268.831 122.53,269.498 114.5,269.5C 106.659,269.5 98.9926,269.166 91.5,268.5C 106.911,268.817 122.245,268.483 137.5,267.5 Z"/></g>
<g><path style="opacity:0.847" fill="#d2effa" d="M 70.5,277.5 C 72.0269,277.427 73.0269,278.094 73.5,279.5C 71.9731,279.573 70.9731,278.906 70.5,277.5 Z"/></g>
<g><path style="opacity:0.4" fill="#ebf8fc" d="M 80.5,282.5 C 97.5131,282.167 114.513,282.501 131.5,283.5C 131.376,284.107 131.043,284.44 130.5,284.5C 113.833,283.833 97.1667,283.167 80.5,282.5 Z"/></g>
<g><path style="opacity:0.671" fill="#d3effb" d="M 119.5,318.5 C 121.027,318.427 122.027,319.094 122.5,320.5C 121.833,320.5 121.167,320.5 120.5,320.5C 120.167,319.833 119.833,319.167 119.5,318.5 Z"/></g>
</svg>
